{"glyphs":{"0":{"ha":818,"x_min":61,"x_max":757,"o":"m 410 -20 q 157 116 252 -20 q 61 518 61 252 q 157 916 61 785 q 410 1047 252 1047 q 662 916 567 1047 q 757 518 757 784 q 662 116 757 252 q 410 -20 567 -20 m 410 140 q 489 175 454 140 q 544 291 524 209 q 564 518 564 374 q 544 743 564 662 q 489 856 524 823 q 410 889 454 889 q 330 856 366 889 q 275 743 295 823 q 254 518 254 662 q 275 291 254 374 q 330 175 295 209 q 410 140 366 140 z "},"1":{"ha":818,"x_min":114,"x_max":732,"o":"m 114 0 l 114 165 l 335 165 l 335 815 l 149 815 l 149 942 q 282 977 226 956 q 387 1029 338 998 l 539 1029 l 539 165 l 732 165 l 732 0 l 114 0 z "},"2":{"ha":818,"x_min":50,"x_max":749,"o":"m 60 0 l 60 118 q 387 453 269 306 q 504 720 504 601 q 464 842 504 798 q 350 886 424 886 q 247 855 294 886 q 161 781 201 823 l 50 892 q 196 1007 121 968 q 376 1047 271 1047 q 546 1008 473 1047 q 660 898 619 968 q 700 730 700 827 q 653 541 700 637 q 530 349 607 445 q 358 161 452 253 q 443 169 397 165 q 526 172 490 172 l 749 172 l 749 0 l 60 0 z "},"3":{"ha":818,"x_min":36,"x_max":742,"o":"m 380 -20 q 174 21 258 -20 q 36 123 90 62 l 132 253 q 235 178 178 208 q 361 147 292 147 q 488 184 439 147 q 536 292 536 222 q 512 378 536 342 q 426 435 488 415 q 253 456 365 456 l 253 602 q 402 622 347 602 q 479 677 456 642 q 503 758 503 713 q 467 852 503 819 q 366 886 431 886 q 263 862 310 886 q 171 796 216 838 l 66 921 q 209 1013 134 979 q 375 1047 284 1047 q 616 976 524 1047 q 708 774 708 905 q 663 631 708 690 q 538 539 618 571 l 538 532 q 683 444 624 508 q 742 279 742 380 q 692 118 742 184 q 561 16 643 51 q 380 -20 479 -20 z "},"4":{"ha":818,"x_min":29,"x_max":779,"o":"m 228 422 l 468 422 l 468 632 q 470 739 468 677 q 475 846 473 800 l 469 846 q 387 677 432 762 l 228 422 m 468 0 l 468 267 l 29 267 l 29 406 l 412 1029 l 659 1029 l 659 422 l 779 422 l 779 267 l 659 267 l 659 0 l 468 0 z "},"5":{"ha":818,"x_min":36,"x_max":743,"o":"m 383 -20 q 178 22 262 -20 q 36 121 94 64 l 131 252 q 230 178 174 209 q 357 147 285 147 q 488 196 437 147 q 539 336 539 245 q 491 474 539 426 q 366 522 444 522 q 288 510 319 522 q 211 468 256 497 l 118 529 l 146 1029 l 696 1029 l 696 857 l 322 857 l 302 639 q 363 661 334 654 q 427 668 391 668 q 585 633 513 668 q 700 526 656 598 q 743 342 743 454 q 693 146 743 227 q 561 23 642 66 q 383 -20 479 -20 z "},"6":{"ha":818,"x_min":69,"x_max":761,"o":"m 428 503 q 340 478 386 503 q 260 395 295 453 q 322 194 274 254 q 435 135 370 135 q 534 182 492 135 q 575 325 575 230 q 535 459 575 416 q 428 503 494 503 m 439 -20 q 257 35 341 -20 q 121 204 172 90 q 69 500 69 319 q 102 747 69 644 q 190 918 134 851 q 318 1016 246 984 q 467 1047 389 1047 q 630 1013 562 1047 q 746 930 699 979 l 637 808 q 567 862 610 840 q 479 884 524 884 q 371 850 420 884 q 291 741 321 817 q 256 536 260 665 q 357 617 297 588 q 467 647 416 647 q 679 568 596 647 q 761 325 761 490 q 717 142 761 220 q 600 23 673 65 q 439 -20 526 -20 z "},"7":{"ha":818,"x_min":69,"x_max":753,"o":"m 258 0 q 281 247 265 134 q 329 460 298 359 q 409 658 359 561 q 532 857 458 755 l 69 857 l 69 1029 l 753 1029 l 753 904 q 609 696 663 795 q 526 494 555 597 q 484 271 496 391 q 465 0 471 151 l 258 0 z "},"8":{"ha":818,"x_min":65,"x_max":754,"o":"m 408 -20 q 233 16 311 -20 q 110 113 155 51 q 65 256 65 175 q 117 420 65 355 q 241 524 170 486 l 241 530 q 144 633 182 573 q 106 775 106 692 q 146 919 106 858 q 256 1013 186 979 q 415 1046 326 1046 q 573 1011 506 1046 q 677 916 640 977 q 714 772 714 854 q 673 635 714 696 q 582 538 633 574 l 582 530 q 704 427 653 492 q 754 256 754 361 q 711 116 754 178 q 590 17 668 54 q 408 -20 513 -20 m 473 587 q 547 760 547 665 q 511 862 547 822 q 411 903 475 903 q 322 869 359 903 q 286 775 286 836 q 339 661 286 702 q 473 587 393 620 m 414 125 q 522 160 479 125 q 564 262 564 196 q 534 352 564 316 q 454 414 505 387 q 336 468 403 441 q 268 385 294 435 q 241 278 241 335 q 292 166 241 208 q 414 125 342 125 z "},"9":{"ha":818,"x_min":56,"x_max":749,"o":"m 243 704 q 282 570 243 614 q 389 526 322 526 q 477 552 431 526 q 558 637 523 578 q 496 835 545 777 q 382 893 448 893 q 284 846 325 893 q 243 704 243 799 m 354 -20 q 188 15 258 -20 q 72 97 118 50 l 180 221 q 252 169 209 190 q 342 147 296 147 q 447 180 399 147 q 526 288 495 212 q 561 492 556 363 q 461 410 520 439 q 350 380 402 380 q 198 416 264 380 q 94 524 132 452 q 56 704 56 595 q 100 887 56 810 q 217 1005 144 964 q 379 1047 291 1047 q 561 994 476 1047 q 697 829 645 941 q 749 538 749 716 q 716 287 749 392 q 628 113 684 181 q 502 13 572 45 q 354 -20 431 -20 z "},"\"":{"ha":799,"x_min":121,"x_max":676,"o":"m 168 591 l 127 890 l 121 1083 l 329 1083 l 322 890 l 282 591 l 168 591 m 515 591 l 475 890 l 468 1083 l 676 1083 l 669 890 l 629 591 l 515 591 z "},"#":{"ha":818,"x_min":54,"x_max":772,"o":"m 138 0 l 174 301 l 54 301 l 54 433 l 189 433 l 212 624 l 86 624 l 86 757 l 229 757 l 264 1025 l 382 1025 l 350 757 l 525 757 l 559 1025 l 679 1025 l 647 757 l 772 757 l 772 624 l 631 624 l 607 433 l 741 433 l 741 301 l 591 301 l 555 0 l 433 0 l 469 301 l 296 301 l 258 0 l 138 0 m 310 433 l 485 433 l 509 624 l 334 624 l 310 433 z "},"%":{"ha":1337,"x_min":45,"x_max":1293,"o":"m 294 396 q 114 482 184 396 q 45 724 45 568 q 114 962 45 878 q 294 1047 184 1047 q 475 962 405 1047 q 546 724 546 878 q 475 482 546 568 q 294 396 405 396 m 294 511 q 370 561 339 511 q 401 724 401 610 q 370 884 401 837 q 294 932 339 932 q 219 884 250 932 q 189 724 189 837 q 219 561 189 610 q 294 511 250 511 m 329 -20 l 888 1047 l 1008 1047 l 450 -20 l 329 -20 m 1042 -20 q 862 67 932 -20 q 791 309 791 154 q 862 549 791 464 q 1042 633 932 633 q 1222 549 1151 633 q 1293 309 1293 464 q 1261 132 1293 205 q 1172 20 1228 59 q 1042 -20 1115 -20 m 1042 97 q 1118 146 1086 97 q 1149 309 1149 195 q 1118 470 1149 422 q 1042 518 1086 518 q 966 470 997 518 q 936 309 936 422 q 966 146 936 195 q 1042 97 997 97 z "},"&":{"ha":1026,"x_min":41,"x_max":1000,"o":"m 339 786 q 349 720 339 754 q 376 648 359 685 q 478 725 437 685 q 519 822 519 766 q 501 886 519 861 q 443 911 483 911 q 368 877 397 911 q 339 786 339 844 m 378 -20 q 195 20 270 -20 q 81 126 120 60 q 41 272 41 193 q 68 397 41 344 q 139 491 96 450 q 235 564 183 531 q 186 679 203 623 q 170 786 170 735 q 203 917 170 858 q 296 1012 236 977 q 439 1047 357 1047 q 613 986 549 1047 q 677 823 677 924 q 645 703 677 755 q 563 608 613 650 q 457 526 512 565 q 560 414 503 469 q 679 313 618 359 q 752 432 720 367 q 806 574 785 498 l 990 574 q 920 390 962 478 q 817 221 877 301 q 913 174 867 193 q 1000 147 960 155 l 950 -20 q 823 21 888 -6 q 693 89 758 48 q 551 9 629 39 q 378 -20 473 -20 m 236 285 q 282 178 236 219 q 403 138 329 138 q 479 151 441 138 q 553 189 516 165 q 321 429 420 298 q 260 361 283 397 q 236 285 236 326 z "},"'":{"ha":452,"x_min":121,"x_max":329,"o":"m 168 591 l 127 890 l 121 1083 l 329 1083 l 322 890 l 282 591 l 168 591 z "},"(":{"ha":525,"x_min":118,"x_max":453,"o":"m 325 -281 q 173 55 227 -119 q 118 439 118 229 q 173 821 118 646 q 325 1157 227 996 l 453 1103 q 325 780 366 951 q 283 439 283 609 q 325 96 283 267 q 453 -227 366 -75 l 325 -281 z "},")":{"ha":525,"x_min":72,"x_max":407,"o":"m 199 -281 l 72 -227 q 201 96 160 -75 q 241 439 241 267 q 201 780 241 609 q 72 1103 160 951 l 199 1157 q 352 821 298 996 q 407 439 407 646 q 352 55 407 229 q 199 -281 298 -119 z "},"*":{"ha":703,"x_min":68,"x_max":635,"o":"m 229 581 l 142 644 l 233 803 l 68 876 l 102 979 l 279 940 l 297 1122 l 407 1122 l 424 939 l 602 979 l 635 876 l 468 803 l 562 644 l 473 581 l 351 720 l 229 581 z "},"+":{"ha":818,"x_min":53,"x_max":765,"o":"m 334 153 l 334 447 l 53 447 l 53 593 l 334 593 l 334 889 l 485 889 l 485 593 l 765 593 l 765 447 l 485 447 l 485 153 l 334 153 z "},",":{"ha":452,"x_min":74,"x_max":379,"o":"m 117 -296 l 74 -184 q 198 -104 155 -155 q 240 5 241 -53 q 234 5 237 5 q 228 5 231 5 q 139 37 178 5 q 100 126 100 68 q 139 215 100 182 q 232 248 178 248 q 341 194 302 248 q 379 46 379 140 q 311 -165 379 -76 q 117 -296 243 -254 z "},"-":{"ha":514,"x_min":68,"x_max":447,"o":"m 68 325 l 68 471 l 447 471 l 447 325 l 68 325 z "},".":{"ha":452,"x_min":98,"x_max":353,"o":"m 225 -20 q 135 19 171 -20 q 98 114 98 58 q 135 209 98 171 q 225 248 171 248 q 316 209 280 248 q 353 114 353 171 q 316 19 353 58 q 225 -20 280 -20 z "},"/":{"ha":539,"x_min":20,"x_max":500,"o":"m 20 -253 l 366 1120 l 500 1120 l 155 -253 l 20 -253 z "},":":{"ha":452,"x_min":98,"x_max":353,"o":"m 225 509 q 135 546 171 509 q 98 640 98 584 q 135 736 98 698 q 225 774 171 774 q 316 736 280 774 q 353 640 353 698 q 316 546 353 584 q 225 509 280 509 m 225 -20 q 135 19 171 -20 q 98 114 98 58 q 135 209 98 171 q 225 248 171 248 q 316 209 280 248 q 353 114 353 171 q 316 19 353 58 q 225 -20 280 -20 z "},";":{"ha":452,"x_min":74,"x_max":379,"o":"m 225 509 q 135 546 171 509 q 98 640 98 584 q 135 736 98 698 q 225 774 171 774 q 316 736 280 774 q 353 640 353 698 q 316 546 353 584 q 225 509 280 509 m 117 -296 l 74 -184 q 198 -104 155 -155 q 240 5 241 -53 q 234 5 237 5 q 228 5 231 5 q 139 37 178 5 q 100 126 100 68 q 139 215 100 182 q 232 248 178 248 q 341 194 302 248 q 379 46 379 140 q 311 -165 379 -76 q 117 -296 243 -254 z "},"<":{"ha":818,"x_min":53,"x_max":765,"o":"m 765 175 l 53 450 l 53 596 l 765 871 l 765 701 l 473 602 l 261 526 l 261 521 l 473 444 l 765 345 l 765 175 z "},"=":{"ha":818,"x_min":53,"x_max":765,"o":"m 53 628 l 53 772 l 765 772 l 765 628 l 53 628 m 53 268 l 53 414 l 765 414 l 765 268 l 53 268 z "},">":{"ha":818,"x_min":53,"x_max":765,"o":"m 53 175 l 53 345 l 346 444 l 558 521 l 558 526 l 346 602 l 53 701 l 53 871 l 765 596 l 765 450 l 53 175 z "},"?":{"ha":714,"x_min":64,"x_max":644,"o":"m 245 350 q 253 470 236 417 q 302 566 271 523 q 368 646 334 609 q 425 720 401 684 q 449 796 449 756 q 417 879 449 848 q 330 909 385 909 q 247 888 285 909 q 176 832 210 866 l 64 935 q 192 1035 118 996 q 355 1074 265 1074 q 504 1045 439 1074 q 607 957 570 1016 q 644 810 644 899 q 620 705 644 751 q 561 619 596 659 q 492 540 526 579 q 438 455 458 500 q 424 350 417 409 l 245 350 m 335 -20 q 244 19 281 -20 q 208 114 208 58 q 244 209 208 171 q 335 248 281 248 q 426 209 390 248 q 463 114 463 171 q 426 19 463 58 q 335 -20 390 -20 z "},"@":{"ha":1398,"x_min":78,"x_max":1321,"o":"m 664 -264 q 440 -228 546 -264 q 253 -118 335 -191 q 125 65 172 -45 q 78 322 78 175 q 133 618 78 486 q 284 847 188 751 q 507 993 381 942 q 774 1044 633 1044 q 1064 974 941 1044 q 1254 780 1187 904 q 1321 494 1321 656 q 1290 308 1321 388 q 1207 173 1259 227 q 1095 92 1156 119 q 974 65 1034 65 q 858 96 907 65 q 798 184 808 126 l 794 184 q 707 109 760 139 q 604 79 653 79 q 458 142 515 79 q 401 313 401 204 q 425 449 401 382 q 491 572 448 517 q 590 660 533 627 q 715 693 648 693 q 786 674 755 693 q 836 615 817 656 l 839 615 l 861 681 l 987 681 l 920 342 q 994 193 883 193 q 1087 229 1042 193 q 1161 331 1133 265 q 1190 488 1190 397 q 1145 703 1190 605 q 1004 860 1100 801 q 757 918 908 918 q 559 877 655 918 q 385 757 463 835 q 262 571 308 680 q 216 328 216 462 q 280 70 216 173 q 449 -86 343 -34 q 681 -138 554 -138 q 809 -120 744 -138 q 924 -74 873 -102 l 970 -187 q 823 -245 899 -227 q 664 -264 747 -264 m 647 210 q 702 227 674 210 q 762 286 729 244 l 803 509 q 721 559 773 559 q 633 522 670 559 q 576 429 596 484 q 555 323 555 374 q 581 237 555 265 q 647 210 606 210 z "},"A":{"ha":890,"x_min":-5,"x_max":896,"o":"m 350 536 l 319 424 l 564 424 l 533 536 q 488 703 509 616 q 444 872 467 789 l 437 872 q 395 702 418 788 q 350 536 373 616 m -5 0 l 323 1029 l 566 1029 l 896 0 l 681 0 l 608 264 l 275 264 l 203 0 l -5 0 z "},"B":{"ha":946,"x_min":126,"x_max":892,"o":"m 126 0 l 126 1029 l 467 1029 q 656 1006 572 1029 q 790 926 741 982 q 839 775 839 871 q 802 640 839 704 q 699 553 764 576 l 699 546 q 837 467 782 526 q 892 302 892 407 q 839 132 892 199 q 696 33 787 65 q 493 0 606 0 l 126 0 m 332 610 l 452 610 q 594 646 549 610 q 639 745 639 683 q 593 842 639 812 q 454 871 547 871 l 332 871 l 332 610 m 332 158 l 475 158 q 636 197 581 158 q 692 315 692 235 q 636 424 692 390 q 475 458 581 458 l 332 458 l 332 158 z "},"C":{"ha":913,"x_min":75,"x_max":873,"o":"m 546 -20 q 309 41 416 -20 q 139 220 202 102 q 75 510 75 338 q 113 736 75 637 q 217 906 151 836 q 369 1011 283 975 q 553 1047 455 1047 q 727 1007 650 1047 q 854 916 804 967 l 747 785 q 661 846 707 822 q 557 871 615 871 q 418 828 479 871 q 320 707 356 786 q 285 517 285 627 q 358 254 285 349 q 553 158 431 158 q 671 186 619 158 q 765 260 724 215 l 873 132 q 728 19 810 58 q 546 -20 646 -20 z "},"D":{"ha":991,"x_min":126,"x_max":917,"o":"m 126 0 l 126 1029 l 408 1029 q 680 974 566 1029 q 855 805 793 918 q 917 518 917 692 q 856 230 917 345 q 683 57 794 115 q 419 0 571 0 l 126 0 m 332 165 l 396 165 q 623 248 540 165 q 707 518 707 330 q 669 720 707 644 q 562 830 631 795 q 396 864 492 864 l 332 864 l 332 165 z "},"E":{"ha":854,"x_min":126,"x_max":772,"o":"m 126 0 l 126 1029 l 757 1029 l 757 857 l 332 857 l 332 619 l 693 619 l 693 447 l 332 447 l 332 172 l 772 172 l 772 0 l 126 0 z "},"F":{"ha":812,"x_min":126,"x_max":760,"o":"m 126 0 l 126 1029 l 760 1029 l 760 857 l 332 857 l 332 589 l 697 589 l 697 416 l 332 416 l 332 0 l 126 0 z "},"G":{"ha":996,"x_min":75,"x_max":901,"o":"m 568 -20 q 317 41 429 -20 q 140 220 205 102 q 75 510 75 338 q 141 799 75 679 q 319 983 208 920 q 568 1047 431 1047 q 758 1007 680 1047 q 886 916 836 966 l 778 785 q 692 846 739 821 q 575 871 645 871 q 424 828 490 871 q 322 707 359 786 q 285 517 285 627 q 361 254 285 349 q 590 158 438 158 q 662 168 627 158 q 718 197 696 178 l 718 400 l 536 400 l 536 568 l 901 568 l 901 104 q 762 17 849 53 q 568 -20 675 -20 z "},"H":{"ha":1051,"x_min":126,"x_max":925,"o":"m 126 0 l 126 1029 l 332 1029 l 332 624 l 721 624 l 721 1029 l 925 1029 l 925 0 l 721 0 l 721 444 l 332 444 l 332 0 l 126 0 z "},"I":{"ha":458,"x_min":126,"x_max":332,"o":"m 126 0 l 126 1029 l 332 1029 l 332 0 l 126 0 z "},"J":{"ha":789,"x_min":32,"x_max":668,"o":"m 350 -20 q 160 26 237 -20 q 32 161 83 71 l 172 265 q 242 183 202 209 q 325 158 281 158 q 428 200 393 158 q 463 349 463 242 l 463 1029 l 668 1029 l 668 332 q 634 156 668 235 q 531 28 601 76 q 350 -20 460 -20 z "},"K":{"ha":953,"x_min":126,"x_max":958,"o":"m 126 0 l 126 1029 l 332 1029 l 332 582 l 336 582 l 676 1029 l 903 1029 l 589 624 l 958 0 l 733 0 l 467 463 l 332 289 l 332 0 l 126 0 z "},"L":{"ha":803,"x_min":126,"x_max":750,"o":"m 126 0 l 126 1029 l 332 1029 l 332 172 l 750 172 l 750 0 l 126 0 z "},"M":{"ha":1186,"x_min":126,"x_max":1060,"o":"m 126 0 l 126 1029 l 354 1029 l 529 547 q 561 449 546 499 q 591 350 576 399 l 599 350 q 630 449 615 399 q 661 547 644 499 l 832 1029 l 1060 1029 l 1060 0 l 872 0 l 872 429 q 877 538 872 478 q 887 658 881 598 q 899 766 893 718 l 892 766 l 808 525 l 650 93 l 532 93 l 372 525 l 290 766 l 285 766 q 296 658 290 718 q 307 538 302 598 q 311 429 311 478 l 311 0 l 126 0 z "},"N":{"ha":1040,"x_min":126,"x_max":913,"o":"m 126 0 l 126 1029 l 336 1029 l 635 481 l 737 258 l 745 258 q 728 434 737 338 q 718 618 718 530 l 718 1029 l 913 1029 l 913 0 l 704 0 l 407 550 l 302 771 l 296 771 q 312 594 303 688 q 321 412 321 501 l 321 0 l 126 0 z "},"O":{"ha":1069,"x_min":75,"x_max":994,"o":"m 534 -20 q 295 45 399 -20 q 133 231 191 111 q 75 518 75 351 q 133 804 75 686 q 295 985 191 922 q 534 1047 399 1047 q 774 984 671 1047 q 936 803 878 922 q 994 518 994 685 q 936 231 994 351 q 774 45 878 111 q 534 -20 671 -20 m 534 158 q 717 256 649 158 q 785 518 785 353 q 717 777 785 684 q 534 871 649 871 q 353 777 420 871 q 285 518 285 684 q 353 256 285 353 q 534 158 420 158 z "},"P":{"ha":926,"x_min":126,"x_max":867,"o":"m 126 0 l 126 1029 l 464 1029 q 669 999 578 1029 q 813 898 760 968 q 867 705 867 827 q 813 513 867 588 q 670 401 760 437 q 469 366 580 366 l 332 366 l 332 0 l 126 0 m 332 528 l 456 528 q 665 705 665 528 q 610 830 665 795 q 449 865 555 865 l 332 865 l 332 528 z "},"Q":{"ha":1069,"x_min":75,"x_max":1040,"o":"m 534 149 q 717 247 649 149 q 785 518 785 345 q 717 777 785 684 q 534 871 649 871 q 353 777 420 871 q 285 518 285 684 q 353 247 285 345 q 534 149 420 149 m 867 -279 q 602 -203 709 -279 q 440 -11 494 -127 q 248 79 330 9 q 121 260 166 149 q 75 518 75 372 q 133 804 75 686 q 295 985 191 922 q 534 1047 399 1047 q 774 984 671 1047 q 936 803 878 922 q 994 518 994 685 q 952 270 994 378 q 835 92 911 162 q 657 -4 759 22 q 756 -88 692 -62 q 890 -114 821 -114 q 952 -109 924 -114 q 1003 -97 981 -104 l 1040 -249 q 968 -270 1013 -261 q 867 -279 923 -279 z "},"R":{"ha":947,"x_min":126,"x_max":916,"o":"m 126 0 l 126 1029 l 485 1029 q 680 1000 592 1029 q 819 903 768 971 q 871 717 871 835 q 817 528 871 601 q 675 421 764 455 l 916 0 l 686 0 l 475 389 l 332 389 l 332 0 l 126 0 m 332 551 l 465 551 q 617 593 564 551 q 671 717 671 634 q 617 833 671 800 q 465 865 564 865 l 332 865 l 332 551 z "},"S":{"ha":867,"x_min":58,"x_max":811,"o":"m 433 -20 q 232 20 330 -20 q 58 131 134 59 l 176 272 q 301 190 232 221 q 437 158 370 158 q 559 190 517 158 q 602 277 602 222 q 582 338 602 315 q 528 379 562 361 q 447 415 493 396 l 310 473 q 210 531 258 495 q 132 621 162 567 q 102 750 102 675 q 147 901 102 834 q 273 1008 193 968 q 457 1047 353 1047 q 632 1013 547 1047 q 779 916 717 979 l 675 786 q 573 849 626 827 q 457 871 520 871 q 350 842 389 871 q 310 762 310 814 q 332 702 310 726 q 390 662 353 679 q 469 628 426 645 l 604 571 q 754 468 698 532 q 811 292 811 403 q 766 137 811 208 q 636 23 721 66 q 433 -20 552 -20 z "},"T":{"ha":868,"x_min":41,"x_max":828,"o":"m 330 0 l 330 857 l 41 857 l 41 1029 l 828 1029 l 828 857 l 536 857 l 536 0 l 330 0 z "},"U":{"ha":1039,"x_min":121,"x_max":918,"o":"m 521 -20 q 306 30 396 -20 q 169 185 216 79 q 121 463 121 292 l 121 1029 l 326 1029 l 326 444 q 350 275 326 338 q 417 185 374 212 q 521 158 461 158 q 627 185 582 158 q 696 275 672 212 q 721 444 721 338 l 721 1029 l 918 1029 l 918 463 q 814 93 918 206 q 521 -20 709 -20 z "},"V":{"ha":859,"x_min":-7,"x_max":867,"o":"m 307 0 l -7 1029 l 208 1029 l 345 528 q 388 362 368 442 q 431 196 407 282 l 437 196 q 482 362 463 282 q 525 528 501 442 l 659 1029 l 867 1029 l 553 0 l 307 0 z "},"W":{"ha":1271,"x_min":26,"x_max":1243,"o":"m 224 0 l 26 1029 l 235 1029 l 317 526 q 340 363 328 445 q 364 199 353 282 l 370 199 q 401 364 385 282 q 435 526 418 446 l 554 1029 l 730 1029 l 848 526 q 881 365 865 447 q 914 199 897 282 l 921 199 q 944 364 932 282 q 966 526 956 446 l 1048 1029 l 1243 1029 l 1053 0 l 798 0 l 682 509 q 658 628 669 569 q 637 747 647 688 l 632 747 q 611 628 621 688 q 587 509 600 569 l 475 0 l 224 0 z "},"X":{"ha":871,"x_min":20,"x_max":851,"o":"m 20 0 l 309 530 l 37 1029 l 265 1029 l 368 817 q 404 741 387 780 q 444 654 422 702 l 452 654 q 486 741 470 702 q 519 817 503 780 l 616 1029 l 833 1029 l 562 521 l 851 0 l 624 0 l 509 228 q 470 309 488 267 q 428 397 451 351 l 422 397 q 385 309 404 351 q 347 228 366 267 l 237 0 l 20 0 z "},"Y":{"ha":807,"x_min":-8,"x_max":815,"o":"m 300 0 l 300 376 l -8 1029 l 210 1029 l 313 778 q 356 665 334 720 q 401 550 378 610 l 407 550 q 454 665 431 610 q 498 778 477 720 l 602 1029 l 815 1029 l 505 376 l 505 0 l 300 0 z "},"Z":{"ha":851,"x_min":60,"x_max":796,"o":"m 60 0 l 60 123 l 539 857 l 106 857 l 106 1029 l 791 1029 l 791 905 l 313 172 l 796 172 l 796 0 l 60 0 z "},"[":{"ha":525,"x_min":140,"x_max":458,"o":"m 140 -240 l 140 1116 l 458 1116 l 458 1007 l 293 1007 l 293 -129 l 458 -129 l 458 -240 l 140 -240 z "},"\\":{"ha":539,"x_min":39,"x_max":519,"o":"m 385 -253 l 39 1120 l 174 1120 l 519 -253 l 385 -253 z "},"]":{"ha":525,"x_min":66,"x_max":385,"o":"m 66 -240 l 66 -129 l 232 -129 l 232 1007 l 66 1007 l 66 1116 l 385 1116 l 385 -240 l 66 -240 z "},"a":{"ha":821,"x_min":71,"x_max":722,"o":"m 301 -20 q 180 11 232 -20 q 99 93 128 41 q 71 211 71 145 q 177 405 71 336 q 519 498 284 473 q 487 595 516 556 q 386 633 458 633 q 279 612 332 633 q 172 559 227 591 l 98 694 q 250 767 168 737 q 424 798 332 798 q 647 710 572 798 q 722 454 722 623 l 722 0 l 555 0 l 542 83 l 536 83 q 427 10 485 39 q 301 -20 368 -20 m 368 140 q 447 160 412 140 q 519 216 482 180 l 519 374 q 321 318 377 356 q 265 228 265 280 q 294 161 265 182 q 368 140 323 140 z "},"b":{"ha":895,"x_min":110,"x_max":831,"o":"m 500 -20 q 293 82 390 -20 l 288 82 l 269 0 l 110 0 l 110 1108 l 314 1108 l 314 829 l 309 704 q 410 772 354 746 q 524 798 467 798 q 688 748 619 798 q 794 610 757 699 q 831 403 831 522 q 784 174 831 269 q 661 30 736 80 q 500 -20 585 -20 m 454 149 q 573 210 525 149 q 621 399 621 271 q 584 570 621 510 q 467 629 547 629 q 314 549 393 629 l 314 207 q 387 162 351 175 q 454 149 423 149 z "},"c":{"ha":732,"x_min":61,"x_max":696,"o":"m 440 -20 q 247 29 332 -20 q 111 169 161 77 q 61 389 61 260 q 116 609 61 518 q 262 749 172 701 q 458 798 353 798 q 586 772 530 798 q 685 711 642 747 l 587 579 q 530 617 558 604 q 469 631 502 631 q 325 565 380 631 q 269 389 269 498 q 324 213 269 279 q 463 147 379 147 q 543 165 504 147 q 614 210 582 182 l 696 75 q 572 3 640 26 q 440 -20 505 -20 z "},"d":{"ha":895,"x_min":65,"x_max":785,"o":"m 383 -20 q 215 29 287 -20 q 104 170 144 78 q 65 389 65 261 q 112 607 65 515 q 233 748 159 699 q 392 798 308 798 q 502 774 457 798 q 589 713 547 751 l 582 835 l 582 1108 l 785 1108 l 785 0 l 619 0 l 604 81 l 599 81 q 500 9 556 39 q 383 -20 444 -20 m 436 149 q 512 167 477 149 q 582 229 547 185 l 582 571 q 510 616 547 603 q 436 629 473 629 q 323 568 370 629 q 275 390 275 507 q 317 209 275 269 q 436 149 359 149 z "},"e":{"ha":807,"x_min":61,"x_max":749,"o":"m 449 -20 q 252 29 340 -20 q 113 169 164 78 q 61 389 61 260 q 91 558 61 483 q 173 687 121 634 q 289 769 224 741 q 424 798 354 798 q 603 749 530 798 q 712 617 675 701 q 749 427 749 533 q 739 332 749 363 l 260 332 q 330 187 272 236 q 475 138 389 138 q 566 152 523 138 q 650 192 608 165 l 720 66 q 591 4 662 27 q 449 -20 520 -20 m 257 468 l 574 468 q 537 592 574 546 q 427 639 501 639 q 317 596 365 639 q 257 468 269 553 z "},"f":{"ha":517,"x_min":40,"x_max":562,"o":"m 144 0 l 144 616 l 40 616 l 40 768 l 144 777 l 144 840 q 171 987 144 922 q 258 1090 198 1052 q 415 1128 317 1128 q 498 1119 460 1128 q 562 1101 536 1111 l 525 950 q 484 962 505 958 q 443 966 462 966 q 373 938 397 966 q 349 844 349 909 l 349 778 l 494 778 l 494 616 l 349 616 l 349 0 l 144 0 z "},"g":{"ha":829,"x_min":58,"x_max":807,"o":"m 383 -338 q 218 -316 292 -338 q 101 -251 144 -295 q 58 -138 58 -206 q 87 -48 58 -89 q 170 24 117 -7 l 170 31 q 119 82 139 50 q 98 161 98 113 q 124 243 98 205 q 186 307 151 282 l 186 313 q 114 395 146 342 q 82 517 82 448 q 126 670 82 608 q 242 765 170 732 q 396 798 313 798 q 458 792 428 798 q 513 778 488 786 l 793 778 l 793 628 l 661 628 q 686 577 675 608 q 696 510 696 546 q 655 364 696 422 q 547 275 615 305 q 396 245 479 245 q 296 264 350 245 q 271 236 280 250 q 262 197 262 221 q 289 150 262 166 q 385 134 316 134 l 517 134 q 732 87 657 134 q 807 -61 807 41 q 755 -202 807 -140 q 608 -301 703 -264 q 383 -338 513 -338 m 396 372 q 483 410 447 372 q 518 517 518 447 q 483 622 518 585 q 396 659 448 659 q 309 622 344 659 q 273 517 273 585 q 309 410 273 447 q 396 372 345 372 m 414 -208 q 556 -175 501 -208 q 611 -96 611 -142 q 578 -40 611 -54 q 482 -26 545 -26 l 387 -26 q 326 -23 352 -26 q 279 -16 300 -20 q 229 -106 229 -56 q 279 -181 229 -155 q 414 -208 330 -208 z "},"h":{"ha":889,"x_min":110,"x_max":789,"o":"m 110 0 l 110 1108 l 314 1108 l 314 829 l 304 684 q 410 762 351 727 q 549 798 469 798 q 732 714 675 798 q 789 485 789 631 l 789 0 l 585 0 l 585 460 q 558 587 585 551 q 475 623 532 623 q 392 600 427 623 q 314 534 357 577 l 314 0 l 110 0 z "},"i":{"ha":422,"x_min":93,"x_max":330,"o":"m 110 0 l 110 778 l 314 778 l 314 0 l 110 0 m 212 903 q 126 933 159 903 q 93 1015 93 964 q 126 1096 93 1065 q 212 1126 159 1126 q 297 1096 264 1126 q 330 1015 330 1065 q 297 933 330 964 q 212 903 264 903 z "},"j":{"ha":425,"x_min":-75,"x_max":332,"o":"m 56 -318 q -21 -312 11 -318 q -75 -297 -52 -306 l -39 -146 q -7 -154 -23 -151 q 26 -157 9 -157 q 93 -124 75 -157 q 111 -25 111 -91 l 111 778 l 315 778 l 315 -20 q 291 -171 315 -103 q 210 -278 267 -238 q 56 -318 153 -318 m 212 903 q 127 933 161 903 q 94 1015 94 964 q 127 1096 94 1065 q 212 1126 161 1126 q 299 1096 266 1126 q 332 1015 332 1065 q 299 933 332 964 q 212 903 266 903 z "},"k":{"ha":840,"x_min":110,"x_max":831,"o":"m 110 0 l 110 1108 l 309 1108 l 309 441 l 315 441 l 583 778 l 806 778 l 536 460 l 831 0 l 610 0 l 421 322 l 309 195 l 309 0 l 110 0 z "},"l":{"ha":437,"x_min":110,"x_max":407,"o":"m 301 -20 q 153 45 195 -20 q 110 218 110 110 l 110 1108 l 314 1108 l 314 210 q 327 161 314 174 q 354 147 340 147 q 366 148 360 147 q 382 150 372 148 l 407 -1 q 363 -14 389 -9 q 301 -20 338 -20 z "},"m":{"ha":1339,"x_min":110,"x_max":1238,"o":"m 110 0 l 110 778 l 277 778 l 292 673 l 296 673 q 401 761 345 725 q 534 798 458 798 q 669 762 618 798 q 749 661 720 726 q 861 758 802 718 q 996 798 920 798 q 1179 714 1120 798 q 1238 485 1238 631 l 1238 0 l 1034 0 l 1034 460 q 1007 587 1034 551 q 925 623 980 623 q 775 534 859 623 l 775 0 l 572 0 l 572 460 q 545 587 572 551 q 463 623 517 623 q 314 534 395 623 l 314 0 l 110 0 z "},"n":{"ha":890,"x_min":110,"x_max":789,"o":"m 110 0 l 110 778 l 277 778 l 292 675 l 296 675 q 408 761 347 725 q 549 798 469 798 q 732 714 675 798 q 789 485 789 631 l 789 0 l 585 0 l 585 460 q 558 587 585 551 q 475 623 532 623 q 392 600 427 623 q 314 534 357 577 l 314 0 l 110 0 z "},"o":{"ha":869,"x_min":61,"x_max":808,"o":"m 435 -20 q 252 29 338 -20 q 114 169 167 77 q 61 389 61 260 q 114 609 61 518 q 252 749 167 701 q 435 798 338 798 q 617 749 532 798 q 755 609 703 701 q 808 389 808 518 q 755 169 808 260 q 617 29 703 77 q 435 -20 532 -20 m 435 147 q 557 213 514 147 q 600 389 600 279 q 557 565 600 498 q 435 631 514 631 q 312 565 355 631 q 269 389 269 498 q 312 213 269 279 q 435 147 355 147 z "},"p":{"ha":895,"x_min":110,"x_max":831,"o":"m 110 -298 l 110 778 l 277 778 l 292 697 l 296 697 q 404 768 345 739 q 525 798 463 798 q 689 748 621 798 q 794 610 758 699 q 831 401 831 521 q 784 174 831 268 q 661 30 736 80 q 500 -20 585 -20 q 400 2 449 -20 q 307 65 352 24 l 314 -62 l 314 -298 l 110 -298 m 454 149 q 573 210 525 149 q 621 399 621 271 q 584 570 621 510 q 467 629 547 629 q 314 549 393 629 l 314 207 q 387 162 351 175 q 454 149 423 149 z "},"q":{"ha":895,"x_min":65,"x_max":785,"o":"m 582 -298 l 582 -52 l 589 74 q 495 7 549 33 q 383 -20 441 -20 q 215 29 287 -20 q 104 170 144 78 q 65 389 65 261 q 112 607 65 515 q 233 748 159 699 q 392 798 308 798 q 506 774 456 798 q 603 701 556 750 l 608 701 l 625 778 l 785 778 l 785 -298 l 582 -298 m 436 149 q 512 167 477 149 q 582 229 547 185 l 582 571 q 510 616 547 603 q 436 629 473 629 q 323 568 370 629 q 275 390 275 507 q 317 209 275 269 q 436 149 359 149 z "},"r":{"ha":606,"x_min":110,"x_max":608,"o":"m 110 0 l 110 778 l 277 778 l 292 640 l 296 640 q 397 757 338 716 q 517 798 456 798 q 570 793 549 798 q 608 781 591 788 l 574 604 q 534 613 553 610 q 492 616 515 616 q 396 582 446 616 q 314 464 346 548 l 314 0 l 110 0 z "},"s":{"ha":688,"x_min":36,"x_max":642,"o":"m 332 -20 q 174 11 254 -20 q 36 90 94 42 l 129 218 q 232 156 181 178 q 338 134 283 134 q 423 156 396 134 q 450 215 450 179 q 427 264 450 244 q 366 300 403 285 q 288 332 328 316 q 190 379 238 351 q 111 451 142 407 q 79 559 79 494 q 115 683 79 629 q 216 767 151 736 q 370 798 281 798 q 519 768 454 798 q 633 701 585 738 l 542 578 q 459 626 500 608 q 375 644 418 644 q 296 624 322 644 q 271 570 271 603 q 292 523 271 541 q 349 490 314 505 q 425 461 384 476 q 526 415 476 441 q 609 343 576 388 q 642 227 642 298 q 606 102 642 158 q 502 14 571 47 q 332 -20 433 -20 z "},"t":{"ha":583,"x_min":29,"x_max":558,"o":"m 395 -20 q 246 17 302 -20 q 164 120 190 54 q 139 272 139 185 l 139 616 l 29 616 l 29 768 l 150 778 l 174 987 l 343 987 l 343 778 l 534 778 l 534 616 l 343 616 l 343 272 q 449 142 343 142 q 488 147 467 142 q 525 158 509 152 l 558 9 q 486 -10 527 -1 q 395 -20 446 -20 z "},"u":{"ha":885,"x_min":102,"x_max":777,"o":"m 342 -20 q 159 63 216 -20 q 102 292 102 146 l 102 778 l 306 778 l 306 318 q 332 192 306 229 q 414 155 357 155 q 497 178 462 155 q 572 253 532 201 l 572 778 l 777 778 l 777 0 l 610 0 l 595 111 l 589 111 q 480 16 539 52 q 342 -20 421 -20 z "},"v":{"ha":800,"x_min":20,"x_max":781,"o":"m 285 0 l 20 778 l 225 778 l 339 390 q 370 273 355 333 q 401 154 386 214 l 408 154 q 439 273 424 214 q 471 390 455 333 l 585 778 l 781 778 l 521 0 l 285 0 z "},"w":{"ha":1198,"x_min":37,"x_max":1160,"o":"m 239 0 l 37 778 l 241 778 l 326 395 q 346 281 338 337 q 366 167 355 225 l 371 167 q 394 282 382 225 q 419 395 405 338 l 514 778 l 694 778 l 791 395 q 817 281 805 337 q 840 167 828 225 l 847 167 q 867 281 858 225 q 886 395 876 337 l 971 778 l 1160 778 l 968 0 l 728 0 l 646 339 q 623 449 633 394 q 602 566 613 504 l 595 566 q 573 449 583 504 q 551 339 564 393 l 472 0 l 239 0 z "},"x":{"ha":781,"x_min":22,"x_max":758,"o":"m 22 0 l 265 406 l 37 778 l 257 778 l 335 640 q 369 574 351 607 q 404 509 387 541 l 410 509 q 438 574 423 541 q 467 640 453 607 l 532 778 l 743 778 l 515 382 l 758 0 l 539 0 l 453 143 q 415 211 434 176 q 378 279 397 245 l 371 279 q 338 212 354 245 q 306 143 322 178 l 233 0 l 22 0 z "},"y":{"ha":798,"x_min":20,"x_max":779,"o":"m 178 -313 q 118 -309 143 -313 q 71 -297 94 -304 l 109 -140 q 134 -146 119 -143 q 163 -150 149 -150 q 257 -116 222 -150 q 309 -32 292 -83 l 322 14 l 20 778 l 225 778 l 349 416 q 382 309 366 365 q 414 197 397 254 l 421 197 q 449 307 435 252 q 476 416 463 363 l 583 778 l 779 778 l 503 -24 q 427 -180 469 -115 q 325 -278 385 -244 q 178 -313 264 -313 z "},"z":{"ha":710,"x_min":57,"x_max":672,"o":"m 57 0 l 57 110 l 406 616 l 96 616 l 96 778 l 660 778 l 660 668 l 311 161 l 672 161 l 672 0 l 57 0 z "},"{":{"ha":525,"x_min":52,"x_max":458,"o":"m 368 -240 q 218 -193 266 -240 q 171 -20 171 -146 q 174 80 171 37 q 181 166 178 124 q 184 258 184 208 q 156 339 184 302 q 52 378 128 376 l 52 498 q 156 537 128 500 q 184 616 184 574 q 181 709 184 667 q 174 795 178 751 q 171 895 171 839 q 218 1068 171 1021 q 368 1116 266 1116 l 458 1116 l 458 1007 l 427 1007 q 354 981 372 1007 q 336 886 336 955 q 340 759 336 821 q 343 623 343 696 q 316 495 343 536 q 232 441 289 455 l 232 435 q 316 380 289 421 q 343 254 343 340 q 340 118 343 180 q 336 -9 336 56 q 354 -104 336 -79 q 427 -129 372 -129 l 458 -129 l 458 -240 l 368 -240 z "},"|":{"ha":411,"x_min":139,"x_max":272,"o":"m 139 -393 l 139 1182 l 272 1182 l 272 -393 l 139 -393 z "},"}":{"ha":525,"x_min":66,"x_max":475,"o":"m 66 -240 l 66 -129 l 98 -129 q 171 -104 152 -129 q 189 -9 189 -79 q 185 118 189 56 q 182 254 182 180 q 209 380 182 340 q 293 435 236 421 l 293 441 q 209 495 236 455 q 182 623 182 536 q 185 759 182 696 q 189 886 189 821 q 171 981 189 955 q 98 1007 152 1007 l 66 1007 l 66 1116 l 157 1116 q 307 1068 259 1116 q 354 895 354 1021 q 350 795 354 839 q 343 709 347 751 q 339 616 339 667 q 368 537 339 574 q 475 498 397 500 l 475 378 q 368 339 397 376 q 339 258 339 302 q 343 166 339 208 q 350 80 347 124 q 354 -20 354 37 q 307 -193 354 -146 q 157 -240 259 -240 l 66 -240 z "},"~":{"ha":818,"x_min":49,"x_max":770,"o":"m 545 386 q 460 405 496 386 q 393 447 423 423 q 333 490 362 471 q 271 509 304 509 q 155 416 205 509 l 49 497 q 160 618 103 583 q 275 654 218 654 q 359 636 323 654 q 427 593 396 617 q 486 550 457 569 q 547 532 515 532 q 663 624 612 532 l 770 542 q 659 421 716 457 q 545 386 601 386 z "},"…":{"ha":1389,"x_min":119,"x_max":1270,"o":"m 232 640 q 312 607 279 640 q 345 528 345 574 q 312 448 345 481 q 232 415 279 415 q 152 448 185 415 q 119 528 119 481 q 152 607 119 574 q 232 640 185 640 m 694 640 q 774 607 741 640 q 807 528 807 574 q 774 448 807 481 q 694 415 741 415 q 615 448 648 415 q 582 528 582 481 q 615 607 582 574 q 694 640 648 640 m 1157 640 q 1237 607 1204 640 q 1270 528 1270 574 q 1237 448 1270 481 q 1157 415 1204 415 q 1077 448 1110 415 q 1044 528 1044 481 q 1077 607 1044 574 q 1157 640 1110 640 z "},"一":{"ha":1389,"x_min":57,"x_max":1335,"o":"m 57 631 l 1335 631 l 1335 452 l 57 452 l 57 631 z "},"丁":{"ha":1389,"x_min":78,"x_max":1312,"o":"m 1312 1071 l 1312 899 l 835 899 l 835 114 q 811 -14 835 28 q 732 -79 788 -57 q 589 -107 673 -101 q 392 -113 504 -113 q 373 -49 386 -85 q 343 21 359 -14 q 311 82 326 56 q 425 78 368 79 q 526 76 481 76 q 589 77 571 76 q 626 85 615 77 q 637 117 637 94 l 637 899 l 78 899 l 78 1071 l 1312 1071 z "},"七":{"ha":1389,"x_min":61,"x_max":1341,"o":"m 737 87 l 1015 87 q 1085 110 1062 87 q 1120 195 1109 133 q 1139 375 1131 257 q 1223 327 1173 350 q 1308 296 1273 304 q 1271 76 1297 158 q 1187 -42 1244 -5 q 1028 -78 1131 -78 l 724 -78 q 559 -54 618 -78 q 476 30 500 -30 q 452 196 452 90 l 452 534 l 89 481 l 61 647 l 452 707 l 452 1147 l 633 1147 l 633 733 l 1314 839 l 1341 668 l 633 562 l 633 195 q 640 125 633 148 q 669 95 647 102 q 737 87 692 87 z "},"万":{"ha":1389,"x_min":31,"x_max":1305,"o":"m 1305 920 l 583 920 q 578 807 581 864 q 571 694 576 751 l 1194 694 q 1194 681 1194 694 q 1193 649 1194 667 q 1190 621 1192 631 q 1167 274 1180 408 q 1137 68 1155 141 q 1092 -35 1119 -4 q 1025 -85 1061 -71 q 943 -104 990 -99 q 837 -109 903 -109 q 701 -106 770 -109 q 682 -24 699 -70 q 643 57 666 22 q 779 50 715 51 q 875 49 844 49 q 912 52 897 49 q 940 66 927 55 q 985 202 967 93 q 1014 534 1002 312 l 551 534 q 485 286 530 406 q 360 63 440 166 q 150 -118 279 -40 q 97 -47 132 -85 q 31 16 63 -9 q 207 154 138 75 q 315 323 275 232 q 374 514 355 415 q 399 716 393 614 q 408 920 406 819 l 85 920 l 85 1082 l 1305 1082 l 1305 920 z "},"丈":{"ha":1389,"x_min":75,"x_max":1324,"o":"m 1308 765 l 925 765 q 878 456 913 597 q 755 204 842 315 q 1324 39 966 76 q 1268 -36 1297 12 q 1223 -119 1239 -84 q 886 -45 1033 -94 q 628 81 739 5 q 434 -26 547 21 q 171 -109 322 -74 q 131 -31 158 -74 q 75 39 103 12 q 317 107 214 68 q 493 197 420 147 q 344 411 407 290 q 236 684 281 531 l 393 721 q 482 495 427 596 q 615 314 537 393 q 710 514 682 401 q 745 765 737 626 l 82 765 l 82 926 l 750 926 q 750 1036 750 979 q 751 1153 750 1093 l 933 1153 q 932 1038 933 1095 q 930 926 932 981 l 1308 926 l 1308 765 z "},"三":{"ha":1389,"x_min":90,"x_max":1296,"o":"m 168 1043 l 1221 1043 l 1221 876 l 168 876 l 168 1043 m 264 600 l 1111 600 l 1111 432 l 264 432 l 264 600 m 90 132 l 1296 132 l 1296 -37 l 90 -37 l 90 132 z "},"上":{"ha":1389,"x_min":64,"x_max":1326,"o":"m 739 114 l 1326 114 l 1326 -53 l 64 -53 l 64 114 l 561 114 l 561 1160 l 739 1160 l 739 762 l 1229 762 l 1229 595 l 739 595 l 739 114 z "},"下":{"ha":1389,"x_min":77,"x_max":1314,"o":"m 1314 908 l 755 908 l 755 690 l 783 722 q 905 659 840 694 q 1037 586 971 624 q 1160 511 1103 548 q 1257 441 1217 474 l 1135 290 q 1032 369 1095 326 q 898 457 970 412 q 755 543 826 503 l 755 -117 l 578 -117 l 578 908 l 77 908 l 77 1075 l 1314 1075 l 1314 908 z "},"不":{"ha":1389,"x_min":49,"x_max":1350,"o":"m 785 642 l 888 728 q 1008 640 943 688 q 1137 541 1073 591 q 1257 441 1201 490 q 1350 351 1312 393 l 1210 225 q 1095 342 1166 277 q 942 476 1024 408 q 785 602 860 544 l 785 -118 l 604 -118 l 604 559 q 398 371 509 458 q 163 218 288 283 q 109 296 142 252 q 49 368 76 340 q 287 514 175 427 q 491 705 399 602 q 647 914 583 808 l 93 914 l 93 1083 l 1297 1083 l 1297 914 l 865 914 q 827 849 848 882 q 785 786 806 817 l 785 642 z "},"与":{"ha":1389,"x_min":72,"x_max":1267,"o":"m 935 363 l 935 204 l 72 204 l 72 363 l 935 363 m 428 661 l 1267 661 q 1266 648 1267 661 q 1263 617 1265 634 q 1260 589 1262 600 q 1223 268 1242 393 q 1180 71 1204 142 q 1122 -33 1156 -1 q 1050 -83 1088 -70 q 957 -102 1012 -96 q 844 -104 914 -104 q 699 -100 774 -103 q 679 -17 696 -64 q 635 65 661 30 q 793 57 717 58 q 904 56 869 56 q 946 58 928 56 q 979 72 964 61 q 1039 204 1014 98 q 1083 509 1065 311 l 363 509 l 220 510 q 265 704 241 593 q 310 932 289 814 q 347 1154 332 1050 l 517 1137 q 506 1074 511 1106 q 494 1008 500 1042 l 1231 1008 l 1231 850 l 465 850 q 447 753 456 801 q 428 661 437 706 z "},"丐":{"ha":1389,"x_min":90,"x_max":1304,"o":"m 1304 929 l 775 929 l 775 779 l 1226 779 l 1226 625 l 775 625 l 775 468 l 1289 468 q 1288 455 1289 468 q 1285 424 1287 441 q 1280 396 1283 407 q 1250 169 1267 260 q 1211 24 1234 79 q 1158 -57 1189 -30 q 1080 -103 1123 -92 q 977 -118 1038 -115 q 851 -119 928 -120 q 689 -115 774 -119 q 668 -34 687 -79 q 621 46 649 12 q 744 38 682 41 q 857 35 806 36 q 936 35 908 35 q 983 36 964 35 q 1018 49 1002 38 q 1101 309 1070 85 l 160 309 q 184 463 172 375 q 205 643 196 550 q 221 819 215 736 l 396 808 q 379 639 389 728 q 358 468 369 549 l 597 468 l 597 929 l 90 929 l 90 1088 l 1304 1088 l 1304 929 z "},"丑":{"ha":1389,"x_min":62,"x_max":1331,"o":"m 972 457 l 607 457 q 567 79 588 243 l 943 79 q 959 258 951 163 q 972 457 966 354 m 991 954 l 646 954 q 634 791 641 875 q 621 624 628 707 l 981 624 q 987 790 985 706 q 991 954 989 874 m 1122 79 l 1331 79 l 1331 -83 l 62 -83 l 62 79 l 390 79 q 413 258 401 161 q 435 457 425 354 l 191 457 l 191 624 l 450 624 q 463 792 457 708 q 473 954 469 876 l 155 954 l 155 1120 l 1173 1120 q 1164 853 1169 991 q 1153 577 1159 715 q 1138 312 1146 439 q 1122 79 1131 185 z "},"专":{"ha":1389,"x_min":74,"x_max":1307,"o":"m 1307 615 l 578 615 q 561 556 570 585 q 545 498 552 527 l 1088 498 l 1114 507 l 1242 433 q 1084 271 1171 358 q 909 98 997 184 q 1016 55 966 77 q 1103 14 1065 34 l 1007 -131 q 874 -64 953 -99 q 704 5 795 -29 q 519 70 612 40 q 345 122 427 100 l 432 248 q 579 208 500 231 q 737 160 659 186 q 835 253 787 205 q 928 345 883 300 l 313 345 q 356 471 334 401 q 401 615 378 541 l 74 615 l 74 774 l 447 774 q 464 832 456 804 q 479 892 472 861 l 189 892 l 189 1048 l 521 1048 q 535 1113 528 1082 q 550 1175 543 1144 l 725 1175 q 709 1113 718 1144 q 693 1048 701 1081 l 1208 1048 l 1208 892 l 654 892 l 623 774 l 1307 774 l 1307 615 z "},"且":{"ha":1389,"x_min":72,"x_max":1321,"o":"m 444 278 l 444 97 l 962 97 l 962 278 l 444 278 m 962 943 l 444 943 l 444 768 l 962 768 l 962 943 m 962 437 l 962 615 l 444 615 l 444 437 l 962 437 m 1136 97 l 1321 97 l 1321 -64 l 72 -64 l 72 97 l 281 97 l 281 1103 l 1136 1103 l 1136 97 z "},"世":{"ha":1389,"x_min":64,"x_max":1325,"o":"m 968 684 l 777 684 l 777 422 l 968 422 l 968 684 m 1141 271 l 612 271 l 612 684 l 424 684 l 424 114 l 1289 114 l 1289 -46 l 252 -46 l 252 684 l 64 684 l 64 843 l 252 843 l 252 1136 l 424 1136 l 424 843 l 612 843 l 612 1165 l 777 1165 l 777 843 l 968 843 l 968 1153 l 1141 1153 l 1141 843 l 1325 843 l 1325 684 l 1141 684 l 1141 271 z "},"丘":{"ha":1389,"x_min":60,"x_max":1332,"o":"m 440 526 l 440 110 l 884 110 l 884 526 l 440 526 m 1053 110 l 1332 110 l 1332 -53 l 60 -53 l 60 110 l 271 110 l 271 1035 q 552 1059 409 1043 q 825 1100 695 1076 q 1053 1158 955 1125 l 1153 1011 q 936 956 1054 979 q 690 917 817 932 q 440 895 564 902 l 440 688 l 1255 688 l 1255 526 l 1053 526 l 1053 110 z "},"丙":{"ha":1389,"x_min":89,"x_max":1296,"o":"m 296 611 l 296 248 q 461 359 400 298 q 551 485 522 420 q 590 611 580 549 l 296 611 m 1296 932 l 781 932 l 781 766 l 1264 766 l 1264 74 q 1246 -29 1264 8 q 1182 -85 1229 -66 q 1070 -109 1137 -104 q 909 -113 1004 -113 q 889 -30 905 -77 q 856 50 873 17 q 939 47 897 48 q 1015 47 982 47 q 1061 47 1048 47 q 1088 54 1081 47 q 1096 78 1096 60 l 1096 611 l 772 611 q 755 533 766 570 q 877 448 813 494 q 996 356 940 401 q 1088 273 1052 311 l 975 143 q 901 218 946 177 q 803 303 856 260 q 696 386 749 347 q 586 242 655 312 q 410 114 516 173 q 359 175 392 140 q 296 233 326 210 l 296 -118 l 131 -118 l 131 766 l 600 766 l 600 932 l 89 932 l 89 1095 l 1296 1095 l 1296 932 z "},"业":{"ha":1389,"x_min":75,"x_max":1317,"o":"m 424 372 l 258 314 q 216 471 243 380 q 156 658 189 562 q 92 840 123 755 l 243 885 q 311 710 276 804 q 376 527 346 616 q 424 372 406 438 m 957 109 l 1317 109 l 1317 -57 l 75 -57 l 75 109 l 433 109 l 433 1158 l 604 1158 l 604 109 l 786 109 l 786 1158 l 957 1158 l 957 393 q 1029 543 991 459 q 1099 714 1066 626 q 1156 880 1133 802 l 1304 810 q 1236 631 1274 722 q 1159 456 1198 541 q 1083 306 1120 372 l 957 370 l 957 109 z "},"丛":{"ha":1389,"x_min":68,"x_max":1331,"o":"m 875 1164 l 1055 1154 q 1041 988 1049 1069 q 1022 832 1034 907 q 1087 628 1046 732 q 1188 432 1128 524 q 1331 282 1248 341 q 1288 239 1311 266 q 1242 182 1264 212 q 1207 129 1221 152 q 1058 308 1120 202 q 954 529 996 414 q 850 292 913 399 q 696 104 787 185 q 659 147 684 121 q 606 198 633 173 q 557 237 578 223 q 738 464 672 328 q 834 778 804 601 q 875 1164 865 954 m 732 490 l 603 364 q 538 480 579 414 q 449 612 496 546 q 357 334 415 460 q 211 113 300 208 q 173 154 199 129 q 120 204 148 180 q 72 244 92 229 q 224 476 170 338 q 303 790 279 615 q 336 1165 328 964 l 515 1156 q 504 991 511 1072 q 488 836 497 911 q 582 717 536 779 q 667 596 628 655 q 732 490 706 538 m 68 -90 l 68 83 l 1325 83 l 1325 -90 l 68 -90 z "},"东":{"ha":1389,"x_min":83,"x_max":1331,"o":"m 325 364 l 489 318 q 370 99 442 205 q 222 -78 297 -7 q 182 -43 207 -63 q 130 -3 157 -22 q 83 28 104 16 q 222 179 158 88 q 325 364 286 269 m 1225 447 l 847 447 l 847 79 q 832 -21 847 16 q 774 -78 817 -57 q 674 -104 733 -98 q 541 -110 615 -110 q 515 -24 534 -73 q 478 60 496 24 q 581 57 532 58 q 648 57 631 56 q 673 62 667 57 q 679 83 679 68 l 679 447 l 395 447 q 290 441 338 447 q 232 425 242 435 q 218 473 228 442 q 196 536 208 503 q 172 593 183 569 q 228 627 202 602 q 288 694 253 652 q 387 842 321 735 l 102 842 l 102 1000 l 475 1000 q 522 1094 499 1046 q 564 1190 544 1141 l 747 1125 q 716 1062 732 1093 q 684 1000 700 1031 l 1292 1000 l 1292 842 l 591 842 q 510 719 551 778 q 429 607 469 660 l 679 607 l 679 783 l 847 783 l 847 607 l 1226 607 l 1225 447 m 920 297 l 1060 364 q 1161 252 1108 313 q 1258 131 1213 191 q 1331 22 1303 71 l 1181 -56 q 1113 54 1156 -8 q 1019 179 1069 115 q 920 297 968 243 z "},"丝":{"ha":1389,"x_min":66,"x_max":1325,"o":"m 943 368 l 1297 382 q 1287 306 1291 349 q 1283 236 1283 263 q 1025 221 1124 227 q 870 209 926 214 q 788 198 815 203 q 743 186 760 193 q 730 229 739 201 q 710 286 721 256 q 692 335 700 315 q 751 368 721 342 q 823 436 782 393 q 872 490 840 454 q 942 576 903 526 q 825 568 867 572 q 761 560 783 564 q 726 550 740 555 q 714 593 723 566 q 696 647 706 619 q 676 696 686 675 q 719 724 699 702 q 764 783 740 747 q 801 839 777 800 q 853 932 825 878 q 910 1050 882 987 q 960 1177 938 1113 l 1114 1117 q 1007 906 1067 1011 q 885 715 948 802 l 1046 720 q 1116 827 1082 770 q 1181 939 1150 883 l 1325 863 q 1144 600 1242 727 q 943 368 1045 473 m 358 361 l 672 375 q 662 298 666 340 q 660 229 659 255 q 426 213 515 220 q 285 201 336 206 q 209 191 235 196 q 168 180 184 186 q 155 223 164 196 q 136 279 146 250 q 115 328 125 308 q 173 363 144 336 q 241 435 202 390 q 286 487 258 452 q 349 570 314 522 q 239 562 279 566 q 178 554 199 558 q 144 545 157 549 q 133 586 141 559 q 114 641 124 613 q 94 690 104 669 q 137 719 117 696 q 180 778 157 741 q 215 835 193 795 q 266 931 238 876 q 320 1051 293 987 q 368 1179 347 1115 l 522 1121 q 420 906 477 1013 q 300 710 363 800 l 446 714 q 515 829 481 768 q 578 949 549 889 l 725 873 q 552 603 647 735 q 358 361 457 471 m 66 -54 l 66 98 l 1322 98 l 1322 -54 l 66 -54 z "},"丢":{"ha":1389,"x_min":79,"x_max":1310,"o":"m 1310 550 l 1310 397 l 593 397 l 667 370 q 554 241 614 304 q 435 125 495 178 l 965 160 q 909 231 938 196 q 854 298 881 267 l 1006 359 q 1118 227 1061 299 q 1222 84 1175 155 q 1297 -46 1270 12 l 1132 -115 q 1101 -51 1120 -86 q 1059 22 1082 -16 q 699 -8 844 4 q 461 -30 553 -21 q 315 -44 369 -38 q 232 -57 262 -51 q 182 -71 203 -63 q 168 -23 178 -53 q 148 37 159 6 q 127 90 137 68 q 179 111 154 94 q 233 153 203 127 q 291 203 253 168 q 376 290 330 239 q 464 397 422 340 l 79 397 l 79 550 l 608 550 l 608 673 l 186 673 l 186 831 l 608 831 l 608 950 q 386 939 497 943 q 171 933 275 935 q 156 1010 169 966 q 131 1083 144 1055 q 398 1094 262 1086 q 665 1112 534 1101 q 911 1138 795 1123 q 1117 1174 1027 1154 l 1243 1031 q 1023 993 1141 1010 q 779 964 905 977 l 779 831 l 1204 831 l 1204 673 l 779 673 l 779 550 l 1310 550 z "},"两":{"ha":1389,"x_min":82,"x_max":1311,"o":"m 785 787 l 785 928 l 603 928 l 603 787 l 785 787 m 1093 338 l 1093 633 l 946 633 q 937 511 946 576 q 1021 424 979 469 q 1093 338 1062 378 m 296 633 l 296 186 q 385 326 355 249 q 427 483 416 404 q 440 633 438 563 l 296 633 m 1311 928 l 947 928 l 947 787 l 1260 787 l 1260 65 q 1243 -38 1260 -1 q 1181 -94 1225 -75 q 1070 -118 1137 -114 q 914 -122 1004 -122 q 892 -39 907 -87 q 861 41 877 8 q 941 38 900 39 q 1014 37 982 37 q 1059 37 1046 37 q 1093 68 1093 37 l 1093 240 l 1034 157 q 977 240 1013 193 q 900 335 942 287 q 835 180 876 254 q 730 45 794 106 q 676 105 711 71 q 614 160 641 140 q 721 305 685 223 q 770 472 757 387 q 785 633 783 558 l 602 633 q 593 509 602 573 q 666 428 631 469 q 721 357 701 388 l 627 224 q 595 272 615 245 q 554 326 576 298 q 489 176 529 248 q 385 45 448 104 q 346 92 371 65 q 296 139 321 118 l 296 -122 l 129 -122 l 129 787 l 440 787 l 440 928 l 82 928 l 82 1086 l 1311 1086 l 1311 928 z "},"严":{"ha":1389,"x_min":31,"x_max":1303,"o":"m 635 968 l 635 661 l 750 661 l 750 968 l 635 968 m 1303 661 l 1303 517 l 301 517 l 301 453 q 295 315 301 390 q 274 162 290 240 q 231 11 259 84 q 160 -122 203 -63 q 122 -83 146 -106 q 73 -38 98 -59 q 31 -5 47 -16 q 102 143 79 62 q 131 305 125 224 q 138 454 138 386 l 138 661 l 472 661 l 472 968 l 136 968 l 136 1109 l 1261 1109 l 1261 968 l 914 968 l 914 661 l 1303 661 m 191 911 l 332 960 q 392 838 366 905 q 431 721 419 771 l 281 668 q 246 787 272 718 q 191 911 220 856 m 1078 665 l 943 710 q 1000 832 971 761 q 1046 960 1029 903 l 1219 913 q 1146 779 1183 845 q 1078 665 1109 712 z "},"丧":{"ha":1389,"x_min":66,"x_max":1344,"o":"m 1120 428 l 1247 334 q 1123 243 1189 288 q 996 163 1057 198 q 1344 32 1137 69 q 1289 -37 1318 6 q 1244 -113 1260 -79 q 842 78 994 -56 q 602 429 689 212 l 447 429 l 447 90 l 739 149 q 728 65 732 113 q 725 -11 725 17 q 505 -58 589 -40 q 374 -87 421 -76 q 302 -107 326 -99 q 264 -123 279 -115 q 239 -47 258 -92 q 201 24 220 -3 q 250 59 225 35 q 275 126 275 83 l 275 429 l 66 429 l 66 579 l 606 579 l 606 889 l 110 889 l 110 1040 l 606 1040 l 606 1177 l 770 1177 l 770 1040 l 1279 1040 l 1279 889 l 770 889 l 770 579 l 1326 579 l 1326 429 l 764 429 q 819 334 788 378 q 888 250 850 290 q 1012 337 948 288 q 1120 428 1076 385 m 205 829 l 350 888 q 407 810 378 852 q 462 726 437 768 q 501 650 487 684 l 347 585 q 312 660 335 617 q 260 747 288 703 q 205 829 232 791 m 986 583 l 860 637 q 915 715 886 671 q 968 803 943 758 q 1011 886 994 848 l 1178 825 q 1079 693 1130 758 q 986 583 1029 628 z "},"个":{"ha":1389,"x_min":36,"x_max":1362,"o":"m 607 -119 l 607 729 l 779 729 l 779 -119 l 607 -119 m 693 1178 l 842 1107 q 821 1075 831 1091 q 800 1042 810 1059 q 1101 799 960 884 q 1362 668 1242 714 q 1293 595 1328 639 q 1240 511 1258 552 q 1081 598 1164 548 q 903 725 998 649 q 700 913 808 800 q 447 682 587 783 q 157 513 308 581 q 104 595 137 550 q 36 673 71 640 q 292 796 168 723 q 519 965 416 869 q 693 1178 623 1061 z "},"丫":{"ha":1389,"x_min":161,"x_max":1236,"o":"m 161 1055 l 288 1157 q 416 1066 348 1118 q 545 963 484 1015 q 644 867 606 910 l 507 751 q 415 848 473 794 q 290 957 357 903 q 161 1055 223 1011 m 1061 1149 l 1236 1079 q 1085 928 1165 1006 q 927 777 1005 850 q 783 646 848 704 l 783 -119 l 607 -119 l 607 720 q 754 849 673 775 q 916 1001 836 923 q 1061 1149 996 1080 z "},"中":{"ha":1389,"x_min":125,"x_max":1267,"o":"m 779 475 l 1093 475 l 1093 774 l 779 774 l 779 475 m 292 475 l 604 475 l 604 774 l 292 774 l 292 475 m 779 936 l 1267 936 l 1267 243 l 1093 243 l 1093 313 l 779 313 l 779 -121 l 604 -121 l 604 313 l 292 313 l 292 236 l 125 236 l 125 936 l 604 936 l 604 1177 l 779 1177 l 779 936 z "},"丰":{"ha":1389,"x_min":69,"x_max":1322,"o":"m 1322 359 l 1322 193 l 782 193 l 782 -119 l 604 -119 l 604 193 l 69 193 l 69 359 l 604 359 l 604 515 l 191 515 l 191 673 l 604 673 l 604 815 l 118 815 l 118 981 l 604 981 l 604 1178 l 782 1178 l 782 981 l 1270 981 l 1270 815 l 782 815 l 782 673 l 1207 673 l 1207 515 l 782 515 l 782 359 l 1322 359 z "},"串":{"ha":1389,"x_min":131,"x_max":1268,"o":"m 781 240 l 1088 240 l 1088 375 l 781 375 l 781 240 m 302 240 l 602 240 l 602 375 l 302 375 l 302 240 m 358 753 l 602 753 l 602 878 l 358 878 l 358 753 m 1026 878 l 781 878 l 781 753 l 1026 753 l 1026 878 m 781 525 l 1268 525 l 1268 39 l 1088 39 l 1088 93 l 781 93 l 781 -121 l 602 -121 l 602 93 l 302 93 l 302 37 l 131 37 l 131 525 l 602 525 l 602 608 l 187 608 l 187 1021 l 602 1021 l 602 1175 l 781 1175 l 781 1021 l 1207 1021 l 1207 608 l 781 608 l 781 525 z "},"临":{"ha":1389,"x_min":92,"x_max":1328,"o":"m 92 37 l 92 1022 l 244 1022 l 244 37 l 92 37 m 872 368 l 750 368 l 750 98 l 872 98 l 872 368 m 1135 98 l 1135 368 l 1022 368 l 1022 98 l 1135 98 m 591 -121 l 591 526 l 1301 526 l 1301 -115 l 1135 -115 l 1135 -54 l 750 -54 l 750 -121 l 591 -121 m 1158 664 l 1048 546 q 982 610 1022 572 q 896 686 941 647 q 808 758 850 726 l 916 857 q 1004 792 958 827 q 1090 724 1050 758 q 1158 664 1131 690 m 848 1025 l 1328 1025 l 1328 867 l 787 867 q 710 720 752 789 q 623 599 668 652 q 562 643 600 617 q 493 686 524 669 l 493 -107 l 330 -107 l 330 1160 l 493 1160 l 493 708 q 631 919 573 793 q 721 1182 688 1044 l 886 1150 q 868 1087 878 1118 q 848 1025 859 1057 z "},"丸":{"ha":1389,"x_min":35,"x_max":1372,"o":"m 1101 61 l 1177 61 q 1200 81 1192 61 q 1211 154 1208 100 q 1217 311 1215 208 q 1292 267 1246 288 q 1372 236 1338 245 q 1347 38 1365 111 q 1292 -68 1329 -36 q 1192 -100 1255 -100 l 1071 -100 q 968 -80 1006 -100 q 915 -11 930 -60 q 899 129 899 39 l 899 724 l 653 724 q 632 570 646 646 q 599 424 619 494 q 717 335 662 379 q 811 252 772 290 l 686 117 q 619 182 658 147 q 533 254 581 218 q 386 46 477 142 q 155 -122 294 -50 q 102 -52 137 -90 q 35 11 67 -13 q 256 167 171 78 q 390 363 341 256 q 275 441 333 403 q 164 513 217 480 l 277 628 q 359 579 316 605 q 446 525 402 553 q 465 623 457 573 q 478 724 473 673 l 114 724 l 114 888 l 488 888 q 490 1028 490 958 q 490 1173 490 1099 l 668 1173 q 667 1029 667 1101 q 663 888 666 958 l 1069 888 l 1069 129 q 1075 73 1069 85 q 1101 61 1080 61 z "},"丹":{"ha":1389,"x_min":39,"x_max":1321,"o":"m 513 838 l 629 929 q 718 859 671 898 q 806 782 764 821 q 875 713 848 743 l 750 608 q 686 680 726 640 q 600 762 646 720 q 513 838 553 803 m 425 585 l 982 585 l 982 965 l 425 965 l 425 633 q 425 610 425 622 q 425 585 425 597 m 1321 585 l 1321 427 l 1149 427 l 1149 71 q 1130 -37 1149 0 q 1064 -94 1111 -75 q 945 -118 1018 -114 q 764 -122 871 -122 q 742 -41 759 -88 q 707 39 725 5 q 801 34 753 35 q 887 33 849 33 q 940 33 924 33 q 972 43 963 35 q 982 74 982 52 l 982 427 l 414 427 q 375 229 403 328 q 297 39 348 130 q 164 -121 245 -51 q 129 -81 151 -104 q 81 -38 106 -58 q 39 -5 57 -17 q 187 197 142 83 q 248 427 233 311 l 69 427 l 69 585 l 258 585 l 258 635 l 258 1118 l 1149 1118 l 1149 585 l 1321 585 z "},"为":{"ha":1389,"x_min":71,"x_max":1267,"o":"m 473 935 l 321 871 q 289 936 310 899 q 241 1012 267 973 q 192 1083 216 1050 l 336 1143 q 415 1038 374 1096 q 473 935 455 979 m 701 854 l 1267 854 q 1266 839 1267 854 q 1266 805 1266 824 q 1265 775 1265 786 q 1250 434 1258 575 q 1232 200 1242 293 q 1208 53 1222 107 q 1174 -26 1194 -1 q 1112 -81 1145 -65 q 1036 -103 1080 -96 q 936 -109 996 -109 q 814 -107 876 -109 q 796 -19 812 -68 q 757 66 780 31 q 876 61 821 62 q 958 60 930 60 q 992 64 979 60 q 1019 82 1006 68 q 1050 169 1038 102 q 1072 362 1063 236 q 1088 686 1080 489 l 685 686 q 639 483 670 587 q 552 277 608 379 q 411 81 497 175 q 203 -94 326 -14 q 166 -52 190 -76 q 117 -6 143 -28 q 71 29 92 16 q 306 229 216 119 q 444 456 395 338 q 513 686 492 573 l 106 686 l 106 854 l 532 854 q 536 987 536 925 l 536 1175 l 704 1175 l 704 986 q 703 922 704 955 q 701 854 703 890 m 978 304 l 829 231 q 789 312 814 266 q 731 405 763 357 q 669 493 700 452 l 808 557 q 872 473 840 519 q 933 384 905 428 q 978 304 961 339 z "},"主":{"ha":1389,"x_min":77,"x_max":1320,"o":"m 786 85 l 1320 85 l 1320 -78 l 77 -78 l 77 85 l 604 85 l 604 353 l 208 353 l 208 513 l 604 513 l 604 753 l 135 753 l 135 914 l 690 914 q 589 1002 646 957 q 482 1083 532 1047 l 618 1178 q 713 1113 663 1149 q 810 1038 764 1076 q 885 968 856 1000 l 811 914 l 1251 914 l 1251 753 l 786 753 l 786 513 l 1185 513 l 1185 353 l 786 353 l 786 85 z "},"丽":{"ha":1389,"x_min":65,"x_max":1324,"o":"m 288 547 l 385 586 q 436 494 411 543 q 485 400 462 446 l 485 699 l 288 699 l 288 547 m 648 850 l 648 64 q 636 -29 648 5 q 590 -83 625 -64 q 509 -109 556 -103 q 397 -114 463 -114 q 382 -33 395 -79 q 354 46 370 14 q 419 45 387 45 q 464 45 452 45 q 485 66 485 45 l 485 294 l 392 253 q 347 362 376 300 q 288 485 319 425 l 288 -119 l 134 -119 l 134 850 l 648 850 m 892 538 l 987 576 q 1046 473 1017 528 q 1099 370 1075 418 l 1099 699 l 892 699 l 892 538 m 1265 850 l 1265 64 q 1253 -29 1265 5 q 1204 -85 1240 -64 q 1119 -108 1168 -104 q 1002 -113 1070 -113 q 986 -33 998 -78 q 958 45 974 12 q 1029 42 995 42 q 1076 43 1064 43 q 1099 65 1099 43 l 1099 294 l 1000 249 q 953 359 983 296 q 892 482 923 422 l 892 -119 l 737 -119 l 737 850 l 1265 850 m 65 1107 l 1324 1107 l 1324 949 l 65 949 l 65 1107 z "},"举":{"ha":1389,"x_min":25,"x_max":1360,"o":"m 372 543 l 614 543 l 614 693 l 781 693 l 781 543 l 1032 543 q 938 650 982 593 q 861 770 895 708 l 545 770 q 372 543 477 646 m 1048 392 l 781 392 l 781 271 l 1279 271 l 1279 117 l 781 117 l 781 -119 l 614 -119 l 614 117 l 125 117 l 125 271 l 614 271 l 614 392 l 340 392 l 340 513 q 134 372 243 427 q 83 438 115 400 q 25 498 51 475 q 218 612 127 541 q 372 770 310 684 l 72 770 l 72 920 l 306 920 q 252 1003 283 959 q 191 1084 220 1047 l 329 1154 q 413 1054 372 1110 q 476 956 454 998 l 408 920 l 643 920 q 593 1020 627 963 q 525 1124 559 1077 l 664 1183 q 739 1080 701 1137 q 794 979 777 1023 l 667 920 l 867 920 q 947 1039 906 970 q 1013 1164 987 1107 l 1192 1109 q 1048 920 1120 1006 l 1320 920 l 1320 770 l 1032 770 q 1179 625 1093 691 q 1360 521 1265 559 q 1299 457 1333 498 q 1249 386 1266 417 q 1144 448 1194 412 q 1048 526 1095 484 l 1048 392 z "},"乃":{"ha":1389,"x_min":31,"x_max":1267,"o":"m 950 608 l 1267 608 q 1266 594 1267 608 q 1265 563 1266 581 q 1264 534 1265 546 q 1245 246 1256 358 q 1219 72 1235 134 q 1177 -18 1202 9 q 1107 -69 1145 -54 q 1019 -87 1069 -83 q 909 -92 978 -93 q 768 -89 841 -91 q 746 0 766 -50 q 699 86 727 49 q 846 78 776 80 q 950 77 916 77 q 989 80 973 77 q 1018 93 1004 83 q 1056 198 1042 113 q 1079 449 1069 284 l 710 449 q 781 675 743 545 q 850 933 818 804 l 489 933 l 489 882 q 484 704 489 803 q 460 497 478 606 q 407 277 443 388 q 311 63 371 167 q 161 -126 252 -40 q 124 -78 147 -106 q 76 -26 101 -51 q 31 12 51 -1 q 164 177 111 88 q 247 362 216 267 q 293 551 278 457 q 312 730 308 645 q 317 884 317 815 l 317 933 l 118 933 l 118 1096 l 1068 1096 q 1011 849 1042 978 q 950 608 980 721 z "},"久":{"ha":1389,"x_min":35,"x_max":1354,"o":"m 872 975 l 993 920 q 934 726 968 819 q 860 550 901 633 q 1057 241 930 379 q 1354 32 1183 103 q 1289 -39 1324 6 q 1234 -117 1253 -83 q 959 85 1076 -41 q 758 374 842 211 q 495 77 644 201 q 179 -122 347 -47 q 143 -73 166 -102 q 96 -16 121 -43 q 50 26 71 11 q 487 320 298 125 q 771 800 676 515 l 479 800 q 341 583 416 682 q 183 410 267 484 q 141 449 168 426 q 85 496 114 473 q 35 533 56 519 q 205 703 127 604 q 341 923 282 803 q 437 1175 399 1044 l 619 1135 q 590 1050 606 1091 q 557 966 574 1008 l 840 966 l 872 975 z "},"么":{"ha":1389,"x_min":65,"x_max":1335,"o":"m 583 1168 l 755 1104 q 597 880 687 994 q 405 662 507 766 q 196 479 302 558 q 134 541 172 506 q 65 599 96 576 q 219 721 143 652 q 363 866 295 789 q 488 1020 432 942 q 583 1168 545 1097 m 1335 -14 l 1173 -100 q 1146 -38 1161 -71 q 1114 31 1132 -5 q 742 1 892 13 q 495 -17 591 -10 q 343 -30 399 -24 q 257 -39 288 -35 q 205 -52 227 -44 q 188 -5 200 -35 q 162 57 176 25 q 136 113 148 89 q 219 154 176 123 q 329 243 262 184 q 433 338 366 273 q 582 495 499 404 q 750 696 664 587 q 914 924 837 806 l 1086 838 q 781 456 939 628 q 467 147 622 285 l 1028 187 q 880 412 957 308 l 1031 488 q 1148 319 1090 409 q 1255 142 1206 229 q 1335 -14 1304 56 z "},"义":{"ha":1389,"x_min":43,"x_max":1352,"o":"m 831 846 l 677 786 q 640 893 664 833 q 588 1015 616 953 q 533 1131 560 1077 l 679 1181 q 736 1067 707 1128 q 790 949 765 1007 q 831 846 814 892 m 1078 1075 l 1250 1023 q 1078 627 1179 812 q 828 289 976 441 q 1069 139 938 203 q 1352 35 1200 75 q 1290 -37 1323 9 q 1239 -117 1257 -82 q 943 3 1078 -68 q 694 168 808 75 q 441 4 581 77 q 129 -123 301 -69 q 90 -49 115 -92 q 43 22 65 -7 q 334 134 202 68 q 572 283 465 200 q 349 584 445 418 q 182 946 253 750 l 340 993 q 489 672 399 822 q 703 399 579 522 q 930 711 840 539 q 1078 1075 1021 882 z "},"之":{"ha":1389,"x_min":60,"x_max":1346,"o":"m 1125 928 l 1253 843 q 1045 583 1165 713 q 788 336 925 453 q 511 126 650 218 q 663 75 576 87 q 860 64 750 64 q 1019 68 930 64 q 1193 80 1107 73 q 1346 97 1280 87 q 1327 41 1337 75 q 1308 -24 1316 8 q 1299 -79 1300 -57 q 1207 -85 1261 -82 q 1090 -90 1153 -87 q 967 -93 1028 -92 q 854 -94 905 -94 q 637 -78 726 -94 q 478 -18 549 -62 q 399 36 433 8 q 342 64 365 64 q 293 37 320 64 q 237 -32 267 10 q 179 -118 208 -74 l 60 37 q 212 168 135 118 q 346 218 288 218 l 354 218 q 581 376 468 286 q 794 564 694 465 q 968 757 894 663 l 131 757 l 131 920 l 672 920 q 612 1017 647 964 q 547 1114 577 1070 l 696 1193 q 752 1117 722 1158 q 809 1037 782 1076 q 851 968 836 998 l 766 920 l 1093 920 l 1125 928 z "},"乌":{"ha":1389,"x_min":74,"x_max":1301,"o":"m 1032 292 l 1032 146 l 74 146 l 74 292 l 1032 292 m 1301 550 l 1301 484 q 1288 203 1296 311 q 1267 36 1280 95 q 1234 -49 1255 -23 q 1178 -93 1208 -81 q 1107 -110 1147 -104 q 1013 -114 1072 -114 q 892 -111 954 -114 q 874 -33 890 -76 q 838 43 859 11 q 955 36 900 38 q 1038 35 1010 35 q 1069 38 1057 35 q 1093 52 1082 41 q 1123 152 1113 70 q 1137 404 1133 235 l 250 404 l 250 1035 l 528 1035 q 552 1108 541 1070 q 570 1179 563 1147 l 751 1164 q 689 1035 720 1093 l 1189 1035 q 1188 1008 1189 1035 q 1185 964 1187 981 q 1156 758 1173 827 q 1112 660 1139 688 q 1059 624 1090 633 q 991 612 1028 614 q 905 611 960 610 q 790 615 850 611 q 780 684 789 646 q 757 751 770 723 q 855 745 809 746 q 922 743 901 743 q 951 746 940 743 q 971 760 962 748 q 990 802 981 770 q 1007 889 1000 833 l 408 889 l 408 550 l 1301 550 z "},"乍":{"ha":1389,"x_min":46,"x_max":1318,"o":"m 1318 791 l 696 791 l 696 639 l 1232 639 l 1232 481 l 696 481 l 696 325 l 1261 325 l 1261 164 l 696 164 l 696 -121 l 521 -121 l 521 791 l 404 791 q 303 633 355 707 q 199 501 252 559 q 155 536 182 516 q 97 574 127 555 q 46 606 67 593 q 181 764 116 672 q 299 962 245 857 q 392 1177 353 1068 l 566 1132 q 529 1042 549 1087 q 489 954 510 998 l 1318 954 l 1318 791 z "},"乎":{"ha":1389,"x_min":66,"x_max":1324,"o":"m 1324 532 l 1324 361 l 799 361 l 799 85 q 778 -31 799 7 q 707 -89 757 -69 q 579 -114 656 -109 q 397 -119 503 -119 q 369 -33 389 -83 q 326 53 349 18 q 429 49 377 50 q 520 47 480 47 q 575 47 559 47 q 609 56 599 48 q 619 86 619 64 l 619 361 l 66 361 l 66 532 l 619 532 l 619 932 q 400 919 510 924 q 186 911 290 913 q 172 988 184 945 q 146 1061 159 1031 q 410 1075 275 1066 q 675 1097 545 1084 q 923 1128 806 1110 q 1136 1168 1041 1145 l 1217 1017 q 1019 979 1125 995 q 799 950 912 962 l 799 532 l 1324 532 m 200 836 l 342 888 q 392 794 368 844 q 437 696 417 745 q 465 610 456 648 l 314 551 q 289 638 307 589 q 248 739 271 687 q 200 836 224 790 m 1063 557 l 925 607 q 973 704 949 650 q 1018 814 997 758 q 1053 918 1039 869 l 1232 861 q 1145 696 1190 779 q 1063 557 1101 614 z "},"乏":{"ha":1389,"x_min":50,"x_max":1360,"o":"m 1112 705 l 1235 616 q 1038 424 1152 519 q 796 243 925 328 q 534 94 667 159 q 675 61 596 68 q 851 53 753 53 q 1021 57 929 53 q 1201 70 1112 62 q 1360 87 1291 77 q 1338 32 1350 65 q 1318 -34 1326 -1 q 1310 -90 1310 -67 q 1215 -95 1272 -92 q 1092 -100 1158 -98 q 962 -104 1027 -102 q 842 -106 897 -106 q 609 -88 700 -106 q 444 -22 518 -70 q 358 43 395 10 q 300 77 321 77 q 261 45 281 77 q 220 -34 241 14 q 178 -129 199 -81 l 50 39 q 192 183 124 133 q 306 233 260 233 q 348 221 328 233 q 392 189 368 209 q 585 288 489 231 q 767 407 681 344 q 922 533 853 470 l 170 533 l 170 697 l 631 697 q 582 788 611 738 q 528 880 553 839 l 644 937 q 411 922 528 928 q 182 914 294 916 q 166 991 179 946 q 142 1064 153 1036 q 413 1076 275 1067 q 685 1097 551 1084 q 936 1127 818 1110 q 1146 1166 1054 1145 l 1270 1026 q 990 975 1142 996 q 677 940 838 954 q 740 843 707 895 q 791 754 774 791 l 682 697 l 1079 697 l 1112 705 z "},"乐":{"ha":1389,"x_min":43,"x_max":1340,"o":"m 302 393 l 463 339 q 377 205 425 273 q 278 74 329 136 q 182 -36 227 11 q 141 -3 166 -22 q 89 36 115 17 q 43 66 62 55 q 138 162 90 108 q 229 276 186 216 q 302 393 271 336 m 1284 473 l 810 473 l 810 78 q 793 -27 810 10 q 733 -85 777 -64 q 626 -110 690 -104 q 475 -114 562 -115 q 454 -30 470 -79 q 419 54 438 19 q 531 53 477 52 q 606 53 586 53 q 631 58 623 53 q 639 81 639 64 l 639 473 l 353 473 q 240 468 292 473 q 178 452 189 463 q 164 496 174 469 q 144 553 155 524 q 123 603 134 582 q 153 633 141 610 q 174 693 164 656 q 189 779 178 717 q 208 922 199 840 q 216 1084 216 1003 q 466 1094 338 1087 q 716 1110 593 1100 q 951 1134 840 1120 q 1152 1166 1062 1148 l 1235 1018 q 973 976 1116 993 q 678 950 830 960 q 379 937 526 941 q 358 784 372 861 q 330 640 345 707 l 639 640 l 639 879 l 810 879 l 810 640 l 1284 640 l 1284 473 m 942 330 l 1086 392 q 1179 274 1130 338 q 1271 148 1228 210 q 1340 37 1314 86 l 1183 -33 q 1120 78 1160 15 q 1033 207 1080 141 q 942 330 985 273 z "},"乒":{"ha":1389,"x_min":60,"x_max":1329,"o":"m 467 244 l 610 140 q 477 48 551 95 q 326 -41 404 1 q 176 -114 248 -83 q 122 -53 155 -89 q 62 8 90 -18 q 210 76 133 35 q 354 161 286 117 q 467 244 422 205 m 463 652 l 463 407 l 861 407 l 861 652 l 463 652 m 1032 407 l 1329 407 l 1329 250 l 60 250 l 60 407 l 293 407 l 293 1092 q 583 1109 435 1098 q 867 1138 730 1121 q 1109 1177 1003 1155 l 1194 1023 q 967 990 1089 1004 q 716 965 845 975 q 463 949 587 955 l 463 806 l 1253 806 l 1253 652 l 1032 652 l 1032 407 z "},"乓":{"ha":1389,"x_min":60,"x_max":1329,"o":"m 791 132 l 918 236 q 1054 160 979 203 q 1199 73 1129 117 q 1315 -7 1269 28 l 1179 -123 q 1071 -44 1138 -90 q 930 48 1004 1 q 791 132 856 94 m 463 652 l 463 407 l 861 407 l 861 652 l 463 652 m 1032 407 l 1329 407 l 1329 250 l 60 250 l 60 407 l 293 407 l 293 1092 q 583 1109 435 1098 q 867 1138 730 1121 q 1109 1177 1003 1155 l 1194 1023 q 967 990 1089 1004 q 716 965 845 975 q 463 949 587 955 l 463 806 l 1253 806 l 1253 652 l 1032 652 l 1032 407 z "},"乔":{"ha":1389,"x_min":29,"x_max":1350,"o":"m 1315 696 l 1006 696 q 1160 575 1072 628 q 1350 490 1249 522 q 1289 422 1322 465 q 1239 347 1255 380 q 994 488 1100 399 l 994 -123 l 823 -123 l 823 515 l 961 515 q 810 696 874 595 l 591 696 q 511 598 554 644 q 421 511 468 552 l 547 511 l 547 371 q 538 243 547 310 q 499 110 528 176 q 412 -19 470 43 q 257 -129 354 -80 q 197 -63 236 -101 q 127 -5 159 -25 q 262 82 212 35 q 338 180 313 130 q 371 280 363 231 q 379 376 379 330 l 379 476 q 267 401 326 435 q 144 338 208 367 q 113 382 134 355 q 70 434 92 408 q 29 476 47 460 q 374 696 235 553 l 71 696 l 71 854 l 494 854 q 524 906 510 880 q 549 961 537 932 q 356 954 452 956 q 170 951 260 951 q 156 1023 168 981 q 134 1092 145 1065 q 402 1098 264 1093 q 673 1112 541 1103 q 923 1134 806 1120 q 1131 1164 1040 1147 l 1247 1034 q 1005 997 1136 1013 q 737 972 875 981 q 713 912 726 941 q 686 854 700 882 l 1315 854 l 1315 696 z "},"乖":{"ha":1389,"x_min":54,"x_max":1344,"o":"m 349 600 l 349 696 l 507 696 l 507 100 l 349 100 l 349 207 q 233 158 290 182 q 125 113 176 134 l 54 264 q 188 302 111 279 q 349 353 265 326 l 349 456 l 94 456 l 94 600 l 349 600 m 1312 743 l 779 743 l 779 -121 l 606 -121 l 606 743 l 77 743 l 77 893 l 606 893 l 606 981 q 395 972 499 975 q 193 968 291 969 q 179 1038 191 997 q 155 1104 167 1078 q 410 1113 280 1107 q 666 1127 541 1118 q 904 1147 792 1136 q 1104 1174 1016 1159 l 1211 1039 q 1006 1012 1116 1023 q 779 991 896 1000 l 779 893 l 1312 893 l 1312 743 m 1071 249 l 1161 249 q 1185 258 1177 249 q 1197 297 1193 268 q 1203 386 1200 327 q 1269 350 1227 368 q 1344 325 1311 332 q 1318 191 1336 239 q 1266 124 1299 143 q 1178 104 1232 104 l 1044 104 q 938 122 975 104 q 887 182 901 140 q 873 297 873 224 l 873 693 l 1034 693 l 1034 541 q 1125 596 1081 568 q 1202 652 1169 625 l 1314 530 q 1177 459 1251 493 q 1034 400 1104 426 l 1034 297 q 1040 257 1034 265 q 1071 249 1047 249 z "},"乘":{"ha":1389,"x_min":36,"x_max":1349,"o":"m 1168 250 l 1040 250 q 945 264 976 250 q 1131 140 1028 194 q 1349 56 1233 85 q 1291 -9 1322 32 q 1242 -83 1259 -51 q 990 42 1106 -37 q 782 227 873 121 l 782 -119 l 607 -119 l 607 225 q 144 -81 418 15 q 94 -8 125 -50 q 36 58 63 33 q 252 142 150 90 q 437 262 354 195 l 354 262 l 354 313 q 231 292 292 302 q 115 273 170 283 l 87 410 q 210 423 140 415 q 354 439 279 431 l 354 515 l 132 515 l 132 644 l 354 644 l 354 718 l 509 718 l 509 323 q 562 383 538 353 q 607 444 586 413 l 607 750 l 89 750 l 89 899 l 607 899 l 607 974 q 405 965 506 968 q 208 961 303 962 q 195 1032 206 992 q 172 1100 184 1072 q 423 1110 294 1103 q 677 1126 552 1116 q 917 1148 803 1135 q 1122 1177 1030 1161 l 1194 1035 q 1000 1007 1105 1019 q 782 986 895 994 l 782 899 l 1299 899 l 1299 750 l 782 750 l 782 441 q 899 304 830 369 q 883 354 887 324 q 879 427 879 385 l 879 722 l 1029 722 l 1029 612 q 1110 647 1071 629 q 1179 681 1149 664 l 1274 562 q 1153 519 1217 540 q 1029 482 1088 498 l 1029 428 q 1036 393 1029 401 q 1065 386 1042 386 l 1152 386 q 1178 400 1171 386 q 1189 468 1185 415 q 1249 437 1210 452 q 1321 415 1289 422 q 1273 284 1308 319 q 1168 250 1239 250 z "},"乙":{"ha":1389,"x_min":117,"x_max":1324,"o":"m 465 111 l 1023 111 q 1095 133 1067 111 q 1136 217 1122 154 q 1156 404 1151 280 q 1238 368 1191 385 q 1324 342 1285 351 q 1294 140 1315 219 q 1235 18 1272 62 q 1140 -44 1197 -26 q 1002 -61 1082 -61 l 481 -61 q 205 6 294 -61 q 117 187 117 73 q 126 261 117 223 q 168 349 135 298 q 269 472 200 399 q 456 650 338 545 q 755 901 574 754 l 136 901 l 136 1074 l 1003 1074 l 1043 1083 l 1160 996 q 1131 975 1149 985 q 796 714 935 825 q 566 524 657 603 q 420 391 474 445 q 339 302 366 337 q 305 244 313 267 q 297 203 297 221 q 341 133 297 155 q 465 111 385 111 z "},"九":{"ha":1389,"x_min":35,"x_max":1368,"o":"m 1074 60 l 1168 60 q 1193 76 1185 60 q 1206 138 1202 92 q 1213 271 1210 183 q 1287 228 1242 248 q 1368 199 1333 208 q 1341 21 1360 86 q 1285 -72 1322 -45 q 1183 -100 1247 -100 l 1043 -100 q 936 -80 975 -100 q 880 -12 897 -61 q 864 127 864 38 l 864 671 l 612 671 q 550 354 596 502 q 410 86 505 207 q 154 -121 316 -34 q 101 -50 136 -89 q 35 12 66 -10 q 260 184 178 85 q 383 406 343 283 q 436 671 422 528 l 104 671 l 104 838 l 446 838 q 448 994 448 913 q 449 1158 449 1074 l 629 1158 q 628 996 629 1076 q 624 838 627 915 l 1036 838 l 1036 127 q 1042 72 1036 84 q 1074 60 1048 60 z "},"乞":{"ha":1389,"x_min":45,"x_max":1320,"o":"m 1300 844 l 404 844 q 298 709 353 772 q 187 597 243 646 q 146 636 172 613 q 93 682 120 659 q 45 718 65 704 q 179 844 114 771 q 300 1003 245 918 q 393 1177 355 1088 l 567 1122 q 507 1007 540 1065 l 1300 1007 l 1300 844 m 503 78 l 1053 78 q 1111 91 1088 78 q 1144 142 1133 103 q 1160 261 1156 181 q 1238 225 1195 240 q 1320 203 1281 211 q 1278 20 1308 83 q 1189 -65 1247 -43 q 1036 -87 1131 -87 l 518 -87 q 279 -32 357 -87 q 201 118 201 23 q 208 172 201 144 q 237 233 214 199 q 308 309 260 266 q 440 409 357 352 q 653 543 524 467 l 297 543 l 297 701 l 957 701 l 993 707 l 1114 619 q 1082 596 1101 606 q 756 419 885 492 q 550 298 627 347 q 437 219 474 250 q 390 169 401 189 q 379 135 379 150 q 412 91 379 104 q 503 78 446 78 z "},"也":{"ha":1389,"x_min":36,"x_max":1332,"o":"m 591 56 l 1013 56 q 1107 72 1075 56 q 1154 136 1139 89 q 1178 273 1168 182 q 1253 237 1208 255 q 1332 211 1299 218 q 1289 29 1318 96 q 1198 -65 1260 -37 q 1023 -93 1136 -93 l 590 -93 q 399 -71 468 -93 q 302 10 330 -48 q 273 175 273 68 l 273 541 l 79 479 l 36 628 l 273 703 l 273 1079 l 436 1079 l 436 754 l 650 821 l 650 1174 l 814 1174 l 814 873 l 1067 951 l 1084 964 l 1117 986 l 1234 936 l 1226 905 q 1215 586 1223 711 q 1186 403 1207 462 q 1138 319 1167 347 q 1072 281 1109 291 q 986 268 1036 271 q 897 267 937 264 q 884 343 895 296 q 860 418 873 390 q 923 414 889 415 q 977 414 958 414 q 1013 426 998 414 q 1040 473 1028 437 q 1056 587 1050 509 q 1063 790 1061 665 l 814 711 l 814 192 l 650 192 l 650 660 l 436 591 l 436 175 q 447 97 436 123 q 490 64 457 72 q 591 56 524 56 z "},"习":{"ha":1389,"x_min":127,"x_max":1255,"o":"m 945 493 l 977 342 q 698 239 840 290 q 425 140 557 187 q 184 54 293 92 l 127 221 q 363 294 228 250 q 648 389 498 338 q 945 493 799 441 m 307 757 l 416 867 q 536 780 470 828 q 664 686 602 732 q 764 604 725 640 l 646 479 q 551 565 610 515 q 427 665 492 614 q 307 757 362 715 m 1255 1095 l 1255 1010 q 1248 565 1253 746 q 1235 267 1243 383 q 1213 86 1227 151 q 1179 -8 1200 22 q 1115 -73 1149 -54 q 1034 -98 1080 -92 q 917 -104 987 -105 q 781 -102 846 -104 q 763 -23 779 -68 q 726 56 747 22 q 867 50 806 50 q 962 49 929 49 q 1022 74 1003 49 q 1058 194 1046 97 q 1077 473 1071 291 q 1086 936 1082 656 l 150 936 l 150 1095 l 1255 1095 z "},"乡":{"ha":1389,"x_min":83,"x_max":1284,"o":"m 1104 642 l 1284 582 q 1026 228 1185 368 q 653 5 867 88 q 176 -121 439 -77 q 153 -68 169 -99 q 118 -7 137 -37 q 83 45 99 24 q 580 159 363 80 q 939 385 796 238 q 641 360 762 370 q 441 341 519 349 q 317 326 363 333 q 244 313 271 319 q 200 300 218 307 q 188 346 197 317 q 167 408 178 376 q 146 463 155 439 q 238 490 192 470 q 355 545 285 509 q 465 602 394 562 q 623 697 536 642 q 450 682 517 688 q 344 670 383 675 q 284 661 305 665 q 250 650 264 656 q 237 695 245 666 q 217 756 228 725 q 197 811 206 788 q 257 832 227 817 q 323 875 286 848 q 385 919 345 888 q 473 991 425 949 q 573 1083 522 1033 q 667 1186 623 1133 l 817 1089 q 670 952 748 1018 q 513 828 593 886 l 842 850 q 924 915 884 881 q 1002 982 964 949 l 1149 869 q 878 670 1019 761 q 596 505 737 580 l 1053 534 q 1080 587 1067 559 q 1104 642 1093 614 z "},"书":{"ha":1389,"x_min":82,"x_max":1335,"o":"m 707 785 l 707 572 l 961 572 l 961 785 l 707 785 m 1128 572 l 1329 572 q 1328 547 1329 572 q 1325 504 1327 521 q 1302 276 1314 366 q 1273 134 1290 186 q 1235 60 1257 83 q 1174 17 1206 28 q 1096 1 1141 5 q 1000 -2 1059 -2 q 878 0 941 -2 q 859 81 875 37 q 819 158 844 125 q 943 151 883 152 q 1031 150 1002 150 q 1065 152 1051 150 q 1092 164 1079 155 q 1124 240 1110 180 q 1149 416 1138 300 l 707 416 l 707 -114 l 536 -114 l 536 416 l 82 416 l 82 572 l 536 572 l 536 785 l 157 785 l 157 945 l 536 945 l 536 1171 l 707 1171 l 707 945 l 1097 945 q 1022 996 1060 970 q 951 1040 985 1021 l 1047 1152 q 1148 1092 1093 1126 q 1253 1025 1202 1059 q 1335 965 1303 991 l 1234 839 q 1187 879 1215 858 q 1128 922 1160 899 l 1128 572 z "},"买":{"ha":1389,"x_min":56,"x_max":1324,"o":"m 1129 718 l 994 783 q 1041 859 1017 817 q 1088 947 1065 901 l 143 947 l 143 1101 l 1143 1101 l 1143 1103 l 1173 1103 l 1198 1112 l 1324 1063 q 1231 878 1282 971 q 1129 718 1179 784 m 650 762 l 554 639 q 478 690 525 662 q 379 746 431 718 q 281 796 326 774 l 370 905 q 468 863 414 888 q 569 811 521 838 q 650 762 618 785 m 475 579 l 379 457 q 308 506 352 479 q 215 558 264 532 q 122 603 165 583 l 211 713 q 304 672 254 695 q 399 625 353 649 q 475 579 444 601 m 1310 302 l 775 302 q 657 119 734 199 q 454 -22 581 38 q 139 -121 328 -81 q 103 -50 128 -90 q 56 17 77 -9 q 312 86 207 46 q 486 180 418 127 q 596 302 555 234 l 87 302 l 87 454 l 653 454 q 681 654 675 545 q 690 895 686 764 l 856 895 q 845 660 851 770 q 819 454 838 550 l 1310 454 l 1310 302 m 722 126 l 806 245 q 993 171 899 212 q 1170 87 1087 130 q 1311 8 1253 45 l 1204 -119 q 1072 -38 1149 -81 q 903 48 994 6 q 722 126 813 91 z "},"乱":{"ha":1389,"x_min":45,"x_max":1348,"o":"m 579 100 l 579 318 l 261 318 l 261 100 l 579 100 m 500 982 l 500 793 l 781 793 l 781 646 l 500 646 l 500 463 l 741 463 l 741 -77 l 579 -77 l 579 -46 l 261 -46 l 261 -90 l 107 -90 l 107 463 l 339 463 l 339 646 l 45 646 l 45 793 l 339 793 l 339 957 q 223 942 281 949 q 110 932 165 936 q 90 998 104 959 q 62 1063 76 1036 q 273 1090 166 1074 q 476 1127 380 1106 q 643 1173 572 1148 l 762 1043 q 637 1010 703 1024 q 500 982 571 996 m 1032 46 l 1143 46 q 1174 67 1163 46 q 1189 144 1184 89 q 1197 300 1194 199 q 1270 259 1226 279 q 1348 231 1313 238 q 1320 34 1339 109 q 1263 -75 1302 -41 q 1157 -109 1225 -109 l 1006 -109 q 895 -87 935 -109 q 839 -13 855 -65 q 822 132 822 39 l 822 1153 l 986 1153 l 986 131 q 995 61 986 75 q 1032 46 1003 46 z "},"乳":{"ha":1389,"x_min":57,"x_max":1343,"o":"m 528 358 l 528 351 q 657 362 591 357 q 785 372 722 367 l 785 225 q 656 213 721 219 q 528 201 591 208 l 528 41 q 515 -44 528 -12 q 461 -94 502 -77 q 372 -115 424 -111 q 252 -119 320 -119 q 231 -44 246 -86 q 201 28 216 -3 q 287 26 244 26 q 343 28 330 26 q 363 31 357 28 q 368 47 368 35 l 368 187 q 211 174 286 180 q 71 163 136 168 l 57 315 q 201 325 121 319 q 368 338 281 331 l 368 403 q 436 463 401 428 q 503 536 471 498 l 126 536 l 126 675 l 187 675 q 149 781 175 721 q 98 892 123 842 l 231 942 q 289 828 261 890 q 332 722 316 766 l 221 675 l 624 675 l 660 684 l 766 600 q 654 476 717 541 q 528 358 591 412 m 528 746 l 389 697 q 360 808 380 743 q 319 928 340 873 l 453 970 q 496 854 475 916 q 528 746 517 791 m 665 682 l 538 733 q 577 817 557 770 q 616 913 598 864 q 647 1006 635 963 l 803 950 q 732 806 768 878 q 665 682 696 733 m 720 1178 l 821 1044 q 600 1002 720 1019 q 355 974 480 985 q 113 958 229 963 q 95 1026 109 987 q 69 1092 82 1065 q 302 1111 183 1099 q 530 1140 422 1123 q 720 1178 638 1157 m 1060 61 l 1152 61 q 1177 83 1168 61 q 1190 160 1186 104 q 1197 317 1194 215 q 1268 273 1225 295 q 1343 244 1311 252 q 1319 51 1336 123 q 1265 -54 1301 -22 q 1164 -86 1228 -86 l 1031 -86 q 924 -65 962 -86 q 872 6 886 -44 q 857 144 857 57 l 857 1143 l 1021 1143 l 1021 143 q 1028 75 1021 89 q 1060 61 1035 61 z "},"乾":{"ha":1389,"x_min":52,"x_max":1354,"o":"m 517 635 l 517 705 l 244 705 l 244 635 l 517 635 m 517 452 l 517 524 l 244 524 l 244 452 l 517 452 m 957 54 l 1157 54 q 1188 66 1177 54 q 1206 116 1200 77 q 1214 237 1212 155 q 1284 206 1247 219 q 1354 186 1321 193 q 1324 2 1347 64 q 1260 -83 1301 -61 q 1153 -106 1218 -106 l 956 -106 q 779 -59 833 -106 q 724 66 724 -12 q 730 124 724 93 q 761 203 736 155 q 839 331 786 252 q 986 529 892 409 l 770 529 l 770 640 l 760 629 q 720 668 745 645 q 669 711 694 690 l 669 334 l 458 334 l 458 253 l 697 253 l 697 106 l 458 106 l 458 -121 l 298 -121 l 298 106 l 52 106 l 52 253 l 298 253 l 298 334 l 98 334 l 98 825 l 298 825 l 298 903 l 68 903 l 68 1047 l 298 1047 l 298 1177 l 458 1177 l 458 1047 l 688 1047 l 688 903 l 458 903 l 458 825 l 669 825 l 669 789 q 769 965 728 864 q 835 1175 811 1067 l 999 1143 q 949 977 978 1058 l 1333 977 l 1333 823 l 885 823 q 843 746 865 783 q 798 676 821 709 l 1131 676 l 1166 679 l 1274 636 q 1266 620 1270 629 q 1257 606 1262 612 q 1087 402 1154 485 q 981 264 1020 319 q 922 177 941 210 q 897 125 903 144 q 892 92 892 106 q 957 54 892 54 z "},"了":{"ha":1389,"x_min":132,"x_max":1265,"o":"m 1132 1089 l 1265 991 q 1124 854 1202 924 q 960 721 1046 785 q 787 606 874 657 l 787 69 q 768 -39 787 -1 q 697 -94 748 -76 q 570 -118 645 -113 q 396 -122 496 -123 q 369 -37 389 -85 q 329 45 349 11 q 429 42 378 42 q 518 41 479 41 q 572 41 557 41 q 614 74 614 41 l 614 689 q 780 793 695 732 q 933 917 865 855 l 132 917 l 132 1079 l 1096 1079 l 1132 1089 z "},"予":{"ha":1389,"x_min":68,"x_max":1337,"o":"m 1203 660 l 1337 602 q 1232 406 1291 503 q 1116 239 1174 309 l 974 321 q 1027 400 999 355 q 1082 492 1056 445 l 789 492 l 789 60 q 771 -41 789 -6 q 703 -93 753 -75 q 587 -114 655 -111 q 429 -118 519 -118 q 406 -37 423 -83 q 370 40 388 8 q 454 38 410 39 q 533 38 498 38 q 582 37 568 37 q 609 44 602 39 q 616 65 616 50 l 616 492 l 68 492 l 68 648 l 700 648 q 543 713 623 681 q 396 770 463 745 l 478 895 q 581 858 525 878 q 696 817 637 838 q 786 879 741 845 q 872 947 831 912 l 201 947 l 201 1099 l 1032 1099 l 1069 1108 l 1187 1015 q 1038 880 1121 949 q 867 751 954 811 q 932 726 901 738 q 986 703 962 714 l 953 648 l 1173 648 l 1203 660 z "},"争":{"ha":1389,"x_min":50,"x_max":1343,"o":"m 1002 325 l 1002 429 l 772 429 l 772 325 l 1002 325 m 772 677 l 772 579 l 1002 579 l 1002 677 l 772 677 m 808 921 l 461 921 q 413 870 438 895 q 363 821 389 846 l 721 821 q 808 921 769 869 m 1343 579 l 1343 429 l 1162 429 l 1162 175 l 772 175 l 772 60 q 755 -41 772 -6 q 692 -94 737 -76 q 583 -117 648 -112 q 429 -121 517 -122 q 406 -41 423 -86 q 371 37 389 4 q 490 34 431 35 q 568 33 548 33 q 595 41 588 35 q 603 62 603 47 l 603 175 l 207 175 l 207 325 l 603 325 l 603 429 l 50 429 l 50 579 l 603 579 l 603 677 l 258 677 l 258 734 q 223 709 241 722 q 186 684 205 696 q 131 746 166 711 q 65 799 96 780 q 300 979 205 878 q 447 1177 395 1080 l 624 1141 q 598 1102 611 1122 q 572 1063 586 1082 l 921 1063 l 947 1069 l 1065 987 q 1000 905 1037 949 q 924 821 963 861 l 1162 821 l 1162 579 l 1343 579 z "},"事":{"ha":1389,"x_min":56,"x_max":1336,"o":"m 1023 200 l 1023 265 l 774 265 l 774 200 l 1023 200 m 774 452 l 774 392 l 1023 392 l 1023 452 l 774 452 m 387 728 l 606 728 l 606 794 l 387 794 l 387 728 m 999 794 l 774 794 l 774 728 l 999 728 l 999 794 m 1336 392 l 1336 265 l 1192 265 l 1192 24 l 1023 24 l 1023 81 l 774 81 l 774 37 q 757 -54 774 -24 q 700 -102 741 -83 q 602 -121 661 -117 q 454 -125 543 -125 q 432 -58 448 -96 q 400 5 416 -20 q 469 3 433 4 q 532 3 504 3 q 571 3 559 3 q 598 12 591 4 q 606 37 606 19 l 606 81 l 183 81 l 183 200 l 606 200 l 606 265 l 56 265 l 56 392 l 606 392 l 606 452 l 195 452 l 195 562 l 606 562 l 606 624 l 229 624 l 229 899 l 606 899 l 606 956 l 87 956 l 87 1086 l 606 1086 l 606 1177 l 774 1177 l 774 1086 l 1304 1086 l 1304 956 l 774 956 l 774 899 l 1168 899 l 1168 624 l 774 624 l 774 562 l 1192 562 l 1192 392 l 1336 392 z "},"二":{"ha":1389,"x_min":78,"x_max":1311,"o":"m 193 986 l 1196 986 l 1196 804 l 193 804 l 193 986 m 78 184 l 1311 184 l 1311 -5 l 78 -5 l 78 184 z "},"于":{"ha":1389,"x_min":72,"x_max":1317,"o":"m 1317 639 l 1317 475 l 796 475 l 796 93 q 777 -23 796 16 q 707 -82 757 -62 q 582 -109 658 -103 q 403 -114 506 -114 q 375 -25 395 -77 q 334 61 354 26 q 435 57 385 58 q 523 56 485 56 q 578 57 562 56 q 611 66 601 58 q 621 94 621 74 l 621 475 l 72 475 l 72 639 l 621 639 l 621 924 l 167 924 l 167 1088 l 1222 1088 l 1222 924 l 796 924 l 796 639 l 1317 639 z "},"亏":{"ha":1389,"x_min":66,"x_max":1321,"o":"m 1231 1111 l 1231 957 l 160 957 l 160 1111 l 1231 1111 m 1321 629 l 567 629 q 545 530 556 581 q 524 433 534 480 l 1194 433 q 1193 408 1194 433 q 1189 366 1191 382 q 1167 149 1179 235 q 1137 13 1154 64 q 1095 -62 1120 -37 q 1021 -107 1061 -95 q 926 -122 981 -119 q 807 -123 882 -124 q 652 -119 732 -123 q 630 -40 649 -84 q 585 37 611 4 q 700 31 642 33 q 804 27 758 28 q 876 26 850 26 q 920 29 903 26 q 950 40 937 31 q 1014 283 994 72 l 297 283 q 341 446 319 354 q 379 629 363 538 l 66 629 l 66 783 l 1321 783 l 1321 629 z "},"云":{"ha":1389,"x_min":69,"x_max":1320,"o":"m 1177 1084 l 1177 916 l 227 916 l 227 1084 l 1177 1084 m 1320 526 l 682 526 q 551 322 621 421 q 410 140 481 224 l 964 174 q 897 274 930 224 q 832 368 863 323 l 983 447 q 1101 284 1041 371 q 1213 115 1161 197 q 1300 -33 1265 32 l 1139 -131 q 1105 -62 1124 -99 q 1061 16 1085 -25 q 709 -12 852 -1 q 474 -31 566 -23 q 328 -45 382 -39 q 243 -58 274 -52 q 189 -72 212 -64 q 173 -20 184 -54 q 149 50 162 14 q 125 113 136 86 q 179 144 154 121 q 239 205 205 167 q 292 273 258 226 q 366 387 326 321 q 446 526 407 452 l 69 526 l 69 699 l 1320 699 l 1320 526 z "},"互":{"ha":1389,"x_min":68,"x_max":1331,"o":"m 469 408 l 886 408 q 902 522 895 466 q 916 627 909 577 l 518 627 q 493 514 505 569 q 469 408 481 458 m 1007 75 l 1331 75 l 1331 -86 l 68 -86 l 68 75 l 835 75 q 848 163 841 118 q 863 254 855 208 l 245 254 q 301 468 272 347 q 358 717 331 589 q 406 962 385 846 l 110 962 l 110 1121 l 1289 1121 l 1289 962 l 586 962 q 568 872 576 918 q 551 781 559 827 l 950 781 l 978 787 l 1104 772 q 1078 554 1094 672 q 1043 312 1062 435 q 1007 75 1025 189 z "},"五":{"ha":1389,"x_min":79,"x_max":1318,"o":"m 908 488 l 653 488 q 617 288 635 385 q 583 109 600 192 l 873 109 q 893 303 884 203 q 908 488 902 402 m 1050 109 l 1318 109 l 1318 -56 l 79 -56 l 79 109 l 400 109 q 436 289 418 193 q 472 488 454 385 l 236 488 l 236 650 l 497 650 q 515 769 507 709 q 530 886 524 829 l 158 886 l 158 1050 l 1227 1050 l 1227 886 l 714 886 q 696 769 705 829 q 677 650 687 709 l 935 650 l 964 656 l 1096 646 q 1077 384 1090 524 q 1050 109 1065 243 z "},"井":{"ha":1389,"x_min":72,"x_max":1320,"o":"m 543 481 l 854 481 l 854 746 l 547 746 l 547 643 q 543 481 547 562 m 1320 481 l 1320 313 l 1031 313 l 1031 -122 l 854 -122 l 854 313 l 521 313 q 430 70 495 184 q 237 -134 366 -44 q 196 -91 222 -115 q 141 -46 170 -68 q 89 -11 113 -24 q 251 139 193 56 q 335 313 309 221 l 72 313 l 72 481 l 367 481 q 371 562 370 522 q 372 644 372 603 l 372 746 l 113 746 l 113 913 l 372 913 l 372 1171 l 547 1171 l 547 913 l 854 913 l 854 1174 l 1031 1174 l 1031 913 l 1283 913 l 1283 746 l 1031 746 l 1031 481 l 1320 481 z "},"亚":{"ha":1389,"x_min":49,"x_max":1336,"o":"m 608 936 l 608 106 l 768 106 l 768 936 l 608 936 m 949 106 l 1336 106 l 1336 -53 l 49 -53 l 49 106 l 428 106 l 428 936 l 96 936 l 96 1100 l 1299 1100 l 1299 936 l 949 936 l 949 315 q 1011 461 979 379 q 1070 629 1042 543 q 1116 794 1097 716 l 1278 742 q 1220 568 1251 656 q 1158 400 1190 480 q 1096 258 1126 321 l 949 310 l 949 106 m 98 737 l 244 791 q 311 627 277 715 q 375 456 345 538 q 422 311 405 373 l 262 243 q 220 392 248 307 q 161 568 193 477 q 98 737 129 659 z "},"些":{"ha":1389,"x_min":49,"x_max":1331,"o":"m 1136 444 l 950 444 q 826 464 869 444 q 765 531 782 484 q 749 660 749 578 l 749 1175 l 914 1175 l 914 933 q 1050 987 985 958 q 1165 1042 1116 1016 l 1289 911 q 1106 842 1204 875 q 914 783 1008 809 l 914 660 q 924 609 914 620 q 972 599 934 599 l 1121 599 q 1155 611 1143 599 q 1173 658 1167 623 q 1182 764 1179 694 q 1252 726 1208 744 q 1331 700 1296 708 q 1301 546 1322 602 q 1241 467 1280 490 q 1136 444 1202 444 m 228 203 l 228 361 l 1173 361 l 1173 203 l 228 203 m 704 628 l 708 478 q 480 449 595 463 q 258 423 365 435 q 65 400 152 410 l 49 564 l 125 571 l 125 1035 l 278 1035 l 278 585 l 357 593 l 357 1175 l 521 1175 l 521 966 l 693 966 l 693 819 l 521 819 l 521 608 l 704 628 m 68 -92 l 68 72 l 1321 72 l 1321 -92 l 68 -92 z "},"亡":{"ha":1389,"x_min":66,"x_max":1325,"o":"m 1325 728 l 425 728 l 425 115 l 1227 115 l 1227 -56 l 248 -56 l 248 728 l 66 728 l 66 889 l 659 889 q 622 1006 647 939 q 568 1128 596 1073 l 743 1181 q 806 1053 775 1122 q 851 932 838 983 l 715 889 l 1325 889 l 1325 728 z "},"亢":{"ha":1389,"x_min":40,"x_max":1356,"o":"m 1307 946 l 1307 787 l 83 787 l 83 946 l 652 946 q 615 1044 638 989 q 570 1146 592 1099 l 741 1200 q 794 1090 768 1150 q 833 989 820 1031 l 710 946 l 1307 946 m 1080 47 l 1154 47 q 1177 48 1166 47 q 1196 53 1187 50 q 1211 67 1204 57 q 1219 98 1217 77 q 1225 162 1223 117 q 1227 267 1227 206 q 1287 229 1251 247 q 1356 200 1323 210 q 1348 80 1354 140 q 1332 -8 1342 20 q 1264 -85 1314 -62 q 1212 -101 1243 -96 q 1154 -106 1181 -106 l 1038 -106 q 968 -97 1002 -106 q 908 -69 933 -88 q 869 -16 882 -50 q 856 100 856 18 l 856 510 l 538 510 l 538 456 q 522 298 538 380 q 464 138 505 217 q 345 -12 422 58 q 147 -134 269 -81 q 119 -87 138 -115 q 77 -34 99 -60 q 40 5 56 -8 q 215 105 150 51 q 313 220 280 160 q 356 341 346 280 q 367 461 367 403 l 367 665 l 1029 665 l 1029 106 q 1042 54 1029 61 q 1059 49 1049 50 q 1080 47 1069 47 z "},"交":{"ha":1389,"x_min":64,"x_max":1328,"o":"m 1303 1002 l 1303 840 l 85 840 l 85 1002 l 627 1002 q 593 1072 612 1036 q 555 1139 574 1107 l 714 1194 q 772 1096 742 1149 q 815 1003 802 1042 l 811 1002 l 1303 1002 m 827 743 l 957 836 q 1085 744 1017 795 q 1215 640 1154 692 q 1314 543 1276 587 l 1173 436 q 1080 534 1138 479 q 956 643 1023 588 q 827 743 888 698 m 414 828 l 574 766 q 464 645 526 705 q 334 533 401 585 q 205 443 267 481 q 167 483 191 460 q 118 528 143 506 q 75 564 94 550 q 200 638 137 595 q 318 729 262 680 q 414 828 374 778 m 876 589 l 1043 541 q 823 214 961 349 q 1049 104 924 149 q 1328 36 1175 59 q 1272 -35 1301 9 q 1227 -113 1243 -79 q 694 106 902 -51 q 450 -27 584 27 q 164 -119 317 -82 q 137 -73 154 -100 q 100 -18 119 -45 q 64 28 80 9 q 342 103 215 57 q 572 216 470 149 q 370 536 448 351 l 518 582 q 696 315 581 427 q 801 440 755 372 q 876 589 846 508 z "},"亥":{"ha":1389,"x_min":66,"x_max":1321,"o":"m 1084 602 l 1243 514 q 1111 356 1183 429 q 957 221 1039 283 q 1083 147 1019 186 q 1204 70 1147 109 q 1300 -1 1261 32 l 1146 -118 q 1054 -45 1109 -85 q 934 39 999 -4 q 806 121 869 82 q 504 -21 665 39 q 165 -121 343 -80 q 123 -41 150 -85 q 66 37 96 3 q 480 156 286 82 q 828 339 673 229 q 1084 602 983 449 m 827 1025 l 1321 1025 l 1321 864 l 659 864 q 583 778 622 822 q 507 696 543 734 l 833 714 q 913 811 879 762 l 1069 733 q 834 487 970 592 q 534 307 699 382 q 186 183 370 233 q 142 261 170 218 q 85 338 115 305 q 373 423 234 371 q 629 547 511 475 q 445 533 517 539 q 332 521 374 526 q 267 510 290 515 q 228 498 243 505 q 218 554 224 521 q 203 621 211 588 q 191 672 196 653 q 245 687 213 676 q 302 717 278 697 q 363 775 323 733 q 444 864 404 818 l 75 864 l 75 1025 l 623 1025 q 593 1084 609 1054 q 562 1140 578 1114 l 733 1192 q 782 1108 756 1153 q 827 1025 808 1063 z "},"亦":{"ha":1389,"x_min":50,"x_max":1329,"o":"m 1310 796 l 970 796 l 970 75 q 954 -28 970 8 q 895 -85 938 -65 q 790 -111 852 -106 q 643 -115 728 -115 q 623 -31 639 -79 q 590 53 607 18 q 699 51 646 51 q 768 50 751 50 q 793 56 786 50 q 800 78 800 61 l 800 796 l 640 796 l 640 659 q 629 468 640 570 q 583 261 618 366 q 477 57 548 156 q 289 -126 407 -43 q 232 -61 270 -98 q 163 -3 194 -24 q 330 154 268 69 q 422 327 392 238 q 463 502 453 416 q 472 661 472 587 l 472 796 l 81 796 l 81 960 l 647 960 q 609 1047 633 998 q 561 1137 585 1097 l 720 1190 q 777 1092 747 1147 q 823 999 807 1036 l 717 960 l 1310 960 l 1310 796 m 225 677 l 390 644 q 308 396 360 516 q 193 196 256 275 q 151 227 177 209 q 97 261 125 244 q 50 288 70 277 q 156 462 111 357 q 225 677 201 566 m 985 621 l 1128 684 q 1211 535 1170 614 q 1283 379 1252 456 q 1329 241 1315 302 l 1174 171 q 1132 309 1161 231 q 1064 468 1103 387 q 985 621 1025 550 z "},"产":{"ha":1389,"x_min":37,"x_max":1297,"o":"m 1297 654 l 1297 493 l 330 493 l 330 458 q 324 316 330 394 q 301 157 318 238 q 255 -1 285 75 q 176 -138 224 -77 q 137 -98 163 -121 q 84 -52 111 -74 q 37 -20 56 -30 q 118 137 92 52 q 150 307 143 222 q 157 463 157 392 l 157 654 l 443 654 q 398 739 425 692 q 345 823 372 785 l 463 875 l 146 875 l 146 1032 l 624 1032 q 594 1088 611 1060 q 561 1140 578 1116 l 732 1182 q 782 1107 758 1149 q 819 1032 806 1066 l 1268 1032 l 1268 875 l 497 875 q 560 785 528 833 q 607 699 591 736 l 509 654 l 831 654 q 887 762 859 700 q 933 873 916 823 l 1118 817 q 1060 732 1089 774 q 1004 654 1030 690 l 1297 654 z "},"亩":{"ha":1389,"x_min":83,"x_max":1307,"o":"m 610 586 l 334 586 l 334 428 l 610 428 l 610 586 m 1050 428 l 1050 586 l 774 586 l 774 428 l 1050 428 m 774 109 l 1050 109 l 1050 277 l 774 277 l 774 109 m 334 277 l 334 109 l 610 109 l 610 277 l 334 277 m 172 -121 l 172 745 l 1219 745 l 1219 -118 l 1050 -118 l 1050 -49 l 334 -49 l 334 -121 l 172 -121 m 815 1006 l 1307 1006 l 1307 843 l 83 843 l 83 1006 l 623 1006 q 592 1069 609 1037 q 559 1129 575 1101 l 718 1183 q 771 1094 743 1143 q 815 1006 799 1045 z "},"享":{"ha":1389,"x_min":69,"x_max":1320,"o":"m 1297 1074 l 1297 935 l 90 935 l 90 1074 l 602 1074 q 588 1117 595 1095 q 572 1157 581 1138 l 742 1186 q 767 1131 755 1160 q 787 1074 778 1102 l 1297 1074 m 415 758 l 415 681 l 974 681 l 974 758 l 415 758 m 1149 567 l 250 567 l 250 871 l 1149 871 l 1149 567 m 1320 271 l 1320 131 l 781 131 l 781 32 q 760 -59 781 -30 q 690 -104 739 -89 q 572 -119 642 -118 q 412 -121 503 -121 q 388 -52 404 -90 q 355 14 372 -14 q 441 12 396 12 q 521 11 486 12 q 568 11 556 11 q 596 18 589 12 q 604 39 604 23 l 604 131 l 69 131 l 69 271 l 604 271 l 604 329 l 606 329 l 604 330 q 692 353 648 340 q 779 382 736 366 l 205 382 l 205 511 l 1044 511 l 1079 519 l 1185 427 q 798 271 1012 334 l 1320 271 z "},"京":{"ha":1389,"x_min":58,"x_max":1305,"o":"m 293 286 l 456 227 q 323 57 398 143 q 179 -89 249 -28 q 120 -35 156 -65 q 58 16 84 -5 q 146 97 102 51 q 229 193 191 144 q 293 286 268 242 m 406 647 l 406 496 l 983 496 l 983 647 l 406 647 m 1158 354 l 787 354 l 787 50 q 772 -47 787 -12 q 708 -100 756 -82 q 601 -121 663 -118 q 454 -125 538 -125 q 433 -44 449 -89 q 401 35 418 1 q 474 33 437 33 q 542 33 512 33 q 582 33 571 33 q 606 38 600 33 q 612 56 612 42 l 612 354 l 240 354 l 240 789 l 1158 789 l 1158 354 m 924 205 l 1061 290 q 1148 196 1101 247 q 1236 95 1194 144 q 1304 5 1278 45 l 1158 -92 q 1095 0 1135 -52 q 1010 106 1056 52 q 924 205 965 160 m 817 1021 l 1305 1021 l 1305 859 l 82 859 l 82 1021 l 619 1021 q 589 1081 605 1051 q 559 1139 573 1112 l 722 1190 q 772 1105 745 1152 q 817 1021 798 1059 z "},"亭":{"ha":1389,"x_min":78,"x_max":1314,"o":"m 286 207 l 286 340 l 1101 340 l 1101 207 l 802 207 l 802 46 q 783 -49 802 -17 q 715 -97 765 -81 q 598 -117 667 -114 q 443 -119 530 -119 q 421 -42 437 -84 q 389 32 406 -1 q 468 29 427 30 q 542 28 509 28 q 587 28 575 28 q 613 34 606 28 q 621 53 621 39 l 621 207 l 286 207 m 79 248 l 79 529 l 1307 529 l 1307 248 l 1153 248 l 1153 406 l 227 406 l 227 248 l 79 248 m 954 699 l 954 775 l 429 775 l 429 699 l 954 699 m 264 884 l 1131 884 l 1131 590 l 264 590 l 264 884 m 796 1074 l 1314 1074 l 1314 939 l 78 939 l 78 1074 l 607 1074 q 587 1116 597 1095 q 568 1154 576 1137 l 729 1193 q 763 1134 745 1166 q 796 1074 781 1103 z "},"亮":{"ha":1389,"x_min":65,"x_max":1325,"o":"m 1318 1069 l 1318 935 l 68 935 l 68 1069 l 610 1069 q 593 1115 602 1091 q 574 1157 584 1138 l 742 1190 q 774 1130 758 1162 q 799 1069 790 1097 l 1318 1069 m 1303 258 l 1139 258 l 1139 400 l 240 400 l 240 256 l 85 256 l 85 525 l 1303 525 l 1303 258 m 954 690 l 954 768 l 431 768 l 431 690 l 954 690 m 265 876 l 1129 876 l 1129 582 l 265 582 l 265 876 m 1039 46 l 1132 46 q 1157 56 1149 46 q 1170 95 1166 66 q 1177 183 1174 125 q 1246 148 1202 165 q 1325 122 1291 131 q 1298 -11 1317 37 q 1244 -77 1279 -58 q 1150 -96 1208 -96 l 1008 -96 q 891 -78 932 -96 q 836 -21 851 -61 q 821 89 821 20 l 821 201 l 547 201 q 492 57 531 119 q 372 -48 452 -5 q 155 -119 292 -92 q 118 -46 145 -88 q 65 22 90 -4 q 237 65 173 39 q 332 127 300 90 q 375 215 363 164 q 390 336 387 267 l 997 336 l 997 90 q 1005 54 997 61 q 1039 46 1013 46 z "},"亲":{"ha":1389,"x_min":92,"x_max":1295,"o":"m 334 273 l 494 227 q 379 62 448 142 q 244 -71 310 -18 q 203 -38 229 -57 q 152 -2 178 -20 q 107 28 126 16 q 235 139 174 73 q 334 273 296 205 m 876 205 l 1015 285 q 1104 198 1057 245 q 1191 104 1150 151 q 1257 18 1232 57 l 1108 -71 q 1047 15 1086 -33 q 964 114 1008 64 q 876 205 919 164 m 1295 554 l 786 554 l 786 449 l 1274 449 l 1274 304 l 786 304 l 786 46 q 771 -46 786 -14 q 715 -96 757 -78 q 620 -117 675 -113 q 489 -121 564 -121 q 467 -45 483 -86 q 436 29 452 -3 q 528 27 482 27 q 589 26 574 26 q 610 32 604 27 q 616 50 616 37 l 616 304 l 129 304 l 129 449 l 616 449 l 616 554 l 92 554 l 92 697 l 396 697 q 365 772 382 732 q 329 846 347 812 l 469 880 l 165 880 l 165 1018 l 612 1018 q 567 1141 593 1081 l 732 1181 q 770 1100 751 1144 q 799 1018 788 1057 l 1240 1018 l 1240 880 l 482 880 q 530 788 507 839 q 567 697 553 738 l 832 697 q 868 787 850 739 q 897 872 886 835 l 1067 842 q 1031 768 1049 804 q 997 697 1014 732 l 1295 697 l 1295 554 z "},"人":{"ha":1389,"x_min":43,"x_max":1356,"o":"m 586 1175 l 777 1175 q 773 1076 775 1131 q 766 958 771 1021 q 784 840 772 911 q 821 683 796 769 q 887 506 845 597 q 992 326 928 414 q 1145 162 1055 238 q 1356 33 1234 87 q 1284 -36 1317 3 q 1235 -110 1251 -75 q 974 72 1080 -36 q 800 304 868 180 q 692 547 732 428 q 589 304 654 425 q 425 75 525 183 q 180 -118 325 -33 q 122 -48 159 -85 q 43 17 85 -12 q 279 190 184 92 q 433 398 374 288 q 524 621 492 509 q 568 838 555 733 q 583 1029 581 942 q 586 1175 585 1116 z "},"亿":{"ha":1389,"x_min":28,"x_max":1326,"o":"m 345 1171 l 500 1124 q 374 846 448 983 l 374 -119 l 212 -119 l 212 595 q 164 535 189 564 q 117 481 140 507 q 94 533 109 500 q 60 599 78 566 q 28 652 42 631 q 150 798 90 714 q 260 977 210 881 q 345 1171 310 1072 m 789 79 l 1083 79 q 1137 97 1118 79 q 1167 171 1157 115 q 1181 336 1177 226 q 1252 303 1213 319 q 1326 283 1292 288 q 1302 98 1319 170 q 1256 -12 1286 26 q 1181 -66 1227 -51 q 1071 -81 1136 -81 l 794 -81 q 569 -22 640 -81 q 498 134 498 37 q 506 197 498 163 q 538 283 513 232 q 617 415 564 335 q 761 613 670 494 q 993 903 852 732 l 538 903 l 538 1059 l 1153 1059 l 1190 1064 l 1295 1008 q 1285 995 1291 1002 q 1274 982 1280 988 q 1029 695 1131 817 q 861 488 928 574 q 754 345 793 402 q 695 251 714 288 q 670 192 675 214 q 664 151 664 169 q 697 96 664 113 q 789 79 730 79 z "},"什":{"ha":1389,"x_min":37,"x_max":1332,"o":"m 357 1173 l 514 1122 q 458 989 488 1057 q 393 857 429 922 l 393 -118 l 231 -118 l 231 599 q 179 532 205 564 q 126 473 153 500 q 103 526 119 494 q 70 592 87 559 q 37 644 52 625 q 162 793 102 708 q 272 975 222 878 q 357 1173 322 1072 m 1332 718 l 1332 555 l 990 555 l 990 -121 l 818 -121 l 818 555 l 461 555 l 461 718 l 818 718 l 818 1156 l 990 1156 l 990 718 l 1332 718 z "},"仁":{"ha":1389,"x_min":26,"x_max":1341,"o":"m 1287 956 l 1287 779 l 558 779 l 558 956 l 1287 956 m 371 1171 l 536 1118 q 474 976 508 1047 q 400 836 439 905 l 400 -118 l 233 -118 l 233 587 q 123 461 179 517 q 97 515 115 482 q 60 581 79 548 q 26 636 41 614 q 159 785 95 699 q 278 969 224 871 q 371 1171 332 1068 m 482 139 l 1341 139 l 1341 -37 l 482 -37 l 482 139 z "},"仅":{"ha":1389,"x_min":22,"x_max":1365,"o":"m 371 1168 l 536 1116 q 473 972 507 1044 q 397 831 438 901 l 397 -119 l 233 -119 l 233 587 q 176 519 205 551 q 118 458 147 488 q 93 513 110 479 q 56 579 75 546 q 22 633 37 612 q 157 782 92 697 q 277 966 222 867 q 371 1168 332 1065 m 1108 876 l 700 876 q 782 611 731 734 q 903 383 832 488 q 1025 607 974 484 q 1108 876 1077 730 m 1185 1038 l 1292 1003 q 1187 575 1258 761 q 1011 252 1116 389 q 1170 121 1082 178 q 1365 26 1258 64 q 1307 -38 1338 3 q 1258 -111 1276 -79 q 1062 -9 1151 -68 q 899 125 972 50 q 724 -14 819 47 q 522 -119 629 -74 q 479 -48 507 -88 q 425 16 451 -7 q 623 113 530 54 q 794 253 716 172 q 647 528 708 374 q 543 860 587 681 l 619 876 l 519 876 l 519 1031 l 1156 1031 l 1185 1038 z "},"仆":{"ha":1389,"x_min":31,"x_max":1352,"o":"m 368 1173 l 532 1118 q 400 838 477 978 l 400 -118 l 231 -118 l 231 581 q 178 517 205 547 q 125 460 152 487 q 101 516 117 481 q 65 585 84 551 q 31 642 46 620 q 161 790 98 705 q 278 972 224 875 q 368 1173 331 1070 m 892 729 l 970 812 q 1065 726 1013 772 q 1172 632 1118 680 q 1273 540 1225 584 q 1352 461 1320 496 l 1227 321 q 1135 421 1192 364 q 1014 539 1078 478 q 892 656 949 600 l 892 -117 l 711 -117 l 711 1161 l 892 1161 l 892 729 z "},"仇":{"ha":1389,"x_min":29,"x_max":1354,"o":"m 338 1173 l 493 1124 q 434 979 466 1052 q 364 836 401 907 l 364 -119 l 200 -119 l 200 579 q 160 528 180 552 q 119 482 139 504 q 95 534 111 501 q 61 600 79 567 q 29 652 43 632 q 148 798 90 715 q 255 977 206 882 q 338 1173 303 1073 m 1152 53 l 1183 53 q 1206 58 1198 53 q 1214 72 1211 62 q 1219 103 1217 82 q 1222 167 1221 123 q 1223 268 1223 211 q 1285 228 1249 248 q 1354 197 1321 208 q 1348 85 1353 142 q 1335 0 1342 28 q 1314 -46 1327 -28 q 1282 -78 1301 -65 q 1239 -95 1264 -90 q 1192 -100 1215 -100 l 1103 -100 q 1046 -91 1075 -100 q 997 -62 1017 -81 q 975 -30 983 -49 q 961 21 966 -12 q 957 110 957 54 l 957 710 l 799 710 q 759 377 788 532 q 666 95 729 222 q 492 -127 603 -33 q 437 -58 473 -96 q 371 -1 402 -20 q 522 187 468 80 q 601 425 576 294 q 633 710 626 556 l 436 710 l 436 871 l 639 871 q 640 1018 640 942 q 640 1173 640 1093 l 807 1173 q 807 1018 807 1094 q 804 871 806 943 l 1125 871 l 1125 114 q 1126 77 1125 91 q 1131 60 1126 64 q 1152 53 1136 53 z "},"今":{"ha":1389,"x_min":39,"x_max":1350,"o":"m 1067 505 l 1096 514 l 1226 452 q 1091 266 1166 366 q 937 64 1016 165 q 783 -129 857 -37 l 612 -50 q 772 143 688 39 q 926 338 856 247 l 218 338 l 218 505 l 764 505 q 652 607 718 553 q 530 704 587 661 l 637 808 q 733 739 682 777 q 832 662 785 700 q 909 593 880 624 l 823 505 l 1067 505 m 667 1192 l 832 1116 q 817 1094 825 1105 q 803 1074 810 1084 q 963 935 871 1004 q 1155 807 1055 866 q 1350 708 1255 749 q 1280 636 1318 682 q 1221 555 1242 590 q 1044 663 1135 601 q 866 799 954 726 q 704 951 779 873 q 451 719 589 822 q 167 541 313 616 q 111 619 146 576 q 39 694 75 662 q 279 822 161 747 q 497 990 397 897 q 667 1192 598 1084 z "},"介":{"ha":1389,"x_min":25,"x_max":1371,"o":"m 355 452 l 355 604 l 530 604 l 530 447 q 521 302 530 378 q 481 152 511 227 q 389 6 450 76 q 225 -122 328 -64 q 161 -56 203 -93 q 86 1 119 -20 q 231 105 177 50 q 312 221 286 161 q 347 339 338 280 q 355 452 355 397 m 878 -121 l 878 607 l 1054 607 l 1054 -121 l 878 -121 m 686 1194 l 821 1100 q 808 1081 814 1090 q 794 1063 802 1072 q 946 926 857 989 q 1144 814 1036 863 q 1371 737 1253 765 q 1328 692 1351 720 q 1285 635 1305 665 q 1253 582 1265 606 q 943 725 1086 632 q 693 942 800 819 q 524 790 616 862 q 330 660 431 718 q 126 562 229 602 q 81 643 110 597 q 25 722 53 689 q 285 834 157 762 q 518 1001 413 907 q 686 1194 623 1094 z "},"仍":{"ha":1389,"x_min":24,"x_max":1301,"o":"m 293 1174 l 444 1129 q 396 993 422 1061 q 340 860 370 925 l 340 -119 l 182 -119 l 182 571 q 142 516 162 543 q 104 467 123 490 q 84 521 98 487 q 53 589 70 555 q 24 644 37 624 q 129 794 79 709 q 222 977 180 880 q 293 1174 264 1074 m 1059 700 l 1301 700 q 1301 687 1301 700 q 1300 657 1301 674 q 1299 629 1299 640 q 1278 272 1289 410 q 1251 61 1266 135 q 1211 -41 1235 -12 q 1157 -87 1185 -74 q 1090 -107 1130 -100 q 1005 -112 1057 -112 q 896 -110 953 -112 q 880 -28 894 -75 q 844 50 866 18 q 945 44 899 46 q 1015 43 991 43 q 1047 47 1034 43 q 1071 64 1059 52 q 1097 134 1086 81 q 1118 288 1109 187 q 1135 550 1127 389 l 868 550 q 912 727 889 626 q 954 932 935 829 l 760 932 q 745 640 756 787 q 706 355 734 494 q 626 94 679 217 q 486 -126 573 -28 q 429 -61 465 -95 q 359 -8 393 -27 q 483 185 438 77 q 550 417 528 294 q 579 671 572 541 q 587 932 586 802 l 460 932 l 460 1082 l 1139 1082 q 1101 890 1122 991 q 1059 700 1079 789 z "},"从":{"ha":1389,"x_min":37,"x_max":1352,"o":"m 730 351 l 606 231 q 538 351 581 283 q 446 486 496 418 q 353 151 412 302 q 201 -113 294 0 q 156 -75 186 -98 q 93 -31 125 -53 q 37 3 60 -9 q 208 292 148 118 q 294 685 269 465 q 328 1157 320 904 l 510 1152 q 476 696 501 908 q 575 581 526 642 q 665 460 625 519 q 730 351 705 400 m 863 1157 l 1046 1150 q 1030 919 1040 1030 q 1007 704 1021 807 q 1054 528 1025 620 q 1124 348 1083 436 q 1222 184 1166 260 q 1352 58 1278 109 q 1309 16 1333 42 q 1262 -40 1284 -11 q 1227 -94 1240 -70 q 1057 116 1126 -9 q 942 374 987 240 q 837 103 900 224 q 682 -111 774 -18 q 637 -75 667 -97 q 574 -31 607 -53 q 518 4 541 -9 q 718 286 646 115 q 821 676 789 456 q 863 1157 852 897 z "},"仑":{"ha":1389,"x_min":45,"x_max":1365,"o":"m 682 1186 l 829 1118 q 800 1074 815 1093 q 961 935 867 1004 q 1159 809 1055 867 q 1365 715 1264 752 q 1300 645 1335 689 q 1243 570 1264 602 q 1056 672 1152 612 q 871 806 960 733 q 707 958 781 879 q 542 802 631 874 q 357 669 454 729 l 476 669 l 476 424 q 743 529 616 471 q 958 648 871 588 l 1108 526 q 809 383 976 448 q 476 268 643 318 l 476 149 q 485 100 476 116 q 521 79 494 84 q 602 74 548 74 l 928 74 q 1001 89 977 74 q 1036 149 1025 104 q 1053 283 1046 194 q 1128 245 1082 264 q 1210 220 1175 227 q 1172 37 1198 102 q 1090 -56 1145 -29 q 937 -82 1036 -82 l 593 -82 q 422 -62 484 -82 q 335 8 360 -42 q 310 147 310 58 l 310 642 q 157 564 232 596 q 107 636 138 596 q 45 705 77 676 q 290 824 170 753 q 512 986 411 895 q 682 1186 614 1078 z "},"仓":{"ha":1389,"x_min":33,"x_max":1360,"o":"m 425 689 l 999 689 q 700 942 839 793 q 571 807 641 870 q 425 689 502 743 m 661 1182 l 819 1114 q 806 1089 813 1101 q 791 1065 799 1078 q 1052 847 910 935 q 1360 694 1194 759 q 1296 626 1327 667 q 1249 549 1264 585 q 1159 593 1203 570 q 1075 642 1116 616 l 1074 621 q 1062 425 1069 502 q 1044 304 1055 349 q 1015 239 1033 260 q 962 201 991 212 q 897 187 932 191 q 810 183 864 183 q 697 186 757 183 q 685 259 696 218 q 659 332 673 300 q 755 325 711 327 q 819 323 800 323 q 869 339 856 323 q 888 397 881 353 q 900 532 896 442 l 468 532 l 468 150 q 477 99 468 116 q 515 76 486 82 q 600 71 543 71 l 936 71 q 1011 84 985 71 q 1047 138 1036 98 q 1065 257 1059 178 q 1144 219 1095 237 q 1231 193 1193 200 q 1190 19 1218 81 q 1105 -68 1162 -43 q 947 -93 1048 -93 l 590 -93 q 411 -73 476 -93 q 319 0 346 -52 q 292 149 292 53 l 292 603 q 222 565 257 583 q 150 529 186 546 q 99 605 132 564 q 33 676 66 646 q 280 800 161 726 q 498 970 399 874 q 661 1182 596 1066 z "},"仔":{"ha":1389,"x_min":33,"x_max":1343,"o":"m 339 1173 l 494 1125 q 432 971 467 1048 q 357 821 397 895 l 357 -119 l 199 -119 l 199 574 q 160 526 180 549 q 122 482 141 503 q 99 535 115 502 q 65 600 83 568 q 33 653 47 633 q 152 800 94 716 q 258 978 210 883 q 339 1173 306 1074 m 1343 583 l 1343 424 l 987 424 l 987 75 q 970 -31 987 6 q 907 -87 953 -68 q 793 -111 862 -106 q 633 -115 725 -115 q 611 -31 627 -79 q 576 52 594 17 q 662 49 619 50 q 739 48 705 48 q 785 49 772 48 q 812 55 804 50 q 821 78 821 61 l 821 424 l 447 424 l 447 583 l 821 583 l 821 774 q 927 844 873 804 q 1029 926 981 884 l 533 926 l 533 1080 l 1179 1080 l 1210 1089 l 1324 1007 q 1167 849 1257 928 q 987 708 1078 770 l 987 583 l 1343 583 z "},"他":{"ha":1389,"x_min":22,"x_max":1350,"o":"m 339 1173 l 492 1122 q 363 843 437 981 l 363 -118 l 199 -118 l 199 589 q 111 485 155 530 q 88 535 104 503 q 54 600 72 568 q 22 652 36 632 q 145 798 85 714 q 254 977 204 881 q 339 1173 304 1073 m 812 49 l 1093 49 q 1155 64 1134 49 q 1186 120 1176 79 q 1203 239 1196 161 q 1274 202 1230 220 q 1350 175 1317 183 q 1316 12 1339 72 q 1242 -74 1292 -48 q 1105 -100 1193 -100 l 799 -100 q 644 -78 699 -100 q 567 -4 589 -57 q 545 144 545 50 l 545 524 l 440 484 l 376 629 l 545 694 l 545 1022 l 708 1022 l 708 758 l 843 811 l 843 1171 l 997 1171 l 997 871 l 1136 925 l 1189 962 l 1301 920 l 1296 895 q 1292 592 1295 713 q 1283 425 1290 471 q 1259 344 1278 373 q 1204 300 1240 315 q 1129 282 1174 286 q 1048 281 1085 279 q 1037 360 1046 315 q 1013 432 1027 405 q 1061 430 1036 431 q 1097 429 1086 429 q 1120 435 1112 429 q 1133 463 1128 441 q 1139 552 1137 480 q 1141 760 1141 623 l 997 703 l 997 208 l 843 208 l 843 642 l 708 589 l 708 144 q 715 82 708 103 q 745 55 723 62 q 812 49 768 49 z "},"仗":{"ha":1389,"x_min":20,"x_max":1353,"o":"m 371 1168 l 532 1116 q 397 840 476 979 l 397 -119 l 233 -119 l 233 595 q 175 524 204 557 q 115 461 146 491 q 89 515 106 482 q 53 581 72 548 q 20 633 34 613 q 155 783 90 697 q 276 967 221 868 q 371 1168 332 1065 m 1337 734 l 1078 734 q 1051 474 1076 609 q 950 212 1026 338 q 1353 24 1102 77 q 1295 -47 1324 -3 q 1249 -125 1265 -91 q 846 79 1001 -62 q 716 -30 789 21 q 549 -125 644 -81 q 517 -80 538 -106 q 475 -29 497 -54 q 435 11 452 -4 q 604 103 532 54 q 726 210 675 153 q 615 410 662 299 q 534 653 569 520 l 685 684 q 743 503 709 587 q 828 349 778 419 q 893 544 878 444 q 911 734 909 643 l 469 734 l 469 893 l 911 893 l 911 1161 l 1078 1161 l 1078 893 l 1337 893 l 1337 734 z "},"付":{"ha":1389,"x_min":39,"x_max":1341,"o":"m 371 1169 l 534 1117 q 474 977 507 1047 q 403 836 441 906 l 403 -118 l 233 -118 l 233 578 q 185 519 210 547 q 136 467 160 492 q 110 520 127 487 q 73 586 92 553 q 39 639 54 618 q 167 787 105 702 q 282 969 229 871 q 371 1169 334 1067 m 1341 878 l 1341 711 l 1189 711 l 1189 81 q 1168 -38 1189 1 q 1097 -94 1147 -76 q 967 -119 1046 -114 q 772 -122 887 -123 q 746 -39 765 -87 q 708 41 727 9 q 816 39 762 39 q 912 38 870 38 q 970 39 954 38 q 1006 48 996 39 q 1017 81 1017 58 l 1017 711 l 488 711 l 488 878 l 1017 878 l 1017 1161 l 1189 1161 l 1189 878 l 1341 878 m 888 290 l 730 210 q 682 310 713 252 q 616 429 651 368 q 550 543 581 490 l 697 611 q 765 502 728 560 q 834 387 801 443 q 888 290 867 332 z "},"仙":{"ha":1389,"x_min":33,"x_max":1283,"o":"m 339 1171 l 493 1124 q 431 972 465 1048 q 358 823 397 897 l 358 -119 l 201 -119 l 201 576 q 122 481 162 524 q 99 533 115 500 q 65 599 83 566 q 33 652 47 631 q 151 799 94 715 q 257 978 208 882 q 339 1171 305 1073 m 1117 861 l 1283 861 l 1283 -118 l 1117 -118 l 1117 -43 l 486 -43 l 486 851 l 648 851 l 648 110 l 796 110 l 796 1152 l 962 1152 l 962 110 l 1117 110 l 1117 861 z "},"代":{"ha":1389,"x_min":17,"x_max":1353,"o":"m 1317 943 l 1183 857 q 1135 930 1166 890 q 1067 1013 1104 971 q 993 1090 1029 1055 l 1117 1166 q 1192 1094 1154 1133 q 1264 1015 1231 1055 q 1317 943 1297 976 m 396 1165 l 554 1114 q 495 986 527 1050 q 425 859 463 922 l 425 -118 l 253 -118 l 253 611 q 182 528 218 568 q 109 456 146 489 q 84 507 100 475 q 50 571 68 539 q 17 624 31 604 q 163 774 92 688 q 294 961 234 861 q 396 1165 354 1061 m 1337 667 l 935 611 q 985 341 954 457 q 1060 157 1017 224 q 1158 83 1103 90 q 1196 135 1182 81 q 1218 304 1210 189 q 1259 268 1234 286 q 1311 234 1285 249 q 1353 210 1337 218 q 1306 4 1335 76 q 1241 -94 1277 -68 q 1165 -118 1204 -120 q 969 -19 1048 -107 q 844 223 891 68 q 771 589 796 377 l 497 551 l 473 711 l 754 749 q 741 944 747 842 q 732 1156 735 1046 l 900 1156 q 906 956 902 1053 q 918 771 911 859 l 1314 822 l 1337 667 z "},"令":{"ha":1389,"x_min":37,"x_max":1367,"o":"m 1101 554 l 1227 481 q 1053 300 1149 397 q 860 109 956 202 q 938 58 901 82 q 1003 12 975 35 l 876 -131 q 780 -58 838 -98 q 656 24 723 -18 q 522 106 590 66 q 396 179 454 146 l 511 304 q 609 252 556 280 q 715 193 661 223 q 814 290 764 241 q 909 386 865 339 l 224 386 l 224 546 l 728 546 q 643 643 696 589 q 543 739 591 696 l 660 835 q 732 772 694 806 q 805 704 771 738 q 861 642 840 669 l 750 546 l 1074 546 l 1101 554 m 703 1189 l 856 1108 q 834 1084 845 1096 q 814 1060 824 1072 q 978 938 885 998 q 1171 828 1070 878 q 1367 745 1272 778 q 1299 673 1335 718 q 1242 595 1263 628 q 1060 690 1154 634 q 876 813 966 746 q 708 951 785 880 q 444 747 587 839 q 155 587 300 654 q 104 661 136 620 q 37 733 72 702 q 286 851 161 781 q 520 1006 411 920 q 703 1189 629 1093 z "},"以":{"ha":1389,"x_min":98,"x_max":1358,"o":"m 846 720 l 696 628 q 646 730 678 672 q 576 847 614 787 q 498 956 537 906 l 640 1035 q 720 929 680 985 q 793 818 760 872 q 846 720 826 763 m 382 309 l 646 441 q 665 358 652 404 q 689 283 678 311 q 449 156 541 205 q 306 76 357 106 q 229 27 254 45 q 189 -5 204 9 q 165 38 181 13 q 132 88 150 64 q 98 126 113 112 q 142 162 118 139 q 184 217 166 185 q 201 285 201 248 l 201 1082 l 382 1082 l 382 309 m 1358 -5 l 1213 -115 q 1113 23 1176 -56 q 979 178 1049 102 q 826 7 915 83 q 618 -126 736 -69 q 584 -82 607 -109 q 536 -27 562 -54 q 492 18 511 1 q 749 179 648 81 q 908 412 850 277 q 992 723 966 547 q 1028 1118 1019 899 l 1204 1109 q 1160 674 1193 868 q 1063 329 1128 480 q 1173 215 1117 274 q 1278 98 1230 155 q 1358 -5 1327 41 z "},"仪":{"ha":1389,"x_min":21,"x_max":1356,"o":"m 1013 889 l 873 814 q 842 897 863 850 q 794 995 821 945 q 741 1088 768 1044 l 871 1153 q 927 1065 899 1112 q 978 971 955 1017 q 1013 889 1001 925 m 338 1173 l 493 1122 q 433 979 466 1051 q 361 836 399 907 l 361 -118 l 203 -118 l 203 590 q 157 533 180 560 q 111 481 134 505 q 88 534 104 501 q 54 600 72 567 q 21 653 35 633 q 143 799 84 715 q 253 977 203 882 q 338 1173 302 1073 m 1126 1093 l 1292 1067 q 1182 630 1251 836 q 989 258 1113 425 q 1153 122 1062 181 q 1356 21 1243 62 q 1292 -47 1326 -4 q 1239 -123 1257 -90 q 1036 -14 1127 -77 q 872 125 945 48 q 699 -11 795 51 q 485 -122 604 -73 q 438 -56 468 -94 q 385 7 409 -18 q 601 114 505 53 q 772 250 697 175 q 599 609 665 408 q 492 1051 533 810 l 650 1075 q 738 701 682 875 q 886 389 794 528 q 1042 715 986 537 q 1126 1093 1097 894 z "},"们":{"ha":1389,"x_min":36,"x_max":1296,"o":"m 283 1173 l 436 1128 q 387 978 414 1054 q 328 828 360 903 l 328 -119 l 171 -119 l 171 532 q 144 494 157 512 q 117 458 130 476 q 97 512 111 479 q 66 580 83 546 q 36 635 50 614 q 134 788 87 701 q 219 973 180 875 q 283 1173 257 1072 m 440 -118 l 440 872 l 602 872 l 602 -118 l 440 -118 m 501 1105 l 627 1179 q 689 1091 656 1138 q 751 998 722 1044 q 798 918 780 953 l 663 833 q 620 917 647 869 q 562 1014 593 964 q 501 1105 530 1063 m 1296 1131 l 1296 61 q 1280 -35 1296 -1 q 1226 -87 1265 -68 q 1132 -112 1189 -107 q 993 -117 1074 -117 q 973 -40 988 -84 q 942 36 958 5 q 1038 33 991 33 q 1101 33 1084 33 q 1132 64 1132 33 l 1132 982 l 796 982 l 796 1131 l 1296 1131 z "},"仰":{"ha":1389,"x_min":25,"x_max":1296,"o":"m 297 1178 l 450 1132 q 402 995 428 1064 q 345 860 376 926 l 345 -119 l 187 -119 l 187 574 q 146 515 168 543 q 106 464 125 488 q 85 517 99 484 q 55 586 71 551 q 25 642 38 620 q 181 883 109 741 q 297 1178 254 1025 m 607 298 l 791 359 q 797 288 791 328 q 807 221 802 247 q 650 161 711 185 q 555 121 590 136 q 504 95 521 105 q 475 75 486 84 q 454 112 468 91 q 424 153 439 134 q 397 183 408 173 q 438 236 417 201 q 460 326 460 272 l 460 1028 q 623 1087 540 1053 q 765 1154 707 1122 l 872 1032 q 742 983 811 1006 q 607 940 673 960 l 607 298 m 1296 1006 l 1296 265 q 1285 178 1296 213 q 1240 122 1274 143 q 1166 97 1209 102 q 1064 92 1122 92 q 1044 171 1060 125 q 1011 249 1028 218 q 1077 248 1046 248 q 1118 249 1107 248 q 1139 269 1139 249 l 1139 860 l 997 860 l 997 -121 l 838 -121 l 838 1006 l 1296 1006 z "},"仲":{"ha":1389,"x_min":31,"x_max":1305,"o":"m 338 1173 l 493 1124 q 358 825 437 973 l 358 -121 l 201 -121 l 201 579 q 160 528 180 552 q 119 481 139 503 q 96 533 112 500 q 62 599 80 566 q 31 653 45 632 q 149 799 91 715 q 255 977 206 882 q 338 1173 303 1073 m 958 472 l 1141 472 l 1141 745 l 958 745 l 958 472 m 614 472 l 793 472 l 793 745 l 614 745 l 614 472 m 958 899 l 1305 899 l 1305 249 l 1141 249 l 1141 319 l 958 319 l 958 -121 l 793 -121 l 793 319 l 614 319 l 614 237 l 458 237 l 458 899 l 793 899 l 793 1158 l 958 1158 l 958 899 z "},"件":{"ha":1389,"x_min":31,"x_max":1337,"o":"m 339 1171 l 496 1121 q 434 972 468 1047 q 359 825 399 897 l 359 -119 l 203 -119 l 203 579 q 161 528 182 553 q 119 479 140 502 q 96 533 112 500 q 62 598 80 566 q 31 652 45 631 q 150 798 92 714 q 256 977 208 881 q 339 1171 305 1072 m 1337 507 l 1337 346 l 982 346 l 982 -121 l 815 -121 l 815 346 l 440 346 l 440 507 l 815 507 l 815 746 l 646 746 q 605 649 627 695 q 559 567 583 603 q 518 593 545 578 q 465 623 492 608 q 416 646 437 637 q 486 774 454 700 q 541 931 517 848 q 581 1100 565 1015 l 741 1067 q 722 986 732 1026 q 700 907 711 947 l 815 907 l 815 1158 l 982 1158 l 982 907 l 1272 907 l 1272 746 l 982 746 l 982 507 l 1337 507 z "},"价":{"ha":1389,"x_min":36,"x_max":1357,"o":"m 593 428 l 593 615 l 761 615 l 761 425 q 752 292 761 363 q 719 145 743 220 q 647 0 694 71 q 524 -132 600 -71 q 468 -71 504 -105 q 401 -17 433 -37 q 506 89 467 31 q 563 208 545 147 q 587 326 582 269 q 593 428 593 383 m 971 -118 l 971 618 l 1141 618 l 1141 -118 l 971 -118 m 804 1179 l 978 1150 q 965 1118 972 1133 q 950 1086 958 1103 q 1061 933 996 1008 q 1202 797 1126 859 q 1357 694 1278 735 q 1297 631 1331 671 q 1243 562 1263 591 q 1042 723 1138 625 q 871 935 946 820 q 697 723 800 822 q 452 543 594 623 q 415 605 440 570 q 367 665 391 640 l 367 -119 l 200 -119 l 200 574 q 162 527 181 549 q 125 484 144 504 q 101 537 117 504 q 68 602 85 570 q 36 656 50 635 q 155 802 97 718 q 261 981 212 885 q 343 1175 309 1076 l 498 1126 q 439 979 473 1053 q 367 835 406 905 l 367 688 q 651 915 547 785 q 804 1179 756 1046 z "},"任":{"ha":1389,"x_min":24,"x_max":1336,"o":"m 1336 440 l 989 440 l 989 85 l 1322 85 l 1322 -74 l 500 -74 l 500 85 l 821 85 l 821 440 l 444 440 l 444 600 l 821 600 l 821 908 q 675 886 748 896 q 532 868 602 876 q 513 938 527 899 q 485 1006 498 977 q 444 921 466 963 q 399 839 422 880 l 399 -119 l 233 -119 l 233 591 q 178 524 205 556 q 121 464 150 492 q 95 517 113 484 q 58 583 77 550 q 24 637 38 616 q 158 787 93 701 q 278 971 223 872 q 371 1173 332 1069 l 534 1121 q 512 1065 524 1093 q 486 1010 500 1038 q 739 1048 611 1025 q 981 1098 867 1071 q 1182 1157 1096 1126 l 1303 1018 q 1153 974 1232 994 q 989 939 1074 954 l 989 600 l 1336 600 l 1336 440 z "},"份":{"ha":1389,"x_min":26,"x_max":1367,"o":"m 332 1171 l 488 1124 q 429 978 460 1050 q 359 838 397 906 l 359 -121 l 196 -121 l 196 575 q 156 526 176 550 q 117 479 136 501 q 93 533 109 500 q 59 598 77 566 q 26 652 41 631 q 145 798 87 714 q 250 977 202 881 q 332 1171 298 1072 m 929 1121 l 1078 1147 q 1143 937 1105 1025 q 1235 780 1181 848 q 1367 656 1290 713 q 1304 592 1335 629 q 1257 515 1272 554 q 1227 540 1241 528 q 1198 566 1213 553 q 1182 240 1191 365 q 1159 48 1173 115 q 1125 -45 1146 -19 q 1076 -87 1102 -75 q 1017 -106 1050 -100 q 944 -111 989 -111 q 850 -110 899 -112 q 835 -33 848 -75 q 804 41 823 10 q 881 37 846 37 q 935 36 916 36 q 962 39 951 36 q 982 56 972 43 q 1004 118 994 71 q 1021 258 1014 166 q 1035 497 1029 350 l 851 497 q 748 118 825 270 q 513 -125 670 -33 q 482 -86 502 -109 q 440 -40 462 -62 q 401 -3 418 -17 q 606 192 541 67 q 688 497 671 316 l 562 497 l 564 581 q 523 537 544 557 q 481 500 503 517 q 455 548 472 519 q 419 606 438 577 q 385 652 400 634 q 559 859 487 732 q 668 1137 631 987 l 829 1103 q 742 861 795 977 q 619 650 689 745 l 1122 650 q 1006 854 1051 740 q 929 1121 962 968 z "},"仿":{"ha":1389,"x_min":29,"x_max":1341,"o":"m 339 1179 l 497 1129 q 434 978 469 1054 q 361 831 399 903 l 361 -118 l 200 -118 l 200 579 q 160 530 180 554 q 121 485 140 507 q 97 538 113 505 q 62 605 81 572 q 29 660 44 639 q 149 806 91 722 q 256 985 207 889 q 339 1179 305 1080 m 1341 777 l 838 777 q 829 632 836 705 l 1267 632 q 1266 606 1267 632 q 1263 564 1265 580 q 1244 241 1254 366 q 1219 51 1234 117 q 1181 -41 1204 -16 q 1125 -85 1154 -73 q 1055 -102 1095 -97 q 971 -107 1024 -106 q 861 -106 918 -108 q 845 -28 859 -71 q 810 47 831 15 q 908 41 863 42 q 978 40 954 40 q 1031 60 1013 39 q 1056 120 1045 75 q 1075 253 1067 166 q 1089 478 1083 340 l 812 478 q 760 248 795 357 q 661 45 724 139 q 494 -122 597 -49 q 441 -59 475 -93 q 375 -4 406 -25 q 525 147 469 62 q 607 334 580 233 q 645 546 635 435 q 659 777 654 658 l 450 777 l 450 939 l 844 939 q 819 1039 836 981 q 786 1146 802 1097 l 951 1185 q 991 1077 970 1137 q 1021 978 1011 1017 l 880 939 l 1341 939 l 1341 777 z "},"企":{"ha":1389,"x_min":29,"x_max":1362,"o":"m 790 343 l 790 65 l 1287 65 l 1287 -83 l 107 -83 l 107 65 l 257 65 l 257 550 l 421 550 l 421 65 l 615 65 l 615 778 l 790 778 l 790 492 l 1161 492 l 1161 343 l 790 343 m 671 1189 l 819 1116 q 805 1096 812 1106 q 790 1076 798 1086 q 1071 853 927 932 q 1362 721 1215 773 q 1303 655 1333 695 q 1258 578 1273 615 q 1069 670 1162 619 q 882 792 975 722 q 694 964 789 863 q 436 744 579 841 q 142 578 293 646 q 92 650 124 610 q 29 718 60 690 q 275 837 153 766 q 499 996 396 907 q 671 1189 602 1084 z "},"伊":{"ha":1389,"x_min":20,"x_max":1339,"o":"m 355 1173 l 509 1124 q 379 854 453 986 l 379 -118 l 222 -118 l 222 616 q 165 548 194 581 q 107 486 136 514 q 84 537 99 505 q 51 602 68 570 q 20 654 33 634 q 149 800 86 717 q 265 979 212 884 q 355 1173 318 1074 m 1095 458 l 1095 621 l 899 621 l 899 571 q 895 458 899 517 l 1095 458 m 899 935 l 899 774 l 1095 774 l 1095 935 l 899 935 m 1339 774 l 1339 621 l 1254 621 l 1254 239 l 1095 239 l 1095 306 l 871 306 q 763 67 841 180 q 530 -126 686 -46 q 480 -63 514 -100 q 418 -1 447 -25 q 609 135 544 55 q 703 306 673 216 l 504 306 l 504 458 l 730 458 q 734 572 734 517 l 734 621 l 433 621 l 433 774 l 734 774 l 734 935 l 517 935 l 517 1088 l 1254 1088 l 1254 774 l 1339 774 z "},"伍":{"ha":1389,"x_min":29,"x_max":1346,"o":"m 349 1173 l 501 1125 q 447 990 477 1057 q 380 857 416 924 l 380 -122 l 220 -122 l 220 600 q 167 535 193 567 q 114 473 141 503 q 92 527 107 494 q 59 593 77 560 q 29 647 42 626 q 152 795 92 711 q 263 976 212 880 q 349 1173 313 1073 m 1059 486 l 850 486 q 818 273 833 376 q 785 83 802 170 l 1023 83 q 1043 291 1034 184 q 1059 486 1052 397 m 1190 83 l 1346 83 l 1346 -71 l 441 -71 l 441 83 l 615 83 q 650 274 633 171 q 684 486 667 377 l 509 486 l 509 640 l 705 640 q 742 921 727 784 l 500 921 l 500 1075 l 1299 1075 l 1299 921 l 911 921 q 893 782 903 853 q 873 640 884 711 l 1083 640 l 1109 646 l 1235 637 q 1216 368 1228 513 q 1190 83 1204 222 z "},"伏":{"ha":1389,"x_min":32,"x_max":1346,"o":"m 1286 911 l 1150 832 q 1113 907 1137 865 q 1060 994 1088 949 q 1006 1078 1032 1039 l 1131 1149 q 1188 1069 1158 1112 q 1245 985 1219 1027 q 1286 911 1271 944 m 349 1177 l 507 1128 q 448 983 480 1056 q 376 840 415 910 l 376 -121 l 211 -121 l 211 579 q 122 473 168 524 q 98 528 115 494 q 64 594 82 561 q 32 648 46 628 q 155 798 95 713 q 264 979 214 882 q 349 1177 314 1076 m 1320 628 l 957 628 q 1104 274 1008 434 q 1346 26 1200 115 q 1279 -40 1316 3 q 1222 -118 1243 -83 q 1022 91 1105 -35 q 880 374 939 216 q 766 114 843 241 q 558 -123 690 -13 q 495 -66 534 -96 q 422 -14 456 -36 q 609 193 540 84 q 713 412 678 301 q 760 628 747 523 l 441 628 l 441 791 l 770 791 l 770 823 l 770 1174 l 937 1174 l 937 822 l 937 791 l 1320 791 l 1320 628 z "},"伐":{"ha":1389,"x_min":35,"x_max":1353,"o":"m 1263 986 l 1149 885 q 1089 945 1126 910 q 1011 1015 1052 979 q 935 1079 970 1050 l 1043 1169 q 1119 1108 1077 1141 q 1199 1043 1160 1076 q 1263 986 1238 1011 m 371 1177 l 530 1126 q 471 988 503 1058 q 401 851 439 919 l 401 -118 l 233 -118 l 233 596 q 129 475 181 529 q 104 527 121 495 q 68 592 87 559 q 35 643 50 624 q 165 792 102 707 q 281 976 228 878 q 371 1177 334 1074 m 1129 663 l 1289 606 q 1162 408 1235 500 q 1006 235 1090 315 q 1075 97 1038 146 q 1150 47 1112 47 q 1189 106 1175 47 q 1208 297 1202 164 q 1277 244 1236 269 q 1353 205 1318 218 q 1314 3 1339 74 q 1246 -95 1289 -68 q 1137 -122 1204 -122 q 985 -58 1052 -122 q 869 119 918 7 q 709 15 792 63 q 538 -71 626 -33 q 508 -25 527 -53 q 467 29 488 2 q 429 72 446 56 q 631 163 534 110 q 812 281 727 216 q 771 462 789 365 q 741 664 753 559 l 454 635 l 439 791 l 725 818 q 714 989 718 903 q 710 1161 711 1076 l 884 1161 q 885 997 882 1079 q 893 835 887 915 l 1301 875 l 1315 721 l 908 679 q 930 540 918 607 q 954 411 942 473 q 1052 531 1007 469 q 1129 663 1096 593 z "},"休":{"ha":1389,"x_min":20,"x_max":1368,"o":"m 1326 679 l 1036 679 q 1128 487 1076 581 q 1241 313 1180 393 q 1368 176 1302 233 q 1302 116 1338 155 q 1244 45 1265 77 q 1092 240 1163 125 q 964 486 1020 355 l 964 -121 l 800 -121 l 800 458 q 664 224 740 332 q 504 37 589 115 q 452 100 484 64 q 392 160 420 135 l 392 -118 l 229 -118 l 229 587 q 173 522 201 553 q 115 463 144 490 q 90 516 107 483 q 53 583 73 549 q 20 636 34 616 q 155 784 90 699 q 276 968 221 869 q 371 1169 332 1066 l 534 1117 q 469 969 505 1044 q 392 823 433 895 l 392 176 q 524 313 460 233 q 641 487 587 393 q 734 679 694 581 l 447 679 l 447 840 l 800 840 l 800 1154 l 964 1154 l 964 840 l 1326 840 l 1326 679 z "},"众":{"ha":1389,"x_min":60,"x_max":1340,"o":"m 843 665 l 1011 647 q 998 555 1005 600 q 982 468 990 510 q 1050 311 1006 392 q 1160 160 1095 229 q 1315 50 1226 91 q 1254 -20 1289 25 q 1202 -98 1220 -64 q 1034 48 1105 -42 q 916 235 963 138 q 814 37 873 125 q 677 -118 756 -52 q 637 -84 663 -104 q 583 -45 611 -64 q 536 -14 555 -26 q 749 261 677 87 q 843 665 820 435 m 663 1190 l 827 1125 q 789 1059 810 1092 q 931 908 846 978 q 1120 784 1016 838 q 1340 701 1225 731 q 1280 632 1312 675 q 1227 555 1248 589 q 935 707 1068 609 q 704 935 802 806 q 567 787 642 854 q 408 664 493 719 l 511 654 q 478 449 498 545 q 606 336 543 395 q 704 228 669 276 l 591 107 q 525 192 567 144 q 435 286 483 239 q 338 62 396 162 q 201 -111 281 -38 q 160 -78 186 -97 q 107 -39 134 -58 q 60 -8 79 -20 q 248 252 184 90 q 338 623 313 415 q 259 581 299 602 q 176 543 219 561 q 125 623 157 580 q 60 697 93 666 q 305 811 190 742 q 512 976 420 881 q 663 1190 604 1070 z "},"优":{"ha":1389,"x_min":36,"x_max":1344,"o":"m 342 1173 l 497 1124 q 358 818 440 968 l 358 -121 l 201 -121 l 201 574 q 125 481 165 524 q 101 533 117 500 q 68 599 85 566 q 36 652 50 632 q 154 799 96 715 q 259 978 211 882 q 342 1173 308 1073 m 1325 704 l 846 704 q 797 378 833 532 q 685 98 760 225 q 482 -123 610 -29 q 428 -53 462 -90 q 361 7 393 -15 q 542 193 476 86 q 640 429 608 300 q 682 704 671 557 l 412 704 l 412 860 l 690 860 q 693 1006 692 932 q 693 1158 693 1081 l 859 1158 q 854 860 859 1004 l 1139 860 q 1063 962 1112 903 q 968 1067 1014 1020 l 1083 1149 q 1148 1082 1114 1119 q 1214 1010 1183 1046 q 1264 946 1245 975 l 1149 860 l 1325 860 l 1325 704 m 1067 62 l 1156 62 q 1181 78 1173 62 q 1193 139 1190 93 q 1200 277 1197 184 q 1269 237 1225 256 q 1344 210 1313 218 q 1320 29 1337 94 q 1267 -62 1302 -36 q 1171 -89 1232 -89 l 1040 -89 q 934 -70 972 -89 q 882 -5 897 -50 q 868 118 868 40 l 868 621 l 1029 621 l 1029 118 q 1036 72 1029 81 q 1067 62 1043 62 z "},"伙":{"ha":1389,"x_min":26,"x_max":1360,"o":"m 1158 926 l 1339 882 q 1269 662 1307 772 q 1196 473 1230 551 l 1047 517 q 1089 643 1068 572 q 1129 788 1111 713 q 1158 926 1147 862 m 615 454 l 454 518 q 495 635 477 567 q 526 780 513 704 q 543 924 538 855 l 701 903 q 687 746 698 827 q 657 588 675 664 q 615 454 640 513 m 354 1178 l 511 1126 q 454 995 485 1061 q 387 863 424 928 l 387 -118 l 215 -118 l 215 599 q 165 539 191 568 q 117 485 140 511 q 93 539 109 505 q 59 606 77 572 q 26 661 41 640 q 152 806 91 723 q 266 984 214 889 q 354 1178 317 1079 m 802 1158 l 981 1158 q 978 887 979 1016 q 966 644 976 759 q 1032 374 988 495 q 1155 168 1076 254 q 1360 37 1234 82 q 1299 -33 1333 12 q 1249 -114 1266 -79 q 1028 43 1112 -56 q 895 281 945 142 q 760 51 848 151 q 524 -122 671 -50 q 473 -48 507 -90 q 410 18 439 -7 q 610 155 534 77 q 726 333 686 233 q 781 557 766 433 q 799 831 797 681 q 802 1158 800 981 z "},"会":{"ha":1389,"x_min":41,"x_max":1353,"o":"m 836 253 l 978 325 q 1098 209 1038 272 q 1207 84 1158 146 q 1287 -31 1257 22 l 1140 -121 q 1111 -70 1128 -97 q 1072 -16 1093 -43 q 727 -41 867 -31 q 497 -58 587 -51 q 355 -71 408 -65 q 273 -82 302 -77 q 224 -96 244 -88 q 210 -48 220 -79 q 189 15 201 -18 q 168 71 178 47 q 220 93 195 76 q 278 139 245 111 q 354 210 302 157 q 461 330 405 262 l 125 330 l 125 490 l 1274 490 l 1274 330 l 690 330 q 586 212 642 271 q 472 102 530 153 l 956 129 q 896 193 926 161 q 836 253 866 224 m 465 758 l 943 758 q 811 852 874 804 q 697 949 748 901 q 586 849 645 897 q 465 758 528 802 m 689 1183 l 840 1111 q 817 1082 829 1097 q 793 1053 806 1067 q 952 938 861 996 q 1147 831 1044 880 q 1353 749 1250 781 q 1290 679 1324 722 q 1236 603 1256 636 q 1127 651 1182 625 q 1021 710 1073 678 l 1021 607 l 372 607 l 372 699 q 269 642 321 669 q 160 589 216 614 q 127 638 148 610 q 84 693 107 666 q 41 736 61 720 q 297 857 174 786 q 522 1011 420 927 q 689 1183 623 1095 z "},"伞":{"ha":1389,"x_min":26,"x_max":1367,"o":"m 779 810 l 779 317 l 1322 317 l 1322 157 l 779 157 l 779 -121 l 607 -121 l 607 157 l 64 157 l 64 317 l 607 317 l 607 810 l 779 810 m 241 636 l 378 699 q 437 610 407 658 q 491 516 467 562 q 529 432 516 469 l 383 361 q 351 445 373 397 q 299 542 328 492 q 241 636 271 592 m 1000 696 l 1162 637 q 1069 489 1118 564 q 979 366 1020 415 l 848 416 q 904 504 875 455 q 958 603 932 552 q 1000 696 983 653 m 697 1194 l 832 1118 q 814 1097 823 1107 q 796 1076 805 1087 q 1092 906 948 968 q 1367 808 1236 845 q 1303 738 1335 780 q 1257 659 1272 696 q 990 775 1130 705 q 688 974 850 846 q 424 790 568 871 q 139 654 281 709 q 90 731 120 688 q 26 804 59 773 q 275 902 149 844 q 511 1033 401 960 q 697 1194 621 1107 z "},"伟":{"ha":1389,"x_min":36,"x_max":1335,"o":"m 342 1173 l 497 1122 q 439 979 471 1051 q 370 838 407 906 l 370 -119 l 212 -119 l 212 585 q 169 529 191 555 q 125 479 147 503 q 101 533 117 500 q 68 598 85 566 q 36 652 50 631 q 154 798 96 715 q 259 977 211 882 q 342 1173 308 1073 m 943 484 l 1335 484 q 1334 461 1335 484 q 1332 425 1333 439 q 1304 150 1320 239 q 1261 32 1289 61 q 1225 -1 1244 9 q 1181 -16 1206 -11 q 1057 -20 1138 -24 q 1046 53 1056 13 q 1021 122 1036 93 q 1069 119 1047 120 q 1103 118 1090 118 q 1137 134 1126 118 q 1158 190 1149 146 q 1177 329 1168 235 l 943 329 l 943 -119 l 785 -119 l 785 329 l 436 329 l 436 484 l 785 484 l 785 593 l 513 593 l 513 746 l 785 746 l 785 851 l 478 851 l 478 1004 l 785 1004 l 785 1178 l 943 1178 l 943 1004 l 1303 1004 l 1303 851 l 943 851 l 943 746 l 1254 746 l 1254 593 l 943 593 l 943 484 z "},"传":{"ha":1389,"x_min":21,"x_max":1336,"o":"m 336 1171 l 493 1121 q 431 974 465 1048 q 357 828 397 900 l 357 -119 l 197 -119 l 197 582 q 154 529 176 555 q 110 479 132 503 q 86 533 102 500 q 53 598 71 566 q 21 652 35 631 q 142 797 83 714 q 251 976 201 880 q 336 1171 301 1072 m 1336 618 l 793 618 q 760 501 777 557 l 1157 501 l 1182 510 l 1297 435 q 1151 275 1232 361 q 989 106 1070 189 q 1064 50 1029 77 q 1124 0 1099 23 l 1007 -125 q 904 -34 967 -85 q 767 69 840 18 q 625 161 694 120 l 741 261 q 859 192 800 229 q 935 271 897 231 q 1007 347 972 310 l 539 347 q 579 473 557 404 q 624 618 602 542 l 410 618 l 410 771 l 668 771 q 683 825 675 798 q 697 879 690 852 l 489 879 l 489 1029 l 733 1029 q 749 1096 742 1063 q 764 1161 757 1129 l 928 1140 l 900 1029 l 1264 1029 l 1264 879 l 863 879 l 835 771 l 1336 771 l 1336 618 z "},"伤":{"ha":1389,"x_min":24,"x_max":1295,"o":"m 339 1173 l 494 1124 q 357 825 437 970 l 357 -118 l 199 -118 l 199 582 q 155 529 177 554 q 113 481 134 503 q 89 533 105 500 q 55 599 73 566 q 24 652 37 631 q 145 798 86 714 q 254 977 204 881 q 339 1173 304 1073 m 904 603 l 1278 603 q 1277 577 1278 603 q 1276 536 1276 552 q 1264 228 1271 347 q 1245 46 1257 110 q 1213 -41 1234 -17 q 1163 -84 1191 -72 q 1099 -102 1135 -97 q 1014 -107 1066 -106 q 904 -106 962 -108 q 889 -29 903 -71 q 854 46 875 14 q 955 40 908 41 q 1023 39 1001 39 q 1053 42 1041 39 q 1074 57 1065 45 q 1101 166 1091 77 q 1117 452 1110 256 l 888 452 q 828 223 869 330 q 712 27 787 116 q 514 -127 637 -62 q 469 -62 498 -98 q 410 -4 439 -26 q 576 118 513 48 q 673 272 639 188 q 724 452 707 356 l 479 452 l 479 603 l 742 603 q 746 691 745 646 q 750 783 748 736 l 914 783 q 910 692 912 736 q 904 603 907 648 m 750 982 l 1295 982 l 1295 827 l 671 827 q 608 730 642 774 q 539 647 574 685 q 500 681 524 661 q 450 718 475 700 q 404 747 424 736 q 548 935 486 821 q 644 1174 611 1048 l 807 1137 q 780 1059 794 1097 q 750 982 766 1021 z "},"伦":{"ha":1389,"x_min":28,"x_max":1365,"o":"m 829 1183 l 1007 1149 q 987 1113 998 1131 q 966 1078 977 1095 q 1080 931 1015 1004 q 1219 798 1145 859 q 1365 694 1292 736 q 1304 634 1338 673 q 1250 564 1270 594 q 1054 730 1151 631 q 878 943 956 829 q 755 794 823 866 q 608 656 688 722 l 720 656 l 720 414 q 912 506 814 456 q 1082 606 1010 557 l 1189 464 q 1038 387 1118 426 q 875 314 957 349 q 720 254 793 280 l 720 123 q 736 68 720 80 q 811 56 753 56 l 1044 56 q 1097 70 1079 56 q 1123 126 1115 84 q 1135 250 1131 168 q 1206 212 1162 230 q 1284 186 1251 193 q 1252 18 1274 79 q 1183 -68 1230 -43 q 1057 -93 1137 -93 l 793 -93 q 648 -74 700 -93 q 576 -7 597 -54 q 555 123 555 40 l 555 612 q 509 578 532 595 q 460 545 485 561 q 414 612 444 574 q 357 673 383 650 l 357 -119 l 199 -119 l 199 583 q 158 532 179 556 q 118 486 138 508 q 94 539 110 506 q 59 604 77 572 q 28 657 41 637 q 147 804 89 720 q 253 982 205 887 q 336 1177 302 1078 l 492 1128 q 357 831 434 977 l 357 677 q 565 833 473 748 q 722 1008 656 918 q 829 1183 788 1098 z "},"伪":{"ha":1389,"x_min":22,"x_max":1304,"o":"m 718 916 l 567 846 q 523 934 553 884 q 461 1028 492 984 q 368 842 421 932 l 368 -118 l 210 -118 l 210 602 q 162 542 186 570 q 114 488 138 513 q 90 540 106 508 q 55 605 74 572 q 22 657 37 637 q 145 802 85 720 q 256 980 205 885 q 342 1173 307 1074 l 501 1122 q 486 1084 494 1103 q 469 1044 478 1064 l 596 1101 q 664 1007 628 1059 q 718 916 701 955 m 893 832 l 1304 832 q 1304 818 1304 832 q 1304 785 1304 803 q 1303 755 1303 766 q 1291 419 1297 558 q 1275 190 1284 281 q 1253 47 1266 99 q 1222 -29 1240 -5 q 1168 -80 1196 -66 q 1101 -102 1140 -94 q 1014 -107 1067 -108 q 905 -106 962 -106 q 889 -24 903 -70 q 854 57 875 22 q 951 51 907 52 q 1019 50 996 50 q 1071 72 1054 50 q 1099 156 1088 91 q 1118 346 1110 220 q 1131 671 1125 471 l 879 671 q 867 586 874 628 q 851 503 860 545 l 945 551 q 1003 474 973 516 q 1059 391 1034 432 q 1099 318 1084 350 l 953 236 q 903 332 935 277 q 836 439 871 387 q 715 131 795 277 q 497 -125 635 -15 q 441 -61 475 -95 q 371 -5 406 -27 q 552 186 484 78 q 658 419 621 295 q 711 671 695 543 l 452 671 l 452 832 l 725 832 q 731 998 730 916 q 732 1156 731 1080 l 904 1156 q 901 997 903 1078 q 893 832 899 916 z "},"伯":{"ha":1389,"x_min":33,"x_max":1251,"o":"m 355 1173 l 513 1136 q 385 800 462 958 l 385 -122 l 221 -122 l 221 533 q 134 433 179 479 q 105 480 123 451 q 68 538 87 509 q 33 585 48 567 q 225 841 142 686 q 355 1173 309 997 m 679 114 l 1079 114 l 1079 364 l 679 364 l 679 114 m 1079 774 l 679 774 l 679 526 l 1079 526 l 1079 774 m 905 930 l 1251 930 l 1251 -109 l 1079 -109 l 1079 -52 l 679 -52 l 679 -118 l 514 -118 l 514 930 l 730 930 q 768 1055 750 989 q 798 1177 787 1121 l 993 1146 q 905 930 951 1035 z "},"估":{"ha":1389,"x_min":22,"x_max":1343,"o":"m 339 1171 l 493 1121 q 431 972 466 1047 q 357 825 397 898 l 357 -119 l 199 -119 l 199 581 q 155 528 177 553 q 113 479 134 502 q 89 533 105 500 q 55 598 73 566 q 22 652 37 631 q 145 797 85 714 q 254 976 204 880 q 339 1171 304 1072 m 1096 93 l 1096 338 l 685 338 l 685 93 l 1096 93 m 1343 733 l 977 733 l 977 493 l 1267 493 l 1267 -117 l 1096 -117 l 1096 -62 l 685 -62 l 685 -122 l 521 -122 l 521 493 l 803 493 l 803 733 l 458 733 l 458 893 l 803 893 l 803 1177 l 977 1177 l 977 893 l 1343 893 l 1343 733 z "},"伴":{"ha":1389,"x_min":21,"x_max":1346,"o":"m 1149 1118 l 1317 1060 q 1240 902 1279 981 q 1168 765 1200 823 l 1034 819 q 1075 912 1053 860 q 1117 1018 1097 964 q 1149 1118 1136 1072 m 749 819 l 600 760 q 576 850 593 799 q 538 955 560 901 q 493 1055 517 1008 l 632 1107 q 681 1010 657 1063 q 722 908 704 958 q 749 819 741 859 m 355 1174 l 509 1124 q 449 989 481 1057 q 379 856 416 921 l 379 -117 l 222 -117 l 222 616 q 165 548 194 581 q 107 486 136 515 q 84 538 99 505 q 52 603 69 570 q 21 654 35 635 q 149 800 87 717 q 265 979 212 884 q 355 1174 318 1075 m 1346 400 l 1346 248 l 975 248 l 975 -121 l 808 -121 l 808 248 l 443 248 l 443 400 l 808 400 l 808 587 l 498 587 l 498 741 l 808 741 l 808 1158 l 975 1158 l 975 741 l 1291 741 l 1291 587 l 975 587 l 975 400 l 1346 400 z "},"伶":{"ha":1389,"x_min":22,"x_max":1348,"o":"m 1158 533 l 1278 453 q 1185 325 1239 389 q 1073 200 1132 260 q 960 89 1015 140 q 1036 37 1000 62 q 1099 -9 1072 12 l 978 -125 q 896 -60 945 -96 q 792 17 848 -23 q 679 96 736 57 q 574 167 623 134 l 688 267 l 823 178 q 922 269 871 218 q 1017 372 974 320 l 509 372 l 509 524 l 1131 524 l 1158 533 m 724 708 l 852 778 q 930 696 891 741 q 990 618 968 652 l 856 534 q 797 618 836 569 q 724 708 759 668 m 819 1181 l 977 1128 q 964 1103 970 1116 q 951 1076 958 1090 q 1065 933 1000 1004 q 1203 800 1131 861 q 1348 696 1276 739 q 1283 632 1318 672 q 1226 562 1249 593 q 1041 731 1135 629 q 872 946 948 832 q 476 554 715 709 q 425 619 458 581 q 363 679 391 657 l 363 -118 l 197 -118 l 197 581 q 113 479 156 528 q 89 533 105 500 q 55 598 73 566 q 22 652 37 631 q 145 798 85 714 q 254 977 204 881 q 339 1171 304 1072 l 494 1122 q 434 978 467 1050 q 363 836 401 906 l 363 684 q 549 821 462 741 q 706 994 637 901 q 819 1181 775 1086 z "},"伸":{"ha":1389,"x_min":17,"x_max":1317,"o":"m 332 1173 l 489 1122 q 428 978 462 1050 q 355 836 394 906 l 355 -118 l 199 -118 l 199 591 q 104 481 153 532 q 81 533 96 500 q 48 599 66 566 q 17 652 31 632 q 138 798 79 714 q 247 977 197 881 q 332 1173 296 1073 m 960 414 l 1156 414 l 1156 541 l 960 541 l 960 414 m 607 414 l 798 414 l 798 541 l 607 541 l 607 414 m 798 808 l 607 808 l 607 684 l 798 684 l 798 808 m 1156 808 l 960 808 l 960 684 l 1156 684 l 1156 808 m 960 958 l 1317 958 l 1317 208 l 1156 208 l 1156 264 l 960 264 l 960 -119 l 798 -119 l 798 264 l 607 264 l 607 195 l 453 195 l 453 958 l 798 958 l 798 1171 l 960 1171 l 960 958 z "},"伺":{"ha":1389,"x_min":22,"x_max":1300,"o":"m 332 1173 l 482 1122 q 354 838 429 979 l 354 -118 l 195 -118 l 195 582 q 152 529 174 555 q 110 479 131 503 q 87 533 102 500 q 54 598 71 566 q 22 652 36 631 q 141 798 83 715 q 249 977 199 882 q 332 1173 298 1073 m 1059 863 l 1059 720 l 468 720 l 468 863 l 1059 863 m 846 484 l 654 484 l 654 294 l 846 294 l 846 484 m 999 155 l 654 155 l 654 61 l 503 61 l 503 623 l 999 623 l 999 155 m 1300 1107 l 1300 77 q 1284 -30 1300 9 q 1225 -90 1267 -68 q 1119 -115 1183 -110 q 962 -121 1055 -121 q 941 -35 958 -85 q 908 49 925 16 q 1023 45 966 45 q 1100 45 1080 45 q 1127 53 1120 45 q 1135 78 1135 60 l 1135 958 l 488 958 l 488 1107 l 1300 1107 z "},"似":{"ha":1389,"x_min":20,"x_max":1358,"o":"m 971 611 l 822 551 q 788 688 811 610 q 734 847 764 766 q 672 1002 704 929 l 810 1051 q 875 901 842 981 q 933 745 907 821 q 971 611 958 669 m 294 1175 l 447 1129 q 342 859 402 992 l 342 -119 l 184 -119 l 184 574 q 142 515 164 543 q 100 461 121 487 q 80 515 94 481 q 49 583 66 549 q 20 640 33 618 q 127 790 76 705 q 222 975 179 876 q 294 1175 264 1073 m 648 278 l 846 401 q 871 329 855 370 q 901 262 888 288 q 701 128 776 179 q 588 47 627 77 q 530 -1 549 18 l 510 -26 q 487 22 502 -7 q 455 79 472 51 q 425 122 438 106 q 467 174 446 139 q 489 256 489 210 l 489 1083 l 648 1083 l 648 278 m 1358 -12 l 1206 -85 q 1162 59 1191 -23 q 1097 228 1133 141 q 998 39 1055 125 q 861 -117 940 -48 q 826 -79 850 -102 q 774 -33 802 -56 q 726 3 747 -10 q 896 196 831 83 q 998 453 962 309 q 1049 769 1034 597 q 1068 1141 1065 942 l 1232 1137 q 1212 771 1227 942 q 1164 453 1196 600 q 1241 293 1202 377 q 1310 129 1279 209 q 1358 -12 1341 50 z "},"佃":{"ha":1389,"x_min":18,"x_max":1286,"o":"m 335 1171 l 486 1122 q 424 971 459 1047 q 347 822 388 895 l 347 -118 l 189 -118 l 189 581 q 147 530 168 553 q 106 484 126 506 q 83 535 98 503 q 50 599 68 567 q 18 652 32 631 q 140 798 81 714 q 250 977 199 881 q 335 1171 300 1072 m 960 125 l 1121 125 l 1121 454 l 960 454 l 960 125 m 643 454 l 643 125 l 799 125 l 799 454 l 643 454 m 799 935 l 643 935 l 643 614 l 799 614 l 799 935 m 1121 614 l 1121 935 l 960 935 l 960 614 l 1121 614 m 486 1095 l 1286 1095 l 1286 -109 l 1121 -109 l 1121 -35 l 643 -35 l 643 -119 l 486 -119 l 486 1095 z "},"但":{"ha":1389,"x_min":26,"x_max":1348,"o":"m 1067 732 l 1067 935 l 711 935 l 711 732 l 1067 732 m 1067 368 l 1067 579 l 711 579 l 711 368 l 1067 368 m 1247 1088 l 1247 215 l 541 215 l 541 1088 l 1247 1088 m 351 1171 l 511 1120 q 375 832 454 971 l 375 -119 l 212 -119 l 212 585 q 164 527 189 555 q 117 473 140 498 q 93 529 109 494 q 59 598 77 564 q 26 654 41 633 q 151 799 90 716 q 264 977 212 882 q 351 1171 315 1072 m 443 79 l 1348 79 l 1348 -75 l 443 -75 l 443 79 z "},"位":{"ha":1389,"x_min":45,"x_max":1325,"o":"m 504 943 l 829 943 q 804 1048 822 988 q 768 1157 786 1108 l 925 1196 q 965 1087 946 1146 q 996 985 985 1027 l 850 943 l 1278 943 l 1278 783 l 504 783 l 504 943 m 831 178 l 668 132 q 650 303 663 204 q 622 507 638 401 q 586 705 605 612 l 736 739 q 776 544 757 648 q 809 345 795 441 q 831 178 823 248 m 361 1171 l 517 1122 q 457 980 490 1051 q 387 842 425 909 l 387 -118 l 221 -118 l 221 582 q 177 529 199 555 q 134 479 155 503 q 110 533 125 500 q 76 598 94 566 q 45 652 58 631 q 166 798 107 714 q 275 977 225 881 q 361 1171 326 1072 m 1089 93 l 1325 93 l 1325 -66 l 454 -66 l 454 93 l 937 93 q 983 297 961 183 q 1024 527 1006 410 q 1051 743 1042 643 l 1223 717 q 1184 502 1206 612 q 1137 285 1162 391 q 1089 93 1113 180 z "},"低":{"ha":1389,"x_min":32,"x_max":1358,"o":"m 334 1171 l 489 1125 q 437 988 465 1057 q 376 852 409 920 l 376 -118 l 218 -118 l 218 575 q 170 507 194 540 q 121 446 145 475 q 98 499 113 466 q 64 566 82 532 q 32 619 47 600 q 149 775 92 686 q 253 965 205 864 q 334 1171 300 1067 m 786 193 l 901 231 q 947 132 924 184 q 992 29 971 79 q 1025 -58 1013 -21 l 901 -104 q 872 -14 891 -65 q 830 92 853 37 q 786 193 808 146 m 667 663 l 918 663 q 910 799 914 728 q 903 943 906 870 q 785 922 844 932 q 667 904 725 913 l 667 663 m 1324 510 l 1090 510 q 1122 291 1104 385 q 1161 143 1140 196 q 1203 89 1181 90 q 1227 133 1217 89 q 1243 258 1237 176 q 1277 223 1255 241 q 1322 190 1299 205 q 1358 168 1345 175 q 1316 -4 1341 56 q 1260 -87 1290 -64 q 1203 -110 1231 -110 q 1074 -33 1127 -109 q 987 183 1021 44 q 932 510 952 321 l 667 510 l 667 81 l 811 113 q 810 39 809 80 q 814 -28 811 -3 q 638 -78 699 -60 q 551 -108 578 -97 q 510 -127 524 -119 q 488 -59 505 -100 q 456 4 472 -18 q 494 34 475 14 q 513 94 513 54 l 513 1026 l 514 1026 l 513 1029 q 752 1069 631 1046 q 982 1120 873 1093 q 1171 1178 1090 1148 l 1304 1043 q 1187 1007 1249 1024 q 1060 977 1125 991 q 1066 814 1062 894 q 1075 663 1069 735 l 1324 663 l 1324 510 z "},"住":{"ha":1389,"x_min":33,"x_max":1348,"o":"m 350 1171 l 511 1121 q 450 975 484 1048 q 378 832 416 902 l 378 -119 l 211 -119 l 211 575 q 168 523 189 549 q 125 475 146 498 q 101 529 117 495 q 66 597 85 563 q 33 652 48 631 q 156 798 96 714 q 266 977 216 881 q 350 1171 315 1072 m 989 79 l 1348 79 l 1348 -78 l 452 -78 l 452 79 l 821 79 l 821 358 l 528 358 l 528 514 l 821 514 l 821 758 l 482 758 l 482 916 l 856 916 q 815 1019 843 959 q 757 1131 787 1080 l 909 1182 q 973 1072 941 1133 q 1019 966 1005 1011 l 876 916 l 1328 916 l 1328 758 l 989 758 l 989 514 l 1289 514 l 1289 358 l 989 358 l 989 79 z "},"佐":{"ha":1389,"x_min":21,"x_max":1344,"o":"m 1344 751 l 819 751 q 792 644 807 697 q 762 542 778 591 l 1314 542 l 1314 389 l 1074 389 l 1074 78 l 1344 78 l 1344 -77 l 606 -77 l 606 78 l 909 78 l 909 389 l 724 389 l 724 429 q 617 199 677 305 q 484 7 558 92 q 438 58 469 26 q 379 114 408 89 l 379 -117 l 222 -117 l 222 616 q 165 548 194 581 q 107 486 136 515 q 84 538 99 505 q 52 603 69 570 q 21 654 35 635 q 149 800 87 717 q 265 979 212 884 q 355 1174 318 1075 l 509 1124 q 449 989 481 1057 q 379 856 416 921 l 379 167 q 539 425 474 275 q 648 751 605 574 l 437 751 l 437 907 l 682 907 q 704 1032 694 968 q 722 1161 714 1095 l 892 1143 q 874 1023 884 1082 q 852 907 864 964 l 1344 907 l 1344 751 z "},"佑":{"ha":1389,"x_min":20,"x_max":1349,"o":"m 355 1174 l 509 1124 q 449 990 481 1057 q 379 856 416 922 l 379 -117 l 222 -117 l 222 618 q 165 549 194 583 q 107 486 136 515 q 84 538 99 506 q 51 603 68 571 q 20 656 33 635 q 149 801 86 718 q 265 980 212 884 q 355 1174 318 1075 m 1129 376 l 803 376 l 803 117 l 1129 117 l 1129 376 m 1349 751 l 867 751 q 827 638 848 694 q 781 529 806 583 l 1296 529 l 1296 -102 l 1129 -102 l 1129 -36 l 803 -36 l 803 -113 l 644 -113 l 644 300 q 574 217 611 256 q 496 144 538 178 q 445 212 477 172 q 389 277 414 252 q 572 487 498 363 q 693 751 645 611 l 437 751 l 437 909 l 736 909 q 765 1040 753 975 q 785 1169 777 1106 l 958 1145 q 936 1027 948 1086 q 909 909 924 968 l 1349 909 l 1349 751 z "},"体":{"ha":1389,"x_min":22,"x_max":1368,"o":"m 310 1171 l 467 1124 q 355 856 421 990 l 355 -118 l 199 -118 l 199 587 q 156 532 178 559 q 114 479 135 504 q 91 532 106 499 q 56 598 75 565 q 22 652 37 631 q 135 799 81 715 q 234 978 189 882 q 310 1171 279 1073 m 947 260 l 1118 260 q 1026 432 1069 340 q 947 623 983 524 l 947 260 m 616 260 l 786 260 l 786 612 q 709 427 751 517 q 616 260 666 337 m 1331 772 l 1029 772 q 1121 561 1067 665 q 1238 368 1175 457 q 1368 215 1301 279 q 1303 157 1340 193 q 1244 87 1266 120 q 1188 157 1215 120 q 1133 235 1160 193 l 1133 113 l 947 113 l 947 -111 l 786 -111 l 786 113 l 604 113 l 604 240 q 545 156 575 195 q 481 83 514 117 q 425 150 460 113 q 363 208 391 187 q 497 361 433 271 q 616 557 562 451 q 708 772 670 663 l 435 772 l 435 929 l 786 929 l 786 1169 l 947 1169 l 947 929 l 1331 929 l 1331 772 z "},"何":{"ha":1389,"x_min":36,"x_max":1344,"o":"m 346 1178 l 501 1128 q 449 1001 477 1064 q 387 873 421 937 l 387 -117 l 222 -117 l 222 610 q 174 548 198 577 q 125 493 149 519 q 102 546 117 513 q 68 611 86 578 q 36 665 51 644 q 155 809 97 726 q 263 985 214 891 q 346 1178 312 1080 m 814 606 l 660 606 l 660 389 l 814 389 l 814 606 m 968 245 l 660 245 l 660 155 l 505 155 l 505 749 l 968 749 l 968 245 m 1344 1057 l 1344 899 l 1261 899 l 1261 75 q 1243 -34 1261 3 q 1181 -92 1225 -72 q 1066 -116 1137 -111 q 899 -122 996 -122 q 878 -37 895 -85 q 843 47 861 11 q 932 44 888 45 q 1010 43 977 43 q 1059 43 1044 43 q 1087 51 1079 43 q 1095 78 1095 58 l 1095 899 l 489 899 l 489 1057 l 1344 1057 z "},"佘":{"ha":1389,"x_min":25,"x_max":1371,"o":"m 329 309 l 486 260 q 407 141 452 200 q 310 29 361 81 q 211 -62 260 -24 q 172 -28 197 -48 q 122 11 148 -8 q 78 40 96 29 q 220 161 152 90 q 329 309 288 233 m 1239 355 l 778 355 l 778 39 q 763 -49 778 -18 q 705 -97 747 -79 q 609 -118 665 -114 q 482 -122 554 -122 q 459 -47 475 -88 q 425 24 443 -7 q 519 21 471 22 q 582 21 568 21 q 610 45 610 21 l 610 355 l 151 355 l 151 501 l 1239 501 l 1239 355 m 884 241 l 1021 311 q 1119 215 1067 268 q 1218 110 1171 163 q 1293 16 1264 58 l 1146 -62 q 1077 31 1120 -22 q 982 140 1033 85 q 884 241 930 196 m 421 745 l 985 745 q 841 848 913 791 q 694 978 770 905 q 565 854 634 912 q 421 745 495 795 m 688 1194 l 817 1126 q 804 1108 810 1117 q 791 1092 798 1100 q 1078 876 932 958 q 1371 739 1224 794 q 1309 672 1341 712 q 1261 595 1278 632 q 1130 659 1196 625 q 1000 734 1065 693 l 1000 600 l 393 600 l 393 726 q 265 649 330 685 q 135 583 199 614 q 86 656 116 616 q 25 726 56 696 q 276 843 151 773 q 508 1001 401 912 q 688 1194 614 1090 z "},"余":{"ha":1389,"x_min":22,"x_max":1369,"o":"m 343 281 l 496 224 q 404 113 456 169 q 295 7 351 57 q 189 -79 239 -42 q 152 -42 174 -64 q 106 -1 130 -21 q 64 32 82 20 q 216 145 140 78 q 343 281 292 212 m 869 203 l 1008 283 q 1114 196 1058 244 q 1219 101 1169 149 q 1299 14 1268 53 l 1150 -78 q 1076 10 1122 -39 q 975 110 1029 59 q 869 203 920 161 m 422 758 l 965 758 q 830 858 898 803 q 692 981 762 912 q 563 864 630 920 q 422 758 495 808 m 689 1190 l 815 1120 q 803 1105 809 1112 q 790 1090 797 1097 q 1078 877 933 957 q 1369 745 1223 798 q 1308 677 1339 718 q 1260 599 1276 637 q 1152 650 1204 624 q 1044 708 1099 676 l 1044 610 l 782 610 l 782 484 l 1257 484 l 1257 328 l 782 328 l 782 58 q 766 -39 782 -4 q 707 -93 749 -73 q 607 -117 665 -112 q 473 -122 549 -122 q 446 -41 467 -87 q 407 37 426 5 q 509 35 458 35 q 576 35 559 35 q 600 41 593 36 q 607 61 607 47 l 607 328 l 147 328 l 147 484 l 607 484 l 607 610 l 332 610 l 332 697 q 232 640 282 667 q 134 587 182 612 q 84 660 115 621 q 22 729 54 699 q 268 849 143 779 q 503 1006 393 919 q 689 1190 612 1093 z "},"佛":{"ha":1389,"x_min":17,"x_max":1324,"o":"m 332 1173 l 489 1122 q 357 838 434 979 l 357 -118 l 199 -118 l 199 591 q 152 532 176 560 q 106 481 128 505 q 82 533 98 500 q 48 599 66 566 q 17 652 31 632 q 138 798 79 714 q 247 977 197 881 q 332 1173 297 1073 m 804 436 l 901 436 l 901 561 l 806 561 l 806 492 q 805 464 806 478 q 804 436 805 450 m 564 436 l 660 436 q 661 464 661 450 q 661 492 661 478 l 661 561 l 582 561 q 573 498 578 529 q 564 436 569 467 m 806 832 l 806 701 l 901 701 l 901 832 l 806 832 m 1140 832 l 1044 832 l 1044 701 l 1140 701 l 1140 832 m 1044 436 l 1324 436 q 1323 416 1324 436 q 1322 383 1323 397 q 1313 146 1320 225 q 1286 41 1306 66 q 1252 12 1270 21 q 1210 -3 1234 3 q 1157 -7 1190 -6 q 1088 -8 1124 -8 q 1077 64 1086 25 q 1054 129 1067 102 q 1098 124 1079 125 q 1128 123 1116 123 q 1161 138 1151 123 q 1172 183 1168 148 q 1178 296 1176 219 l 1044 296 l 1044 -119 l 901 -119 l 901 296 l 793 296 q 747 126 780 205 q 653 -18 715 47 q 492 -129 591 -83 q 446 -73 477 -106 q 393 -21 415 -39 q 569 117 513 35 q 644 296 625 199 l 395 296 q 418 419 406 349 q 440 562 430 488 q 458 701 451 635 l 661 701 l 661 832 l 440 832 l 440 972 l 661 972 l 661 1161 l 806 1161 l 806 972 l 901 972 l 901 1160 l 1044 1160 l 1044 972 l 1284 972 l 1284 561 l 1044 561 l 1044 436 z "},"作":{"ha":1389,"x_min":33,"x_max":1346,"o":"m 350 1171 l 511 1121 q 450 975 484 1048 q 378 832 416 902 l 378 -119 l 211 -119 l 211 575 q 168 523 189 549 q 125 475 146 498 q 101 529 117 495 q 66 597 85 563 q 33 652 48 631 q 156 798 96 714 q 266 977 216 881 q 350 1171 315 1072 m 1346 793 l 951 793 l 951 647 l 1311 647 l 1311 497 l 951 497 l 951 340 l 1329 340 l 1329 187 l 951 187 l 951 -121 l 782 -121 l 782 793 l 729 793 q 547 524 644 635 q 511 561 534 539 q 463 605 488 583 q 421 639 438 626 q 537 786 482 701 q 638 967 593 870 q 715 1162 684 1063 l 875 1122 q 844 1036 861 1078 q 807 950 827 993 l 1346 950 l 1346 793 z "},"你":{"ha":1389,"x_min":17,"x_max":1344,"o":"m 332 1171 l 489 1122 q 429 978 462 1050 q 357 838 395 906 l 357 -118 l 199 -118 l 199 591 q 152 532 176 560 q 106 479 128 504 q 82 533 98 500 q 48 598 66 566 q 17 652 31 631 q 138 798 79 714 q 247 977 197 881 q 332 1171 297 1072 m 589 558 l 750 525 q 669 269 720 393 q 561 61 619 146 q 519 91 545 75 q 467 124 494 108 q 419 150 439 140 q 522 333 479 223 q 589 558 565 443 m 1166 775 l 981 775 l 981 64 q 967 -32 981 5 q 917 -89 954 -68 q 830 -115 880 -109 q 713 -122 779 -122 q 691 -37 707 -85 q 656 45 674 11 q 738 43 699 43 q 791 43 777 43 q 817 66 817 43 l 817 775 l 656 775 q 593 661 627 715 q 525 562 559 606 q 486 598 511 577 q 436 638 462 618 q 392 671 410 659 q 489 810 444 730 q 569 983 534 890 q 628 1171 604 1076 l 789 1135 q 759 1030 775 1082 q 724 928 743 979 l 1202 928 l 1227 933 l 1344 911 q 1316 738 1332 827 q 1284 589 1299 649 l 1145 612 q 1156 687 1149 645 q 1166 775 1162 729 m 1031 522 l 1178 572 q 1245 419 1214 500 q 1298 260 1276 338 q 1329 119 1320 182 l 1171 65 q 1143 206 1163 127 q 1093 368 1122 286 q 1031 522 1064 451 z "},"佣":{"ha":1389,"x_min":17,"x_max":1303,"o":"m 968 440 l 1146 440 l 1146 608 l 968 608 l 968 440 m 642 440 l 812 440 l 812 608 l 646 608 l 646 579 q 642 440 646 513 m 812 922 l 646 922 l 646 754 l 812 754 l 812 922 m 1146 754 l 1146 922 l 968 922 l 968 754 l 1146 754 m 1303 1069 l 1303 53 q 1291 -37 1303 -3 q 1246 -90 1279 -71 q 1165 -115 1213 -110 q 1050 -119 1117 -119 q 1034 -43 1047 -87 q 1006 32 1020 1 q 1077 30 1043 30 q 1124 29 1111 29 q 1146 54 1146 29 l 1146 294 l 968 294 l 968 -103 l 812 -103 l 812 294 l 629 294 q 579 69 614 180 q 479 -125 545 -41 q 445 -91 467 -111 q 398 -54 422 -72 q 357 -26 374 -36 l 357 -118 l 199 -118 l 199 590 q 106 481 153 530 q 82 533 98 500 q 48 599 66 566 q 17 652 31 631 q 138 798 79 714 q 247 977 197 881 q 332 1171 297 1072 l 488 1122 q 428 978 461 1050 q 357 838 395 906 l 357 -21 q 446 166 418 62 q 483 377 475 270 q 490 579 490 485 l 490 1069 l 1303 1069 z "},"佩":{"ha":1389,"x_min":26,"x_max":1357,"o":"m 267 1173 l 414 1131 q 317 848 375 989 l 317 -118 l 172 -118 l 172 562 q 137 509 155 534 q 102 460 119 483 q 82 513 96 480 q 54 581 69 547 q 26 636 38 614 q 122 789 77 702 q 204 974 168 876 q 267 1173 241 1072 m 1039 635 l 1039 174 q 1033 120 1039 141 q 1008 86 1026 100 q 968 68 991 73 q 917 64 946 64 q 904 115 913 87 q 884 164 894 143 q 911 163 900 163 q 929 163 923 163 q 939 175 939 164 l 939 546 l 879 546 l 879 -109 l 777 -109 l 777 546 l 715 546 l 715 65 l 618 65 l 618 635 l 757 635 l 757 753 l 616 753 l 616 880 l 1032 880 l 1032 753 l 899 753 l 899 635 l 1039 635 m 443 1108 l 1225 1108 q 1220 775 1222 935 q 1217 480 1217 615 q 1220 245 1217 345 q 1232 89 1223 144 q 1255 33 1240 33 q 1266 61 1261 33 q 1273 136 1270 90 q 1276 237 1276 182 q 1316 179 1293 210 q 1357 127 1338 148 q 1323 -61 1347 -3 q 1240 -119 1299 -119 q 1143 -39 1176 -119 q 1097 188 1109 41 q 1084 533 1084 334 q 1083 970 1083 732 l 579 970 l 579 753 q 574 550 579 662 q 555 319 569 438 q 514 87 541 200 q 443 -119 487 -26 q 410 -90 431 -107 q 367 -57 389 -73 q 329 -36 345 -42 q 392 153 369 51 q 426 361 414 255 q 440 567 437 467 q 443 751 443 667 l 443 1108 z "},"佳":{"ha":1389,"x_min":32,"x_max":1343,"o":"m 802 724 l 802 868 l 524 868 l 524 1022 l 802 1022 l 802 1177 l 970 1177 l 970 1022 l 1255 1022 l 1255 868 l 970 868 l 970 724 l 1318 724 l 1318 568 l 460 568 l 460 724 l 802 724 m 338 1171 l 493 1122 q 435 979 467 1051 q 366 838 403 907 l 366 -121 l 201 -121 l 201 579 q 161 528 182 552 q 121 482 140 504 q 97 534 113 501 q 64 599 81 566 q 32 652 46 631 q 151 797 93 714 q 256 976 208 880 q 338 1171 304 1072 m 970 82 l 1343 82 l 1343 -77 l 419 -77 l 419 82 l 802 82 l 802 249 l 496 249 l 496 406 l 802 406 l 802 528 l 970 528 l 970 406 l 1283 406 l 1283 249 l 970 249 l 970 82 z "},"使":{"ha":1389,"x_min":21,"x_max":1365,"o":"m 640 521 l 811 521 l 811 539 l 811 659 l 640 659 l 640 521 m 1147 659 l 975 659 l 975 538 l 975 521 l 1147 521 l 1147 659 m 1305 387 l 966 387 q 940 262 958 323 q 890 146 922 201 q 1365 29 1082 54 q 1311 -42 1339 2 q 1267 -118 1282 -85 q 791 28 985 -83 q 671 -56 742 -18 q 507 -121 600 -94 q 478 -77 496 -103 q 441 -26 460 -52 q 404 17 421 -1 q 550 62 488 35 q 657 123 612 90 q 564 219 606 166 q 486 330 522 271 l 621 372 q 679 296 646 332 q 750 229 711 260 q 783 306 771 267 q 802 387 795 345 l 492 387 l 492 793 l 811 793 l 811 890 l 463 890 l 463 1018 q 423 938 444 977 q 379 859 402 898 l 379 -123 l 222 -123 l 222 623 q 166 554 194 587 q 109 492 138 521 q 85 544 100 512 q 52 609 70 576 q 21 661 35 641 q 150 807 87 724 q 266 985 213 890 q 357 1179 319 1080 l 510 1129 q 491 1085 500 1107 q 472 1040 481 1063 l 811 1040 l 811 1166 l 975 1166 l 975 1040 l 1343 1040 l 1343 890 l 975 890 l 975 793 l 1305 793 l 1305 387 z "},"侄":{"ha":1389,"x_min":35,"x_max":1340,"o":"m 1335 595 l 1186 517 q 1167 562 1179 538 q 1143 612 1156 587 q 885 595 989 602 q 713 582 780 587 q 606 572 646 576 q 545 563 567 568 q 509 551 524 557 q 494 603 504 572 q 474 662 485 633 q 454 710 463 692 q 506 725 478 715 q 555 755 534 736 q 594 803 569 769 q 647 878 618 836 q 701 956 676 919 l 486 956 l 486 1104 l 1311 1104 l 1311 956 l 893 956 q 818 845 859 905 q 741 734 777 786 l 1065 751 q 994 865 1031 812 l 1132 929 q 1208 817 1168 877 q 1282 698 1249 756 q 1335 595 1316 640 m 326 1173 l 482 1125 q 425 978 456 1052 q 357 833 393 904 l 357 -119 l 195 -119 l 195 570 q 159 523 177 545 q 123 481 141 500 q 100 533 116 500 q 67 599 85 566 q 35 652 50 632 q 148 799 93 715 q 249 978 203 882 q 326 1173 294 1074 m 979 74 l 1340 74 l 1340 -77 l 436 -77 l 436 74 l 812 74 l 812 258 l 518 258 l 518 406 l 812 406 l 812 554 l 979 554 l 979 406 l 1282 406 l 1282 258 l 979 258 l 979 74 z "},"侈":{"ha":1389,"x_min":22,"x_max":1339,"o":"m 342 1171 l 498 1121 q 436 970 471 1046 q 363 821 402 894 l 363 -118 l 201 -118 l 201 566 q 156 507 178 535 q 111 456 133 479 q 89 510 104 475 q 55 579 73 545 q 22 633 37 613 q 145 784 85 698 q 256 970 205 871 q 342 1171 307 1069 m 1227 554 l 1339 498 q 1143 189 1270 313 q 849 -11 1017 64 q 489 -127 682 -87 q 453 -58 476 -96 q 408 5 430 -20 q 637 62 527 26 q 843 153 747 98 q 779 201 814 177 q 710 245 743 226 l 839 328 q 904 288 869 311 q 971 243 939 265 q 1050 321 1014 279 q 1114 410 1086 362 l 857 410 q 715 300 792 353 q 547 201 639 248 q 498 265 530 229 q 439 321 466 301 q 663 446 567 376 q 823 591 759 517 q 665 528 747 556 q 500 479 583 500 q 464 546 488 507 q 418 608 440 585 q 585 651 503 625 q 743 714 667 677 q 689 750 717 732 q 636 783 662 769 l 766 861 q 825 830 793 848 q 885 791 856 812 q 965 852 928 821 q 1034 920 1002 884 l 762 920 q 522 751 658 827 q 473 814 505 779 q 415 865 440 848 q 646 1014 549 931 q 799 1175 743 1096 l 966 1140 q 932 1096 950 1118 q 895 1051 914 1074 l 1136 1051 l 1164 1059 l 1272 999 q 1131 802 1217 888 q 939 653 1045 716 l 1050 629 q 1020 589 1036 610 q 987 547 1004 568 l 1198 547 l 1227 554 z "},"例":{"ha":1389,"x_min":31,"x_max":1299,"o":"m 252 1175 l 399 1132 q 360 1006 381 1069 q 314 880 339 943 l 314 -118 l 161 -118 l 161 575 q 132 532 146 553 q 103 492 117 511 q 85 546 97 512 q 58 614 73 580 q 31 671 43 649 q 158 899 100 764 q 252 1175 216 1034 m 412 958 l 412 1112 l 885 1112 l 885 958 l 669 958 q 654 881 662 919 q 636 806 646 843 l 755 806 l 783 810 l 878 787 q 755 233 848 458 q 494 -118 661 8 q 449 -52 479 -89 q 393 8 419 -15 q 510 117 458 51 q 604 269 562 184 q 546 323 576 296 q 490 372 515 351 l 576 485 q 617 454 595 471 q 661 418 638 436 q 692 533 679 473 q 715 656 706 593 l 595 656 q 525 482 563 563 q 443 339 488 401 q 409 372 431 352 q 364 412 387 392 q 323 444 341 432 q 440 671 393 536 q 513 958 486 806 l 412 958 m 1068 1029 l 1068 233 l 924 233 l 924 1029 l 1068 1029 m 1146 1162 l 1299 1162 l 1299 81 q 1283 -24 1299 12 q 1229 -78 1267 -59 q 1126 -104 1190 -98 q 978 -110 1063 -110 q 958 -30 974 -77 q 926 52 942 17 q 1040 48 987 48 q 1112 49 1093 49 q 1138 56 1131 50 q 1146 81 1146 63 l 1146 1162 z "},"侍":{"ha":1389,"x_min":24,"x_max":1348,"o":"m 339 1171 l 496 1121 q 357 823 438 970 l 357 -118 l 200 -118 l 200 582 q 156 529 178 554 q 113 479 134 503 q 89 533 105 500 q 55 598 73 566 q 24 652 37 631 q 145 797 86 714 q 254 976 204 880 q 339 1171 304 1072 m 522 258 l 664 330 q 728 253 695 295 q 788 170 761 212 q 831 94 816 129 l 677 14 q 641 91 666 48 q 584 178 616 134 q 522 258 553 222 m 1348 597 l 1165 597 l 1165 488 l 1335 488 l 1335 338 l 1165 338 l 1165 54 q 1150 -42 1165 -8 q 1092 -93 1135 -75 q 989 -116 1050 -112 q 847 -121 928 -121 q 827 -42 842 -85 q 798 35 812 1 q 899 33 848 33 q 966 33 950 33 q 989 38 983 33 q 996 57 996 42 l 996 338 l 441 338 l 441 488 l 996 488 l 996 597 l 427 597 l 427 747 l 800 747 l 800 868 l 509 868 l 509 1018 l 800 1018 l 800 1169 l 970 1169 l 970 1018 l 1279 1018 l 1279 868 l 970 868 l 970 747 l 1348 747 l 1348 597 z "},"供":{"ha":1389,"x_min":24,"x_max":1341,"o":"m 340 1174 l 494 1125 q 434 980 467 1053 q 363 836 400 907 l 363 -119 l 200 -119 l 200 585 q 156 531 178 557 q 113 482 134 506 q 90 535 105 503 q 56 601 74 568 q 24 654 38 634 q 145 800 86 717 q 255 979 205 883 q 340 1174 306 1074 m 664 253 l 818 205 q 690 29 766 115 q 542 -117 614 -57 q 503 -81 526 -102 q 455 -42 479 -61 q 412 -12 431 -24 q 553 108 486 37 q 664 253 621 179 m 966 182 l 1099 254 q 1189 159 1144 210 q 1272 58 1234 109 q 1335 -32 1310 8 l 1196 -119 q 1137 -25 1174 -78 q 1055 83 1099 28 q 966 182 1010 137 m 787 747 l 787 471 l 989 471 l 989 747 l 787 747 m 1150 471 l 1341 471 l 1341 310 l 440 310 l 440 471 l 627 471 l 627 747 l 475 747 l 475 905 l 627 905 l 627 1165 l 787 1165 l 787 905 l 989 905 l 989 1166 l 1150 1166 l 1150 905 l 1331 905 l 1331 747 l 1150 747 l 1150 471 z "},"依":{"ha":1389,"x_min":33,"x_max":1358,"o":"m 1210 676 l 1333 559 q 1208 458 1273 510 q 1083 364 1143 407 q 1208 188 1139 267 q 1358 53 1277 108 q 1295 -10 1330 30 q 1239 -82 1260 -50 q 977 225 1084 35 q 802 644 870 415 q 761 594 782 618 q 717 545 740 570 l 717 103 l 936 170 q 943 96 937 138 q 957 28 949 54 q 767 -37 840 -12 q 653 -79 694 -63 q 591 -106 612 -96 q 557 -125 570 -116 q 535 -86 550 -109 q 504 -42 520 -64 q 473 -8 487 -21 q 527 48 498 10 q 555 143 555 87 l 555 389 q 496 340 526 363 q 437 297 467 317 q 402 347 425 316 q 357 404 380 377 l 357 -119 l 199 -119 l 199 574 q 122 481 162 524 q 99 533 115 500 q 65 599 83 566 q 33 653 47 632 q 152 800 94 716 q 258 978 210 883 q 339 1173 306 1074 l 494 1124 q 357 821 437 968 l 357 452 q 546 601 454 515 q 708 783 637 686 l 428 783 l 428 937 l 825 937 q 791 1032 812 979 q 749 1131 770 1084 l 896 1179 q 948 1074 922 1131 q 987 975 975 1016 l 885 937 l 1324 937 l 1324 783 l 918 783 q 1019 489 956 632 q 1122 583 1070 532 q 1210 676 1175 633 z "},"侠":{"ha":1389,"x_min":25,"x_max":1365,"o":"m 334 1175 l 486 1126 q 430 986 461 1058 q 363 847 399 915 l 363 -125 l 201 -125 l 201 589 q 156 531 178 559 q 111 479 133 504 q 90 532 104 499 q 57 598 75 565 q 25 652 39 631 q 144 799 87 715 q 251 979 202 883 q 334 1175 299 1076 m 1332 378 l 987 378 q 1136 159 1042 253 q 1365 17 1230 64 q 1305 -49 1337 -7 q 1254 -122 1273 -90 q 1041 22 1131 -69 q 890 233 951 113 q 749 37 842 129 q 504 -127 656 -56 q 473 -85 493 -110 q 430 -35 453 -60 q 389 5 408 -10 q 585 111 508 52 q 706 238 661 170 q 771 378 750 306 l 431 378 l 431 530 l 799 530 q 803 654 803 593 l 803 847 l 472 847 l 472 999 l 803 999 l 803 1161 l 972 1161 l 972 999 l 1308 999 l 1308 847 l 972 847 l 972 652 q 971 591 972 621 q 966 530 970 562 l 1332 530 l 1332 378 m 501 782 l 637 827 q 692 709 666 773 q 728 599 718 644 l 583 547 q 552 661 575 594 q 501 782 528 727 m 1154 547 l 1034 596 q 1084 707 1057 642 q 1125 823 1110 772 l 1284 770 q 1216 649 1249 710 q 1154 547 1182 589 z "},"侣":{"ha":1389,"x_min":31,"x_max":1261,"o":"m 1053 774 l 1053 981 l 672 981 l 672 774 l 1053 774 m 1215 1126 l 1215 628 l 518 628 l 518 1126 l 1215 1126 m 304 1175 l 457 1129 q 411 1000 436 1065 q 357 869 386 934 l 357 -119 l 195 -119 l 195 572 q 152 514 174 542 q 110 460 131 486 q 90 514 104 480 q 59 582 75 547 q 31 639 43 616 q 137 789 86 703 q 231 974 189 876 q 304 1175 274 1073 m 621 107 l 1088 107 l 1088 345 l 621 345 l 621 107 m 456 493 l 1261 493 l 1261 -113 l 1088 -113 l 1088 -43 l 621 -43 l 621 -117 l 456 -117 l 456 493 z "},"侥":{"ha":1389,"x_min":26,"x_max":1349,"o":"m 1120 913 l 863 886 q 924 777 890 825 q 1120 913 1045 834 m 414 990 l 652 1011 q 637 1088 643 1050 q 628 1166 631 1126 l 794 1166 q 803 1096 797 1131 q 817 1028 808 1061 l 1274 1071 l 1287 928 l 1143 914 l 1275 859 q 1160 756 1224 803 q 1021 671 1096 709 q 1147 623 1082 623 q 1185 644 1175 623 q 1202 725 1196 665 q 1263 686 1227 702 q 1331 661 1299 669 q 1295 543 1318 583 q 1235 488 1272 503 q 1139 473 1197 473 q 992 507 1062 473 q 863 599 922 541 q 676 535 772 562 q 488 489 581 509 q 462 533 479 507 q 428 584 446 559 q 396 627 410 610 q 588 662 492 640 q 771 714 684 684 q 694 869 726 783 l 428 843 l 414 990 m 297 1179 l 453 1131 q 342 856 406 993 l 342 -118 l 184 -118 l 184 583 q 148 533 166 557 q 111 488 129 509 q 90 544 104 509 q 57 612 75 578 q 26 668 40 646 q 132 813 81 730 q 225 989 183 895 q 297 1179 268 1082 m 1108 32 l 1171 32 q 1194 53 1189 32 q 1203 151 1200 75 q 1271 119 1227 135 q 1349 96 1315 102 q 1301 -63 1337 -21 q 1190 -104 1265 -104 l 1076 -104 q 972 -88 1008 -104 q 923 -33 936 -71 q 909 72 909 6 l 909 290 l 781 290 q 739 111 770 189 q 637 -25 707 33 q 440 -123 567 -83 q 398 -53 428 -94 q 342 11 369 -13 q 498 76 442 38 q 578 168 553 115 q 612 290 604 220 l 383 290 l 383 435 l 1307 435 l 1307 290 l 1082 290 l 1082 75 q 1086 39 1082 46 q 1108 32 1090 32 z "},"侦":{"ha":1389,"x_min":25,"x_max":1343,"o":"m 485 791 l 755 791 l 755 1175 l 916 1175 l 916 1071 l 1301 1071 l 1301 922 l 916 922 l 916 791 l 1251 791 l 1251 207 l 1093 207 l 1093 646 l 636 646 l 636 203 l 485 203 l 485 791 m 342 1175 l 497 1128 q 435 978 469 1053 q 359 831 400 903 l 359 -118 l 203 -118 l 203 587 q 158 534 181 560 q 114 484 136 507 q 91 537 106 504 q 57 603 75 570 q 25 656 39 635 q 147 802 87 718 q 257 981 206 885 q 342 1175 307 1076 m 946 578 l 946 386 q 928 254 946 321 q 861 119 909 186 q 723 -7 812 53 q 489 -118 633 -68 q 445 -52 474 -91 q 389 11 415 -13 q 606 96 526 49 q 726 194 686 143 q 778 296 766 245 q 790 390 790 346 l 790 578 l 946 578 m 903 86 l 989 199 q 1114 140 1046 174 q 1243 71 1181 106 q 1343 5 1304 35 l 1253 -121 q 1155 -53 1215 -90 q 1028 22 1095 -15 q 903 86 961 58 z "},"侧":{"ha":1389,"x_min":31,"x_max":1295,"o":"m 510 978 l 510 195 l 382 195 l 382 1095 l 893 1095 l 893 203 l 760 203 l 760 978 l 510 978 m 224 1175 l 363 1141 q 333 1024 349 1083 q 298 907 317 965 l 298 -117 l 165 -117 l 165 576 q 137 525 152 549 q 109 479 123 501 q 89 527 102 496 q 60 589 75 558 q 31 639 44 620 q 143 883 94 740 q 224 1175 193 1026 m 694 909 l 694 396 q 685 254 694 327 q 647 112 675 181 q 566 -18 619 42 q 427 -123 513 -79 q 390 -73 416 -104 q 346 -29 365 -43 q 498 94 450 25 q 561 241 547 163 q 575 397 575 319 l 575 909 l 694 909 m 652 119 l 749 183 q 816 107 781 148 q 881 27 851 66 q 928 -43 910 -12 l 827 -114 q 781 -41 810 -82 q 718 42 751 0 q 652 119 684 84 m 1088 1046 l 1088 196 l 962 196 l 962 1046 l 1088 1046 m 1160 1160 l 1295 1160 l 1295 47 q 1282 -39 1295 -8 q 1240 -87 1270 -71 q 1163 -112 1210 -106 q 1048 -117 1116 -117 q 1033 -48 1044 -89 q 1008 24 1021 -7 q 1086 22 1050 22 q 1136 22 1122 22 q 1160 46 1160 22 l 1160 1160 z "},"侨":{"ha":1389,"x_min":22,"x_max":1357,"o":"m 329 1171 l 479 1122 q 419 972 452 1047 q 346 825 385 897 l 346 -119 l 195 -119 l 195 586 q 151 530 172 557 q 109 481 129 503 q 85 533 100 500 q 53 599 71 566 q 22 652 36 632 q 141 798 83 714 q 247 977 198 881 q 329 1171 295 1072 m 1312 664 l 1101 664 q 1219 546 1152 602 q 1357 457 1286 491 q 1302 400 1333 436 q 1251 338 1270 363 q 1188 379 1219 355 q 1125 431 1156 402 l 1125 -117 l 961 -117 l 961 461 l 1093 461 q 1008 558 1048 506 q 936 664 967 611 l 822 664 q 657 461 755 547 l 770 461 l 770 395 q 749 221 770 315 q 676 37 729 127 q 526 -125 624 -54 q 490 -89 514 -110 q 441 -48 467 -68 q 400 -20 416 -29 q 538 116 492 43 q 598 263 583 190 q 612 399 612 337 l 612 425 q 538 374 577 398 q 456 330 499 351 q 431 373 447 347 q 397 424 415 399 q 364 465 378 450 q 515 550 448 500 q 635 664 583 600 l 414 664 l 414 811 l 724 811 q 751 878 739 844 q 772 949 763 912 q 545 936 654 941 q 529 1005 541 966 q 503 1074 516 1044 q 737 1091 617 1080 q 967 1118 857 1102 q 1161 1154 1077 1134 l 1253 1017 q 937 965 1112 985 q 917 886 928 924 q 892 811 905 848 l 1312 811 l 1312 664 z "},"侮":{"ha":1389,"x_min":25,"x_max":1348,"o":"m 292 1174 l 444 1128 q 397 993 422 1061 q 342 857 372 924 l 342 -119 l 184 -119 l 184 568 q 106 460 145 510 q 84 514 98 480 q 54 582 71 547 q 25 639 38 616 q 130 790 79 704 q 221 974 180 876 q 292 1174 263 1072 m 943 228 l 1076 228 q 1083 295 1080 259 q 1089 375 1086 331 l 876 375 q 941 318 909 348 q 990 261 972 288 l 943 228 m 794 375 l 677 375 q 667 300 673 336 q 656 228 661 263 l 869 228 q 811 287 844 257 q 746 342 778 317 l 794 375 m 828 657 l 713 657 q 704 591 708 624 q 696 525 700 558 l 889 525 q 840 578 868 551 q 783 627 812 604 l 828 657 m 1103 657 l 905 657 q 962 605 936 632 q 1004 555 989 578 l 961 525 l 1097 525 q 1100 589 1098 556 q 1103 657 1102 621 m 1348 375 l 1240 375 q 1227 228 1234 295 l 1312 228 l 1312 87 l 1210 87 q 1166 -41 1194 -8 q 1117 -87 1144 -74 q 1055 -106 1090 -100 q 979 -111 1025 -111 q 882 -109 932 -111 q 869 -41 880 -79 q 840 26 858 -2 q 924 22 885 22 q 983 21 962 21 q 1011 25 1000 21 q 1032 43 1023 30 q 1053 87 1043 56 l 476 87 q 524 375 500 210 l 401 375 l 401 525 l 545 525 q 559 644 553 585 q 571 758 566 703 q 541 714 556 735 q 511 676 526 694 q 471 706 496 689 q 420 739 446 723 q 374 765 394 755 q 505 951 446 840 q 600 1177 565 1062 l 757 1137 q 739 1087 749 1112 q 718 1036 728 1062 l 1307 1036 l 1307 889 l 647 889 q 622 842 635 865 q 596 798 610 819 l 1260 798 q 1260 784 1260 798 q 1259 755 1259 771 q 1258 728 1259 739 q 1253 622 1256 673 q 1249 525 1251 572 l 1348 525 l 1348 375 z "},"侯":{"ha":1389,"x_min":43,"x_max":1356,"o":"m 300 1173 l 453 1128 q 408 992 432 1061 q 354 857 383 924 l 354 -121 l 193 -121 l 193 551 q 159 502 176 526 q 123 456 141 477 q 103 510 117 476 q 73 578 89 544 q 43 633 56 612 q 191 877 123 734 q 300 1173 258 1020 m 1320 205 l 974 205 q 1101 97 1013 149 q 1356 17 1189 45 q 1305 -48 1329 -7 q 1270 -121 1281 -90 q 1010 -17 1104 -83 q 865 123 916 49 q 725 -12 817 53 q 482 -129 633 -77 q 435 -66 467 -103 q 376 -7 404 -30 q 615 93 532 37 q 733 205 698 149 l 410 205 l 410 349 l 777 349 q 777 361 777 355 q 777 374 777 368 l 777 485 l 618 485 q 572 422 595 452 q 526 370 548 393 q 465 413 505 388 q 399 453 425 438 q 500 575 453 503 q 579 722 548 648 l 418 722 l 418 863 l 946 863 q 956 922 951 892 q 964 981 961 951 l 536 981 l 536 1118 l 997 1118 l 1022 1125 l 1140 1111 q 1125 984 1134 1048 q 1105 863 1116 920 l 1324 863 l 1324 722 l 612 722 l 729 689 q 715 655 723 672 q 699 623 708 639 l 1251 623 l 1251 485 l 940 485 l 940 371 l 940 349 l 1320 349 l 1320 205 z "},"侵":{"ha":1389,"x_min":26,"x_max":1332,"o":"m 1243 1129 l 1243 648 l 529 648 l 529 764 l 1089 764 l 1089 832 l 575 832 l 575 949 l 1089 949 l 1089 1014 l 529 1014 l 529 1129 l 1243 1129 m 342 1173 l 498 1122 q 436 977 471 1050 q 364 833 402 903 l 364 -119 l 207 -119 l 207 589 q 161 531 184 559 q 115 479 138 504 q 92 533 108 500 q 58 598 76 566 q 26 652 40 631 q 148 798 89 714 q 257 977 207 881 q 342 1173 307 1073 m 1011 283 l 732 283 q 797 217 760 248 q 878 158 834 185 q 951 216 918 185 q 1011 283 984 247 m 1332 355 l 1210 355 q 1018 90 1143 193 q 1165 45 1087 64 q 1329 14 1244 25 q 1277 -49 1304 -10 q 1235 -118 1251 -88 q 1045 -72 1135 -100 q 879 -1 956 -43 q 696 -75 795 -46 q 489 -122 598 -104 q 459 -53 479 -93 q 419 12 439 -12 q 589 42 508 23 q 743 89 670 61 q 656 170 695 126 q 583 262 616 214 l 642 283 l 576 283 l 576 410 l 1099 410 l 1125 414 l 1187 389 l 1187 473 l 575 473 l 575 354 l 437 354 l 437 589 l 1332 589 l 1332 355 z "},"便":{"ha":1389,"x_min":37,"x_max":1365,"o":"m 642 440 l 807 440 q 808 468 808 454 q 808 494 808 482 l 808 543 l 642 543 l 642 440 m 642 757 l 642 656 l 808 656 l 808 757 l 642 757 m 1126 757 l 972 757 l 972 656 l 1126 656 l 1126 757 m 1126 440 l 1126 543 l 972 543 l 972 493 q 972 467 972 481 q 971 440 972 454 l 1126 440 m 1286 319 l 956 319 q 923 218 944 267 q 871 122 902 168 q 1098 70 973 89 q 1365 43 1223 50 q 1310 -31 1338 15 q 1265 -111 1281 -77 q 987 -70 1114 -98 q 753 5 859 -41 q 481 -122 648 -71 q 453 -78 471 -104 q 416 -27 436 -52 q 380 14 397 -3 q 606 90 522 43 q 517 164 559 123 q 440 252 475 205 l 583 301 q 647 238 612 267 q 725 184 682 210 q 767 249 751 216 q 791 319 783 283 l 489 319 l 489 878 l 808 878 l 808 961 l 471 961 l 471 1084 q 418 955 447 1020 q 357 827 389 890 l 357 -118 l 199 -118 l 199 570 q 163 523 181 545 q 127 481 146 500 q 104 533 120 500 q 70 598 88 566 q 37 652 52 631 q 151 799 96 715 q 251 978 205 882 q 329 1173 297 1074 l 485 1124 l 478 1105 l 1321 1105 l 1321 961 l 972 961 l 972 878 l 1286 878 l 1286 319 z "},"促":{"ha":1389,"x_min":20,"x_max":1352,"o":"m 294 1175 l 447 1131 q 402 1002 427 1067 q 349 873 378 937 l 349 -119 l 184 -119 l 184 574 q 100 461 141 511 q 80 515 94 481 q 49 583 66 549 q 20 639 33 617 q 127 790 76 704 q 222 975 179 877 q 294 1175 264 1074 m 684 974 l 684 757 l 1082 757 l 1082 974 l 684 974 m 977 294 l 977 66 q 1072 62 1022 62 q 1127 62 1091 62 q 1206 63 1164 62 q 1288 63 1249 63 q 1352 64 1327 63 q 1321 -10 1336 37 q 1301 -90 1307 -57 l 1060 -90 q 880 -74 962 -90 q 730 -15 798 -58 q 611 106 663 27 q 479 -122 560 -33 q 441 -91 465 -109 q 392 -54 417 -72 q 349 -26 367 -37 q 480 200 438 60 q 536 509 522 340 l 694 493 q 665 301 684 393 q 728 190 691 234 q 810 118 765 145 l 810 614 l 526 614 l 526 1118 l 1249 1118 l 1249 614 l 977 614 l 977 449 l 1270 449 l 1270 294 l 977 294 z "},"俄":{"ha":1389,"x_min":20,"x_max":1358,"o":"m 1336 871 l 1208 814 q 1181 892 1199 847 q 1142 984 1164 937 q 1099 1072 1120 1031 l 1219 1121 q 1288 992 1255 1063 q 1336 871 1322 921 m 741 758 l 911 758 q 907 886 909 821 q 905 1015 905 951 q 741 958 831 982 l 741 758 m 1171 568 l 1317 532 q 1233 351 1281 437 q 1126 187 1185 264 q 1162 75 1142 115 q 1204 35 1181 35 q 1228 82 1219 35 q 1240 235 1237 130 q 1297 183 1263 208 q 1358 146 1330 158 q 1328 -18 1348 40 q 1273 -99 1308 -76 q 1183 -122 1238 -122 q 1082 -75 1125 -122 q 1008 53 1038 -28 q 848 -79 934 -22 q 820 -42 838 -64 q 781 2 801 -20 q 745 36 760 23 q 860 119 805 73 q 964 218 915 165 q 936 404 947 303 q 918 615 924 505 l 741 615 l 741 457 l 888 492 l 904 345 q 823 324 865 334 q 741 302 781 313 l 741 56 q 727 -39 741 -6 q 675 -90 713 -71 q 586 -115 640 -109 q 457 -121 532 -121 q 439 -45 453 -89 q 410 31 425 -1 q 499 30 456 30 q 557 31 541 30 q 578 36 572 31 q 585 57 585 41 l 585 262 q 493 239 538 250 q 408 218 449 227 l 371 376 q 470 397 416 386 q 585 422 524 409 l 585 615 l 375 615 l 375 758 l 585 758 l 585 917 q 501 899 542 907 q 419 884 460 890 q 390 970 410 924 q 367 913 379 941 q 342 857 354 885 l 342 -119 l 184 -119 l 184 572 q 142 514 164 542 q 100 460 121 486 q 80 514 94 480 q 49 582 66 547 q 20 639 33 616 q 127 789 76 703 q 222 973 179 875 q 294 1174 264 1072 l 447 1128 q 428 1074 438 1102 q 408 1018 418 1046 q 616 1076 513 1042 q 790 1143 720 1109 l 905 1021 q 904 1087 905 1054 q 904 1156 904 1121 l 1064 1156 q 1063 954 1062 1055 q 1067 758 1063 853 l 1315 758 l 1315 615 l 1074 615 q 1082 502 1078 557 q 1093 399 1087 448 q 1135 481 1116 438 q 1171 568 1154 524 z "},"俊":{"ha":1389,"x_min":29,"x_max":1335,"o":"m 1296 828 l 1164 753 q 1143 789 1154 770 q 1117 828 1131 808 q 862 804 965 814 q 693 788 759 795 q 589 776 627 781 q 529 765 551 770 q 493 754 508 760 q 480 795 489 770 q 461 848 471 821 q 443 896 452 876 q 484 913 464 900 q 528 949 505 927 q 578 997 545 962 q 651 1080 612 1032 q 722 1181 690 1128 l 880 1132 q 798 1030 842 1081 q 705 936 753 980 l 1021 958 q 977 1014 999 987 q 933 1067 956 1042 l 1054 1132 q 1143 1032 1097 1086 q 1231 924 1190 977 q 1296 828 1272 870 m 911 711 l 1025 791 q 1135 716 1076 758 q 1246 632 1193 674 q 1335 555 1299 590 l 1211 467 q 1129 545 1180 501 q 1021 632 1078 588 q 911 711 963 675 m 667 772 l 808 711 q 710 616 764 665 q 600 522 656 567 q 496 443 544 477 q 464 480 484 458 q 424 525 445 503 q 387 559 404 547 q 536 658 459 600 q 667 772 612 716 m 340 1179 l 496 1131 q 434 981 468 1057 q 359 833 399 906 l 359 -119 l 203 -119 l 203 589 q 160 536 182 561 q 118 488 139 511 q 95 542 111 509 q 61 607 79 574 q 29 660 43 640 q 149 806 90 722 q 257 984 208 889 q 340 1179 307 1080 m 1004 343 l 720 343 q 865 201 776 266 q 942 267 907 232 q 1004 343 977 302 m 1122 479 l 1232 429 q 1137 255 1194 332 q 1008 118 1081 178 q 1156 62 1077 85 q 1326 24 1236 38 q 1274 -43 1301 -1 q 1231 -117 1246 -85 q 1036 -59 1125 -95 q 871 21 946 -24 q 679 -64 781 -29 q 465 -123 576 -100 q 430 -49 453 -92 q 385 18 407 -7 q 568 60 479 34 q 733 123 656 86 q 618 250 667 181 q 569 208 593 228 q 522 171 546 189 q 489 206 510 185 q 447 248 469 227 q 408 281 425 268 q 588 423 500 338 q 733 599 677 508 l 876 546 q 852 510 865 528 q 827 473 839 492 l 1093 473 l 1122 479 z "},"俏":{"ha":1389,"x_min":36,"x_max":1326,"o":"m 1165 1145 l 1326 1088 q 1256 945 1293 1015 q 1187 827 1219 876 l 1044 879 q 1087 961 1065 915 q 1131 1055 1110 1006 q 1165 1145 1152 1103 m 332 1171 l 488 1124 q 430 978 461 1050 q 363 835 399 905 l 363 -118 l 205 -118 l 205 579 q 165 527 186 552 q 125 479 145 502 q 101 533 117 500 q 68 598 85 566 q 36 652 50 631 q 151 799 95 715 q 253 978 206 882 q 332 1171 299 1073 m 753 885 l 603 817 q 575 895 595 850 q 530 987 556 940 q 478 1074 505 1034 l 616 1135 q 698 1008 659 1078 q 753 885 737 939 m 673 292 l 1114 292 l 1114 396 l 673 396 l 673 292 m 1114 636 l 673 636 l 673 534 l 1114 534 l 1114 636 m 1275 790 l 1275 60 q 1261 -35 1275 -1 q 1208 -89 1248 -70 q 1113 -113 1170 -109 q 978 -117 1056 -117 q 959 -38 974 -83 q 928 39 945 7 q 1023 35 976 36 q 1086 35 1069 35 q 1114 61 1114 37 l 1114 153 l 673 153 l 673 -118 l 513 -118 l 513 790 l 815 790 l 815 1177 l 982 1177 l 982 790 l 1275 790 z "},"俐":{"ha":1389,"x_min":26,"x_max":1297,"o":"m 720 618 l 720 593 q 762 546 735 577 q 819 478 789 514 q 873 411 849 441 q 908 367 898 380 l 821 229 q 776 306 803 262 q 720 395 749 350 l 720 -100 l 570 -100 l 570 330 q 497 193 535 258 q 419 81 460 128 q 384 159 408 114 q 340 233 360 203 q 420 343 380 280 q 495 478 460 407 q 555 618 530 549 l 383 618 l 383 766 l 570 766 l 570 935 q 495 921 532 928 q 424 908 459 913 q 396 989 417 945 q 368 916 383 952 q 336 843 353 880 l 336 -119 l 184 -119 l 184 568 q 146 513 166 540 q 107 463 125 486 q 85 517 100 483 q 55 585 71 551 q 26 642 39 619 q 131 793 81 707 q 223 977 181 879 q 294 1175 265 1074 l 447 1131 q 430 1083 439 1107 q 412 1034 422 1059 q 620 1084 517 1054 q 793 1145 723 1114 l 904 1025 q 815 994 863 1008 q 720 968 768 979 l 720 766 l 879 766 l 879 618 l 720 618 m 1063 1008 l 1063 204 l 925 204 l 925 1008 l 1063 1008 m 1149 1156 l 1297 1156 l 1297 56 q 1284 -38 1297 -5 q 1236 -90 1272 -71 q 1148 -113 1202 -108 q 1018 -118 1095 -118 q 1002 -45 1015 -88 q 975 31 989 -2 q 1063 28 1021 28 q 1121 28 1105 28 q 1149 56 1149 28 l 1149 1156 z "},"俗":{"ha":1389,"x_min":25,"x_max":1364,"o":"m 1333 840 l 1194 742 q 1115 845 1164 785 q 1009 966 1065 904 q 905 1080 954 1029 l 1034 1165 q 1136 1058 1080 1117 q 1246 942 1193 1000 q 1333 840 1299 885 m 672 1162 l 827 1107 q 738 966 788 1038 q 635 832 688 895 q 534 721 583 768 q 495 755 519 735 q 445 793 471 774 q 400 825 419 812 q 500 921 450 866 q 595 1039 551 977 q 672 1162 640 1101 m 596 414 l 1117 414 q 980 537 1044 470 q 857 692 916 605 q 596 414 746 527 m 677 78 l 1021 78 l 1021 268 l 677 268 l 677 78 m 807 932 l 957 880 q 946 856 951 868 q 935 832 941 844 q 1127 611 1021 698 q 1364 460 1233 524 q 1303 395 1334 433 q 1257 319 1272 356 q 1221 342 1239 331 q 1185 366 1202 354 l 1185 -113 l 1021 -113 l 1021 -68 l 677 -68 l 677 -122 l 521 -122 l 521 361 q 456 322 486 339 q 414 388 440 353 q 358 452 387 423 l 358 -121 l 201 -121 l 201 585 q 158 529 180 555 q 115 481 136 503 q 92 533 108 500 q 58 599 76 566 q 25 652 39 631 q 145 798 87 714 q 252 977 203 881 q 335 1171 300 1072 l 490 1122 q 430 975 465 1049 q 358 831 396 901 l 358 467 q 623 655 505 536 q 807 932 741 774 z "},"俘":{"ha":1389,"x_min":31,"x_max":1329,"o":"m 1194 1175 l 1292 1040 q 1047 992 1181 1012 q 773 962 913 973 q 501 946 632 951 q 485 1016 497 976 q 461 1083 473 1055 q 725 1102 590 1090 q 982 1133 860 1114 q 1194 1175 1103 1151 m 960 750 l 814 700 q 786 805 804 743 q 750 917 768 867 l 890 961 q 930 851 910 910 q 960 750 949 793 m 319 1171 l 473 1124 q 419 982 450 1053 q 355 843 389 912 l 355 -118 l 195 -118 l 195 576 q 157 527 176 551 q 119 482 138 504 q 96 534 112 501 q 62 599 80 566 q 31 652 45 631 q 142 799 88 715 q 242 978 197 882 q 319 1171 288 1073 m 1329 367 l 1329 216 l 981 216 l 981 35 q 968 -50 981 -20 q 918 -97 956 -79 q 833 -117 882 -114 q 721 -119 785 -119 q 701 -48 715 -88 q 671 22 686 -9 q 747 20 709 20 q 798 20 785 20 q 816 24 811 20 q 821 39 821 27 l 821 216 l 418 216 l 418 367 l 821 367 l 821 427 q 894 477 857 447 q 966 539 931 507 l 505 539 l 505 688 l 570 688 q 532 784 557 728 q 484 885 507 840 l 618 936 q 670 839 644 892 q 708 747 696 785 l 572 688 l 1116 688 l 1128 690 l 1011 741 q 1073 860 1040 790 q 1125 989 1105 930 l 1279 928 q 1211 803 1246 865 q 1146 696 1176 741 l 1150 697 l 1257 611 q 1128 488 1200 551 q 981 374 1055 426 l 981 367 l 1329 367 z "},"保":{"ha":1389,"x_min":28,"x_max":1373,"o":"m 355 1174 l 509 1124 q 449 986 481 1056 q 379 850 416 917 l 379 -118 l 222 -118 l 222 608 q 170 544 196 575 q 117 485 144 513 q 93 537 109 505 q 59 602 77 570 q 28 654 41 634 q 154 800 92 717 q 268 979 216 884 q 355 1174 319 1075 m 693 971 l 693 785 l 1100 785 l 1100 971 l 693 971 m 1333 364 l 1055 364 q 1201 193 1117 273 q 1373 61 1286 112 q 1311 -1 1345 37 q 1257 -71 1277 -39 q 1107 64 1181 -17 q 975 237 1034 145 l 975 -121 l 808 -121 l 808 231 q 668 62 745 139 q 509 -68 591 -15 q 456 1 490 -38 q 395 64 422 40 q 576 192 488 113 q 729 364 665 272 l 444 364 l 444 514 l 808 514 l 808 639 l 536 639 l 536 1117 l 1265 1117 l 1265 639 l 975 639 l 975 514 l 1333 514 l 1333 364 z "},"信":{"ha":1389,"x_min":36,"x_max":1331,"o":"m 328 1171 l 475 1126 q 428 1003 453 1065 q 372 880 402 941 l 372 -126 l 222 -126 l 222 621 q 172 552 197 585 q 121 489 146 518 q 99 539 114 508 q 66 601 83 570 q 36 652 50 632 q 149 799 94 715 q 250 978 204 882 q 328 1171 296 1073 m 1101 212 l 653 212 l 653 56 l 1101 56 l 1101 212 m 513 -119 l 513 345 l 1247 345 l 1247 -115 l 1101 -115 l 1101 -77 l 653 -77 l 653 -119 l 513 -119 m 533 422 l 533 551 l 1229 551 l 1229 422 l 533 422 m 1229 753 l 1229 624 l 533 624 l 533 753 l 1229 753 m 909 961 l 1331 961 l 1331 827 l 436 827 l 436 961 l 833 961 q 794 1044 818 1000 q 747 1126 770 1089 l 888 1179 q 946 1085 917 1137 q 989 996 975 1034 l 909 961 z "},"俩":{"ha":1389,"x_min":32,"x_max":1326,"o":"m 911 787 l 911 937 l 814 937 l 814 787 l 911 787 m 1149 322 l 1149 644 l 1046 644 q 1044 581 1046 613 q 1039 514 1042 548 q 1098 417 1069 468 q 1149 322 1126 367 m 911 644 l 812 644 q 800 494 810 574 q 848 426 825 461 q 884 364 870 391 q 905 510 900 437 q 911 644 910 583 m 568 644 l 568 227 q 631 361 609 289 q 661 507 652 434 q 671 644 669 581 l 568 644 m 1326 937 l 1046 937 l 1046 787 l 1293 787 l 1293 62 q 1281 -23 1293 8 q 1234 -72 1269 -54 q 1147 -93 1199 -89 q 1025 -97 1096 -97 q 1009 -27 1022 -67 q 982 43 996 14 q 1068 40 1025 41 q 1124 40 1110 40 q 1149 64 1149 40 l 1149 229 l 1078 165 q 1049 238 1067 197 q 1008 323 1030 279 q 961 185 989 252 q 886 62 932 118 q 842 113 871 84 q 789 158 814 142 q 845 249 823 199 q 880 353 867 298 l 803 265 q 787 298 797 280 q 765 336 777 316 q 713 203 745 267 q 635 83 682 138 q 568 153 609 117 l 568 -114 l 422 -114 l 422 787 l 672 787 l 672 937 l 399 937 l 399 1086 q 368 989 384 1037 q 334 893 352 941 l 334 -119 l 183 -119 l 183 579 q 147 521 165 549 q 111 468 129 493 q 90 519 104 488 q 60 584 76 551 q 32 637 45 616 q 167 880 106 737 q 265 1174 228 1023 l 412 1133 l 400 1092 l 1326 1092 l 1326 937 z "},"俭":{"ha":1389,"x_min":25,"x_max":1360,"o":"m 615 746 l 1086 746 q 822 965 940 850 q 724 850 777 905 q 615 746 671 795 m 562 607 l 562 703 q 491 650 528 675 q 418 604 454 626 q 385 661 407 626 q 342 721 363 695 l 342 -119 l 184 -119 l 184 566 q 145 510 165 536 q 106 460 125 484 q 84 515 98 481 q 54 583 71 549 q 25 640 38 618 q 132 790 81 705 q 227 975 184 876 q 298 1175 269 1073 l 452 1129 q 401 989 429 1059 q 342 848 374 918 l 342 749 q 518 864 433 797 q 673 1014 603 932 q 791 1186 744 1096 l 933 1135 q 905 1088 920 1108 q 1039 971 963 1029 q 1198 863 1116 913 q 1360 781 1281 813 q 1316 703 1338 749 q 1282 623 1293 656 q 1133 713 1211 661 l 1133 607 l 562 607 m 957 240 l 819 214 q 805 311 815 256 q 781 423 794 366 q 755 529 768 480 l 886 551 q 928 390 908 476 q 957 240 947 304 m 694 200 l 561 158 q 541 260 555 203 q 509 377 527 317 q 473 488 492 436 l 602 524 q 639 414 621 472 q 672 299 657 355 q 694 200 686 243 m 1108 534 l 1265 501 q 1172 284 1223 396 q 1072 83 1121 172 l 1296 83 l 1296 -66 l 406 -66 l 406 83 l 926 83 q 995 225 960 146 q 1059 385 1029 304 q 1108 534 1088 465 z "},"修":{"ha":1389,"x_min":25,"x_max":1360,"o":"m 298 1171 l 452 1125 q 342 846 404 983 l 342 -121 l 184 -121 l 184 562 q 145 508 165 534 q 106 457 125 481 q 84 511 98 477 q 54 579 70 545 q 25 636 37 614 q 132 788 81 701 q 226 972 183 874 q 298 1171 269 1070 m 1089 904 l 815 904 q 954 770 870 833 q 1028 832 994 800 q 1089 904 1062 865 m 1203 1042 l 1299 996 q 1206 829 1262 903 q 1080 696 1150 754 q 1211 643 1141 666 q 1360 607 1280 621 q 1311 544 1337 583 q 1270 475 1285 505 q 1099 530 1179 497 q 954 606 1020 564 q 787 525 875 559 q 606 467 699 490 q 584 510 597 486 q 554 555 570 534 l 554 113 l 418 113 l 418 782 l 554 782 l 554 596 q 835 697 705 629 q 779 752 804 723 q 730 811 753 782 q 644 721 688 761 q 609 752 631 734 q 563 789 587 771 q 521 817 539 806 q 668 976 602 880 q 771 1177 733 1072 l 921 1140 q 900 1088 910 1114 q 876 1036 889 1062 l 1178 1036 l 1203 1042 m 1095 406 l 1213 355 q 1001 203 1131 266 q 729 104 871 140 q 693 158 715 128 q 648 208 671 187 q 820 254 735 226 q 977 320 905 282 q 1095 406 1048 358 m 958 539 l 1079 489 q 919 374 1015 423 q 726 293 823 324 q 687 343 712 316 q 639 389 663 370 q 759 427 698 404 q 872 479 819 450 q 958 539 924 507 m 1194 252 l 1336 193 q 1051 -8 1227 66 q 663 -121 875 -81 q 626 -54 649 -91 q 579 9 603 -16 q 825 59 707 27 q 1039 138 943 90 q 1194 252 1135 185 z "},"俯":{"ha":1389,"x_min":25,"x_max":1340,"o":"m 288 1174 l 433 1131 q 385 986 412 1059 q 325 843 357 914 l 325 -118 l 172 -118 l 172 561 q 103 468 137 509 q 83 519 96 487 q 54 585 70 552 q 25 639 38 618 q 128 790 79 704 q 218 975 177 877 q 288 1174 259 1073 m 1227 871 l 1227 707 l 1328 707 l 1328 570 l 1227 570 l 1227 47 q 1217 -36 1227 -6 q 1174 -83 1206 -66 q 1096 -106 1142 -101 q 985 -111 1049 -111 q 969 -42 981 -81 q 945 28 958 -3 q 1018 26 984 26 q 1065 26 1053 26 q 1083 32 1078 27 q 1089 49 1089 36 l 1089 570 l 838 570 l 838 707 l 1089 707 l 1089 871 l 1227 871 m 1072 229 l 960 165 q 925 253 947 203 q 877 355 903 303 q 828 453 851 408 l 935 505 q 987 412 961 462 q 1036 314 1014 361 q 1072 229 1059 266 m 979 1051 l 1340 1051 l 1340 908 l 568 908 l 568 553 q 568 520 568 537 q 568 488 568 504 q 637 610 606 541 q 689 753 667 680 q 724 893 711 827 l 857 861 q 828 762 844 812 q 793 661 812 711 l 793 -110 l 657 -110 l 657 401 q 636 373 646 387 q 614 347 625 359 q 595 406 609 370 q 567 468 581 442 q 555 265 565 372 q 525 59 546 159 q 465 -119 503 -41 q 429 -91 452 -107 q 380 -60 405 -75 q 339 -37 355 -45 q 395 148 378 45 q 417 356 412 250 q 421 553 421 461 l 421 1051 l 814 1051 q 775 1153 795 1104 l 922 1189 q 952 1120 937 1156 q 979 1051 968 1084 z "},"俱":{"ha":1389,"x_min":17,"x_max":1344,"o":"m 334 1173 l 489 1124 q 428 980 462 1053 q 357 838 395 907 l 357 -119 l 200 -119 l 200 591 q 153 533 177 562 q 107 481 130 505 q 83 533 99 500 q 50 599 68 566 q 17 652 31 631 q 139 798 79 714 q 248 977 198 881 q 334 1173 298 1073 m 693 416 l 693 334 l 1061 334 l 1061 416 l 693 416 m 1061 994 l 693 994 l 693 914 l 1061 914 l 1061 994 m 1061 610 l 693 610 l 693 528 l 1061 528 l 1061 610 m 1061 721 l 1061 803 l 693 803 l 693 721 l 1061 721 m 1329 187 l 1083 187 q 1178 123 1128 157 q 1272 54 1227 88 q 1344 -9 1316 20 l 1232 -123 q 1156 -51 1204 -92 q 1054 30 1108 -11 q 951 104 1000 71 l 1038 187 l 715 187 l 819 113 q 673 -22 758 39 q 505 -123 589 -83 q 459 -63 489 -98 q 404 -5 430 -28 q 552 81 478 28 q 676 187 625 134 l 408 187 l 408 334 l 536 334 l 536 1125 l 1225 1125 l 1225 334 l 1329 334 l 1329 187 z "},"俺":{"ha":1389,"x_min":25,"x_max":1369,"o":"m 985 24 l 1137 24 q 1179 45 1168 24 q 1196 134 1191 66 l 925 134 l 925 87 q 936 35 925 46 q 985 24 946 24 m 653 262 l 770 262 l 770 340 l 653 340 l 653 262 m 347 817 l 347 596 q 493 715 429 646 q 607 869 558 784 l 418 869 l 418 964 q 384 890 401 926 q 347 817 367 853 m 1048 340 l 925 340 l 925 262 l 1048 262 l 1048 340 m 925 532 l 925 457 l 1048 457 l 1048 532 l 925 532 m 653 532 l 653 457 l 770 457 l 770 532 l 653 532 m 951 869 l 787 869 q 728 760 760 812 q 659 660 696 707 l 770 660 l 770 757 l 925 757 l 925 660 l 1067 660 q 1004 760 1032 707 q 951 869 975 813 m 1340 869 l 1112 869 q 1225 710 1158 783 q 1369 593 1291 637 q 1310 534 1342 571 q 1261 468 1278 497 q 1230 490 1246 479 q 1200 514 1215 501 l 1200 154 q 1263 121 1225 136 q 1333 98 1302 106 q 1306 -28 1325 18 q 1250 -93 1286 -74 q 1152 -113 1213 -113 l 962 -113 q 844 -95 886 -113 q 786 -34 802 -77 q 770 87 770 9 l 770 134 l 653 134 l 653 81 l 504 81 l 504 503 q 473 479 488 490 q 441 456 458 467 q 400 512 428 477 q 347 572 372 547 l 347 -118 l 189 -118 l 189 567 q 153 520 171 543 q 117 478 134 498 q 93 531 109 498 q 58 597 77 564 q 25 652 39 631 q 141 798 85 714 q 244 977 197 881 q 323 1171 291 1072 l 481 1121 q 461 1068 471 1095 q 440 1015 452 1042 l 676 1015 q 703 1094 691 1054 q 725 1177 715 1134 l 886 1146 q 868 1080 878 1112 q 847 1015 858 1048 l 1340 1015 l 1340 869 z "},"倍":{"ha":1389,"x_min":28,"x_max":1337,"o":"m 338 1171 l 490 1122 q 429 975 463 1049 q 357 829 395 901 l 357 -121 l 199 -121 l 199 582 q 117 484 158 532 q 93 535 109 503 q 59 599 77 567 q 28 652 41 631 q 148 798 90 715 q 254 977 205 882 q 338 1171 303 1072 m 1061 262 l 699 262 l 699 72 l 1061 72 l 1061 262 m 543 -121 l 543 407 l 1225 407 l 1225 -115 l 1061 -115 l 1061 -72 l 699 -72 l 699 -121 l 543 -121 m 1039 879 l 715 879 q 759 774 741 831 q 786 675 778 717 l 685 643 l 956 643 q 1002 759 979 693 q 1039 879 1025 825 m 1111 643 l 1337 643 l 1337 496 l 433 496 l 433 643 l 637 643 q 613 742 630 687 q 576 842 596 797 l 704 879 l 489 879 l 489 1025 l 810 1025 q 793 1096 802 1059 q 774 1164 784 1133 l 926 1192 q 955 1108 941 1153 q 977 1025 969 1063 l 1291 1025 l 1291 879 l 1069 879 l 1198 848 q 1155 742 1177 795 q 1111 643 1133 688 z "},"倒":{"ha":1389,"x_min":24,"x_max":1299,"o":"m 903 951 l 667 951 q 621 852 646 903 q 568 757 596 802 l 734 782 q 710 826 722 804 q 685 868 697 848 l 802 916 q 886 776 845 852 q 949 642 928 700 l 949 1054 l 1089 1054 l 1089 229 l 949 229 l 949 629 l 828 572 q 791 665 815 614 q 616 633 684 646 q 510 612 549 621 q 453 597 472 604 q 421 583 433 591 q 400 649 416 606 q 374 720 385 691 q 431 778 403 730 q 464 843 441 795 q 507 951 486 891 l 406 951 l 406 1089 l 903 1089 l 903 951 m 267 1175 l 416 1133 q 314 842 374 986 l 314 -119 l 163 -119 l 163 547 q 131 502 147 524 q 100 458 115 479 q 81 514 94 479 q 53 583 68 548 q 24 640 37 618 q 120 793 75 706 q 203 977 166 880 q 267 1175 241 1075 m 708 317 l 708 175 q 810 193 758 184 q 914 211 863 201 l 924 78 q 632 21 779 49 q 371 -28 486 -6 l 346 118 q 444 132 391 124 q 555 150 497 140 l 555 317 l 383 317 l 383 453 l 555 453 l 555 582 l 708 582 l 708 453 l 900 453 l 900 317 l 708 317 m 1152 1135 l 1299 1135 l 1299 68 q 1284 -26 1299 7 q 1231 -77 1269 -59 q 1138 -99 1194 -94 q 1002 -104 1082 -104 q 979 -32 995 -74 q 947 39 963 9 q 1053 36 1004 37 q 1120 36 1102 36 q 1144 44 1137 37 q 1152 66 1152 50 l 1152 1135 z "},"倔":{"ha":1389,"x_min":36,"x_max":1300,"o":"m 317 1173 l 472 1125 q 422 986 450 1057 q 361 846 393 915 l 361 -119 l 203 -119 l 203 568 q 164 515 184 541 q 126 467 145 490 q 102 519 119 486 q 68 584 86 551 q 36 637 50 617 q 145 790 92 703 q 242 974 198 876 q 317 1173 286 1072 m 1137 986 l 635 986 l 635 871 l 1137 871 l 1137 986 m 1292 734 l 635 734 l 635 681 q 630 490 635 594 q 613 277 625 386 q 576 64 600 168 q 514 -122 553 -39 q 476 -91 500 -109 q 427 -57 452 -73 q 385 -33 402 -41 q 439 134 419 43 q 468 320 458 224 q 479 509 477 416 q 482 681 482 601 l 482 1122 l 1292 1122 l 1292 734 m 1166 269 l 1300 269 l 1300 -115 l 1166 -115 l 1166 -74 l 673 -74 l 673 271 l 804 271 l 804 56 l 914 56 l 914 330 l 693 330 l 693 648 l 822 648 l 822 460 l 914 460 l 914 697 l 1050 697 l 1050 460 l 1150 460 l 1150 652 l 1284 652 l 1284 330 l 1050 330 l 1050 56 l 1166 56 l 1166 269 z "},"倘":{"ha":1389,"x_min":35,"x_max":1287,"o":"m 1135 1143 l 1287 1093 q 1192 942 1242 1018 q 1099 811 1142 865 l 981 857 q 1037 946 1008 896 q 1091 1048 1065 996 q 1135 1143 1117 1099 m 294 1174 l 447 1129 q 399 989 425 1061 q 343 848 373 918 l 343 -119 l 184 -119 l 184 554 q 115 461 150 502 q 95 514 109 481 q 65 582 81 547 q 35 637 49 616 q 137 790 88 703 q 226 975 186 877 q 294 1174 267 1073 m 733 879 l 606 808 q 566 895 591 846 q 508 992 541 943 q 443 1083 476 1041 l 564 1143 q 663 1009 616 1082 q 733 879 709 935 m 914 414 l 804 414 l 804 268 l 914 268 l 914 414 m 1044 143 l 804 143 l 804 77 l 676 77 l 676 539 l 1044 539 l 1044 143 m 1275 768 l 1275 54 q 1262 -38 1275 -4 q 1210 -90 1249 -71 q 1117 -113 1173 -109 q 983 -117 1061 -117 q 964 -41 978 -84 q 936 33 951 2 q 1028 31 983 31 q 1089 31 1074 31 q 1118 57 1118 31 l 1118 621 l 604 621 l 604 -121 l 447 -121 l 447 768 l 775 768 l 775 1177 l 942 1177 l 942 768 l 1275 768 z "},"候":{"ha":1389,"x_min":33,"x_max":1368,"o":"m 292 1173 l 444 1128 q 395 983 422 1057 q 338 839 368 909 l 338 -121 l 180 -121 l 180 549 q 114 457 147 498 q 94 511 108 477 q 63 579 79 545 q 33 635 47 613 q 135 788 86 701 q 223 973 183 875 q 292 1173 264 1072 m 551 899 l 551 154 l 408 154 l 408 899 l 551 899 m 1336 225 l 1067 225 q 1121 148 1086 186 q 1216 75 1156 109 q 1368 20 1276 41 q 1315 -43 1342 -3 q 1275 -114 1289 -83 q 1083 -18 1155 -77 q 971 110 1011 42 q 844 -15 926 44 q 632 -121 762 -74 q 585 -60 616 -96 q 526 -3 553 -24 q 757 103 682 43 q 861 225 832 163 l 593 225 l 593 364 l 888 364 l 888 496 l 779 496 q 736 427 758 458 q 690 368 713 395 q 628 412 667 387 q 562 450 589 437 q 655 579 614 503 q 721 734 697 656 l 590 734 l 590 872 l 1048 872 q 1057 927 1053 899 q 1064 982 1061 955 l 653 982 l 653 1118 l 1096 1118 l 1121 1125 l 1236 1111 q 1222 991 1230 1052 q 1203 872 1213 930 l 1329 872 l 1329 734 l 741 734 l 871 704 q 858 668 865 686 q 844 632 852 650 l 1296 632 l 1296 496 l 1048 496 l 1048 364 l 1336 364 l 1336 225 z "},"倚":{"ha":1389,"x_min":18,"x_max":1344,"o":"m 335 1171 l 489 1121 q 428 977 462 1049 q 357 833 395 904 l 357 -118 l 199 -118 l 199 587 q 107 479 153 529 q 84 533 99 500 q 51 598 68 566 q 18 652 33 631 q 140 798 81 714 q 250 977 199 881 q 335 1171 300 1072 m 800 288 l 640 288 l 640 183 l 800 183 l 800 288 m 946 69 l 640 69 l 640 -12 l 497 -12 l 497 403 l 946 403 l 946 69 m 541 621 l 1183 621 q 1034 699 1123 657 q 861 778 945 741 q 734 687 811 726 q 541 621 657 649 m 1344 621 l 1344 478 l 1236 478 l 1236 40 q 1221 -51 1236 -19 q 1162 -100 1205 -83 q 1062 -119 1122 -117 q 918 -122 1002 -122 q 899 -50 913 -91 q 871 21 886 -9 q 941 19 905 20 q 1005 19 977 18 q 1043 20 1033 19 q 1067 25 1061 20 q 1074 45 1074 30 l 1074 478 l 412 478 l 412 621 l 501 621 q 467 685 490 651 q 424 742 444 720 q 641 807 563 766 q 755 905 718 847 l 473 905 l 473 1043 l 806 1043 q 818 1160 814 1099 l 987 1160 q 982 1100 985 1128 q 975 1043 979 1072 l 1307 1043 l 1307 905 l 939 905 l 935 895 q 1065 843 996 871 q 1197 785 1134 814 q 1304 730 1261 755 l 1217 621 l 1344 621 z "},"借":{"ha":1389,"x_min":17,"x_max":1349,"o":"m 332 1173 l 489 1122 q 428 978 462 1050 q 355 836 394 906 l 355 -118 l 199 -118 l 199 591 q 104 481 153 532 q 81 533 96 500 q 48 599 66 566 q 17 652 31 632 q 138 798 79 714 q 247 977 197 881 q 332 1173 296 1073 m 1079 375 l 704 375 l 704 282 l 1079 282 l 1079 375 m 704 60 l 1079 60 l 1079 158 l 704 158 l 704 60 m 546 -126 l 546 510 l 1246 510 l 1246 -119 l 1079 -119 l 1079 -75 l 704 -75 l 704 -126 l 546 -126 m 790 873 l 790 739 l 978 739 l 978 873 l 790 873 m 1140 739 l 1349 739 l 1349 590 l 416 590 l 416 739 l 629 739 l 629 873 l 467 873 l 467 1015 l 629 1015 l 629 1165 l 790 1165 l 790 1015 l 978 1015 l 978 1165 l 1140 1165 l 1140 1015 l 1314 1015 l 1314 873 l 1140 873 l 1140 739 z "},"倡":{"ha":1389,"x_min":26,"x_max":1283,"o":"m 1048 920 l 1048 1003 l 669 1003 l 669 920 l 1048 920 m 1048 718 l 1048 803 l 669 803 l 669 718 l 1048 718 m 1221 1129 l 1221 593 l 505 593 l 505 1129 l 1221 1129 m 318 1173 l 479 1122 q 421 970 454 1047 q 350 819 387 893 l 350 -118 l 189 -118 l 189 558 q 153 512 171 534 q 117 469 134 490 q 94 526 110 491 q 59 596 78 561 q 26 653 41 631 q 140 799 85 715 q 240 978 195 882 q 318 1173 286 1074 m 614 68 l 1111 68 l 1111 160 l 614 160 l 614 68 m 1111 379 l 614 379 l 614 294 l 1111 294 l 1111 379 m 450 518 l 1283 518 l 1283 -114 l 1111 -114 l 1111 -71 l 614 -71 l 614 -121 l 450 -121 l 450 518 z "},"倦":{"ha":1389,"x_min":31,"x_max":1329,"o":"m 335 1171 l 490 1122 q 357 827 436 973 l 357 -118 l 199 -118 l 199 576 q 159 526 179 551 q 119 481 139 501 q 96 533 112 500 q 62 598 80 566 q 31 652 45 631 q 148 798 91 714 q 253 977 205 881 q 335 1171 301 1072 m 722 449 l 1048 449 q 1024 493 1036 471 q 1000 541 1011 516 l 782 541 q 754 493 768 516 q 722 449 739 471 m 1105 368 l 1105 239 q 1096 167 1105 194 q 1057 125 1086 140 q 988 106 1028 109 q 896 103 948 103 q 881 166 892 133 q 857 227 869 199 q 911 225 886 225 q 946 227 937 225 q 962 241 962 227 l 962 321 l 730 321 l 730 90 q 746 45 730 55 q 818 36 761 36 l 1046 36 q 1092 45 1076 36 q 1115 82 1108 54 q 1125 164 1122 109 q 1190 133 1149 149 q 1263 110 1232 117 q 1232 -20 1253 26 q 1170 -85 1211 -66 q 1059 -103 1128 -103 l 803 -103 q 668 -86 716 -103 q 600 -28 619 -70 q 581 87 581 13 l 581 292 q 539 259 561 275 q 496 227 517 242 q 466 268 486 243 q 424 318 446 294 q 385 358 401 343 q 589 541 506 432 l 412 541 l 412 671 l 669 671 q 693 721 682 696 q 715 774 705 747 l 498 774 l 498 904 l 627 904 q 573 992 606 941 q 510 1084 539 1043 l 619 1152 q 688 1062 650 1112 q 746 977 726 1012 l 637 904 l 757 904 q 785 1035 774 966 q 806 1177 796 1103 l 966 1160 q 945 1028 958 1092 q 918 904 932 964 l 1096 904 q 1040 933 1072 918 q 985 958 1008 949 q 1044 1044 1015 995 q 1093 1137 1072 1093 l 1225 1101 q 1172 997 1202 1050 q 1112 904 1141 944 l 1238 904 l 1238 774 l 882 774 q 864 721 873 747 q 844 671 855 696 l 1325 671 l 1325 541 l 1154 541 q 1234 446 1189 489 q 1329 375 1279 402 q 1274 318 1304 354 q 1226 254 1244 282 q 1163 305 1193 276 q 1105 368 1133 334 z "},"债":{"ha":1389,"x_min":35,"x_max":1328,"o":"m 786 886 l 786 946 l 460 946 l 460 1067 l 786 1067 l 786 1175 l 939 1175 l 939 1067 l 1258 1067 l 1258 946 l 939 946 l 939 886 l 1221 886 l 1221 774 l 939 774 l 939 710 l 1318 710 l 1318 593 l 424 593 l 424 710 l 786 710 l 786 774 l 503 774 l 503 886 l 786 886 m 1244 144 l 1089 144 l 1089 432 l 637 432 l 637 144 l 489 144 l 489 539 l 1244 539 l 1244 144 m 294 1171 l 452 1125 q 407 999 431 1063 q 357 873 383 936 l 357 -118 l 199 -118 l 199 581 q 162 528 181 553 q 126 481 144 503 q 102 533 118 500 q 67 598 85 566 q 35 652 50 631 q 136 800 87 715 q 226 979 185 884 q 294 1171 267 1074 m 932 368 l 932 269 q 917 175 932 226 q 857 70 902 123 q 723 -33 812 17 q 488 -123 634 -83 q 444 -66 472 -98 q 389 -11 415 -33 q 606 57 526 20 q 722 132 685 94 q 770 208 760 171 q 781 273 781 244 l 781 368 l 932 368 m 900 41 l 978 146 q 1100 104 1034 128 q 1226 54 1166 80 q 1328 4 1287 28 l 1247 -111 q 1149 -60 1209 -87 q 1024 -5 1090 -32 q 900 41 958 22 z "},"值":{"ha":1389,"x_min":32,"x_max":1340,"o":"m 332 1173 l 482 1122 q 420 970 455 1046 q 347 819 386 893 l 347 -119 l 195 -119 l 195 574 q 157 526 176 549 q 119 481 138 503 q 96 533 112 500 q 63 599 81 566 q 32 653 46 632 q 148 800 92 716 q 251 978 204 883 q 332 1173 298 1074 m 671 122 l 671 45 l 1082 45 l 1082 122 l 671 122 m 1082 693 l 671 693 l 671 616 l 1082 616 l 1082 693 m 1082 315 l 671 315 l 671 236 l 1082 236 l 1082 315 m 1082 427 l 1082 503 l 671 503 l 671 427 l 1082 427 m 1235 45 l 1340 45 l 1340 -94 l 406 -94 l 406 45 l 525 45 l 525 814 l 765 814 q 774 860 770 836 q 782 908 778 884 l 467 908 l 467 1050 l 802 1050 q 807 1114 804 1083 q 812 1174 810 1145 l 987 1168 q 978 1109 983 1139 q 966 1050 972 1080 l 1308 1050 l 1308 908 l 937 908 q 926 859 931 882 q 914 814 920 836 l 1235 814 l 1235 45 z "},"倾":{"ha":1389,"x_min":18,"x_max":1350,"o":"m 743 857 l 903 857 q 917 908 910 882 q 929 962 923 935 l 679 962 l 679 1101 l 1340 1101 l 1340 962 l 1097 962 q 1074 908 1086 935 q 1051 857 1062 881 l 1286 857 l 1286 200 l 1139 200 l 1139 715 l 885 715 l 885 196 l 743 196 l 743 857 m 262 1173 l 410 1131 q 369 1004 391 1068 q 321 879 347 941 l 321 -121 l 174 -121 l 174 587 q 133 527 154 556 q 93 472 113 498 q 74 526 87 492 q 46 594 61 559 q 18 650 31 629 q 159 887 94 748 q 262 1173 223 1025 m 553 311 l 693 372 q 687 297 688 339 q 688 229 686 254 q 536 150 588 179 q 461 103 484 120 q 428 75 439 87 q 404 149 422 105 q 368 218 386 192 q 400 251 386 229 q 414 313 414 273 l 414 1018 l 553 1018 l 553 771 l 696 771 l 696 632 l 553 632 l 553 311 m 1072 673 l 1072 393 q 1062 254 1072 326 q 1019 113 1052 182 q 917 -18 985 43 q 733 -126 849 -79 q 694 -76 720 -104 q 644 -31 669 -47 q 800 60 741 7 q 891 172 859 113 q 933 289 922 231 q 945 395 945 347 l 945 673 l 1072 673 m 1013 90 l 1096 189 q 1187 127 1139 161 q 1279 58 1236 92 q 1350 -5 1322 23 l 1261 -119 q 1194 -53 1236 -90 q 1103 22 1152 -16 q 1013 90 1055 59 z "},"假":{"ha":1389,"x_min":32,"x_max":1357,"o":"m 1275 1124 l 1275 650 l 871 650 l 871 789 l 1124 789 l 1124 985 l 871 985 l 871 1124 l 1275 1124 m 261 1175 l 416 1137 q 378 999 399 1069 q 332 863 358 929 l 332 -119 l 175 -119 l 175 547 q 111 463 143 500 q 93 517 106 484 q 63 584 79 551 q 32 637 46 617 q 170 877 111 734 q 261 1175 228 1020 m 686 987 l 583 987 l 583 781 l 686 781 l 686 987 m 822 150 l 583 150 l 583 -118 l 432 -118 l 432 1124 l 828 1124 l 828 646 l 583 646 l 583 541 l 804 541 l 804 406 l 583 406 l 583 286 l 822 286 l 822 150 m 1126 446 l 971 446 q 1005 353 985 398 q 1048 267 1025 309 q 1092 352 1073 307 q 1126 446 1112 396 m 1204 583 l 1297 557 q 1236 326 1276 429 q 1141 144 1197 224 q 1240 61 1185 96 q 1357 1 1295 25 q 1305 -57 1333 -20 q 1261 -122 1278 -93 q 1145 -55 1198 -94 q 1046 35 1092 -16 q 930 -56 993 -18 q 793 -125 867 -95 q 756 -61 779 -97 q 711 -4 733 -26 q 960 151 857 45 q 895 281 923 212 q 844 427 866 351 l 926 446 l 836 446 l 836 579 l 1178 579 l 1204 583 z "},"偎":{"ha":1389,"x_min":35,"x_max":1354,"o":"m 1096 918 l 1096 1007 l 953 1007 l 953 918 l 1096 918 m 1096 715 l 1096 804 l 953 804 l 953 715 l 1096 715 m 671 804 l 671 715 l 811 715 l 811 804 l 671 804 m 671 1007 l 671 918 l 811 918 l 811 1007 l 671 1007 m 1246 1128 l 1246 593 l 528 593 l 528 1128 l 1246 1128 m 339 1173 l 494 1122 q 433 970 467 1047 q 358 819 398 892 l 358 -122 l 201 -122 l 201 574 q 123 479 163 525 q 100 533 116 500 q 66 599 84 566 q 35 653 49 632 q 152 799 95 715 q 258 977 210 882 q 339 1173 306 1073 m 1213 350 l 1311 241 q 1220 185 1267 212 q 1129 136 1173 158 q 1354 0 1222 43 q 1299 -63 1329 -23 q 1253 -134 1270 -103 q 989 62 1089 -66 q 832 374 888 191 l 717 374 l 717 72 l 909 107 q 903 33 905 74 q 904 -36 902 -9 q 742 -73 805 -58 q 642 -97 679 -87 q 587 -114 606 -106 q 555 -127 568 -121 q 542 -76 551 -106 q 521 -17 533 -46 q 497 29 509 12 q 540 65 519 39 q 561 138 561 91 l 561 374 l 435 374 l 435 517 l 1340 517 l 1340 374 l 981 374 q 1011 302 994 336 q 1048 235 1029 267 q 1136 291 1091 260 q 1213 350 1181 323 z "},"偏":{"ha":1389,"x_min":24,"x_max":1295,"o":"m 345 1171 l 498 1121 q 437 976 471 1049 q 363 832 402 903 l 363 -118 l 205 -118 l 205 593 q 158 536 182 563 q 111 484 134 509 q 89 534 104 502 q 55 600 73 567 q 24 652 37 632 q 147 797 87 714 q 258 976 207 880 q 345 1171 309 1072 m 1097 182 l 1097 17 q 1133 16 1117 16 q 1154 16 1148 16 q 1166 29 1166 16 l 1166 182 l 1097 182 m 924 307 l 996 307 l 996 458 l 924 458 l 924 307 m 757 307 l 823 307 l 823 458 l 757 458 l 757 307 m 1166 458 l 1097 458 l 1097 307 l 1166 307 l 1166 458 m 1114 900 l 635 900 l 635 778 l 1114 778 l 1114 900 m 1295 583 l 1295 28 q 1287 -39 1295 -12 q 1255 -83 1280 -66 q 1202 -104 1232 -100 q 1132 -109 1173 -109 q 1119 -53 1129 -83 q 1097 3 1109 -23 l 1097 -78 l 996 -78 l 996 182 l 924 182 l 924 -81 l 823 -81 l 823 182 l 757 182 l 757 -117 l 631 -117 l 629 545 q 608 321 623 437 q 565 93 593 204 q 493 -109 538 -18 q 456 -74 480 -94 q 408 -38 433 -55 q 367 -12 383 -21 q 431 171 408 72 q 466 373 454 270 q 480 572 477 475 q 484 750 484 669 l 484 1035 l 811 1035 q 790 1090 802 1062 q 766 1141 778 1118 l 921 1178 q 954 1106 937 1145 q 982 1035 970 1068 l 1275 1035 l 1275 643 l 633 643 l 631 583 l 1295 583 z "},"做":{"ha":1389,"x_min":20,"x_max":1350,"o":"m 294 1174 l 447 1128 q 396 987 425 1058 q 336 847 368 916 l 336 -119 l 184 -119 l 184 575 q 100 461 144 514 q 80 515 94 481 q 49 584 66 549 q 20 640 33 618 q 127 791 76 705 q 222 975 179 877 q 294 1174 264 1073 m 842 504 l 842 50 q 929 136 890 90 q 1000 237 968 183 q 952 384 972 309 q 918 532 932 458 q 895 492 907 511 q 869 454 883 472 q 842 504 860 476 m 697 174 l 697 410 l 554 410 l 554 174 l 697 174 m 1139 782 l 1022 782 q 1016 762 1019 772 q 1010 742 1013 752 q 1035 581 1019 663 q 1075 419 1051 498 q 1114 590 1099 500 q 1139 782 1130 681 m 1344 782 l 1278 782 q 1233 483 1262 619 q 1153 233 1204 346 q 1238 111 1190 167 q 1350 16 1286 56 q 1297 -46 1328 -7 q 1251 -115 1267 -85 q 1071 89 1142 -33 q 978 -22 1030 28 q 863 -115 926 -73 q 835 -80 853 -102 q 798 -38 817 -59 q 764 -4 778 -18 q 791 14 777 4 q 819 33 806 23 l 554 33 l 554 -65 l 412 -65 l 412 550 l 551 550 l 551 777 l 392 777 l 392 925 l 551 925 l 551 1158 l 707 1158 l 707 925 l 851 925 l 851 777 l 707 777 l 707 550 l 812 550 q 778 596 792 579 q 861 757 827 665 q 919 957 896 850 q 957 1175 943 1063 l 1104 1150 q 1084 1034 1095 1093 q 1061 921 1074 976 l 1344 921 l 1344 782 z "},"停":{"ha":1389,"x_min":33,"x_max":1337,"o":"m 457 935 l 457 1064 q 404 940 432 1002 q 345 818 376 878 l 345 -119 l 195 -119 l 195 575 q 157 526 176 550 q 119 481 138 503 q 97 533 112 500 q 64 599 81 566 q 33 652 47 632 q 148 799 92 715 q 250 978 203 882 q 329 1171 296 1073 l 479 1124 q 470 1097 474 1110 q 460 1071 465 1084 l 808 1071 q 772 1146 790 1114 l 925 1187 q 956 1129 941 1160 q 983 1071 972 1099 l 1325 1071 l 1325 935 l 457 935 m 690 772 l 690 699 l 1072 699 l 1072 772 l 690 772 m 1231 587 l 541 587 l 541 882 l 1231 882 l 1231 587 m 1337 532 l 1337 281 l 1192 281 l 1192 201 l 972 201 l 972 41 q 958 -46 972 -15 q 899 -94 943 -78 q 796 -113 855 -110 q 659 -115 736 -115 q 640 -43 653 -82 q 611 29 626 -3 q 677 27 643 28 q 740 26 712 26 q 778 26 768 26 q 806 47 806 26 l 806 201 l 568 201 l 568 330 l 1189 330 l 1189 403 l 567 403 l 567 281 l 425 281 l 425 532 l 1337 532 z "},"健":{"ha":1389,"x_min":33,"x_max":1343,"o":"m 1128 954 l 1051 954 l 1051 890 l 1128 890 l 1128 954 m 1128 704 l 1128 771 l 1051 771 l 1051 704 l 1128 704 m 916 890 l 916 954 l 765 954 l 765 1072 l 916 1072 l 916 1177 l 1051 1177 l 1051 1072 l 1251 1072 l 1251 890 l 1331 890 l 1331 771 l 1251 771 l 1251 586 l 1051 586 l 1051 524 l 1267 524 l 1267 395 l 1051 395 l 1051 328 l 1304 328 l 1304 200 l 1051 200 l 1051 77 l 916 77 l 916 200 l 724 200 l 724 328 l 916 328 l 916 395 l 751 395 l 751 524 l 916 524 l 916 586 l 765 586 l 765 704 l 916 704 l 916 771 l 705 771 l 705 890 l 916 890 m 314 857 l 314 -20 q 473 151 410 43 q 410 264 439 201 q 358 406 381 328 l 473 449 q 533 293 499 358 q 564 417 551 351 q 585 558 576 484 l 376 558 q 449 740 411 635 q 519 949 487 844 l 396 949 l 396 1082 q 358 969 379 1027 q 314 857 338 912 m 643 686 l 726 671 q 628 168 703 358 q 823 65 712 91 q 1059 39 933 39 q 1114 38 1076 39 q 1196 38 1152 38 q 1280 39 1240 39 q 1343 40 1320 40 q 1316 -24 1329 16 q 1297 -94 1303 -65 l 1047 -94 q 784 -65 905 -94 q 568 45 663 -37 q 416 -118 504 -58 q 369 -66 401 -96 q 314 -22 337 -36 l 314 -118 l 170 -118 l 170 581 q 107 493 138 532 q 90 547 102 513 q 61 615 77 581 q 33 671 46 649 q 167 898 106 764 q 264 1174 227 1032 l 411 1132 l 399 1089 l 714 1089 q 644 885 682 992 q 572 684 606 777 l 618 684 l 643 686 z "}}}
